<svg xmlns="http://www.w3.org/2000/svg" width="819.609" height="402.162"><style>.st0{fill:#e2e2e2}.st1{fill:#fff}.st2{fill:#333}</style><g id="Layer_1"><path class="st0" d="M370.328 164.24h-2v-5h2v5zm0-8h-2v-5h2v5zm0-8h-2v-5h2v5zm0-8h-2v-5h2v5zm0-8h-2v-5h2v5zm0-8h-2v-5h2v5zm0-8h-2v-2.867c0-.74.028-1.482.085-2.208l1.994.155a26.284 26.284 0 0 0-.079 2.052v2.868zm.459-7.782l-1.965-.373c.322-1.696.803-3.37 1.429-4.975l1.863.727a26.157 26.157 0 0 0-1.327 4.621zm2.525-7.248l-1.771-.929a28.456 28.456 0 0 1 2.813-4.344l1.572 1.235a26.628 26.628 0 0 0-2.614 4.038zm4.521-6.207l-1.428-1.4a28.51 28.51 0 0 1 3.944-3.348l1.15 1.637a26.485 26.485 0 0 0-3.666 3.111zm6.117-4.639l-.963-1.753a28.214 28.214 0 0 1 4.745-2.063l.625 1.899a26.233 26.233 0 0 0-4.407 1.917zm7.196-2.665l-.41-1.957a28.308 28.308 0 0 1 5.139-.594l.049 1.999a26.468 26.468 0 0 0-4.778.552zm291.488-.56h-3.736v-2h3.736c.407 0 .813-.009 1.218-.028l.091 1.998c-.435.02-.871.03-1.309.03zm-6.737 0h-5v-2h5v2zm-8 0h-5v-2h5v2zm-8 0h-5v-2h5v2zm-8 0h-5v-2h5v2zm-8 0h-5v-2h5v2zm-8 0h-5v-2h5v2zm-8 0h-5v-2h5v2zm-8 0h-5v-2h5v2zm-8 0h-5v-2h5v2zm-8 0h-5v-2h5v2zm-8 0h-5v-2h5v2zm-8 0h-5v-2h5v2zm-8 0h-5v-2h5v2zm-8 0h-5v-2h5v2zm-8 0h-5v-2h5v2zm-8 0h-5v-2h5v2zm-8 0h-5v-2h5v2zm-8 0h-5v-2h5v2zm-8 0h-5v-2h5v2zm-8 0h-5v-2h5v2zm-8 0h-5v-2h5v2zm-8 0h-5v-2h5v2zm-8 0h-5v-2h5v2zm-8 0h-5v-2h5v2zm-8 0h-5v-2h5v2zm-8 0h-5v-2h5v2zm-8 0h-5v-2h5v2zm-8 0h-5v-2h5v2zm-8 0h-5v-2h5v2zm-8 0h-5v-2h5v2zm-8 0h-5v-2h5v2zm-8 0h-5v-2h5v2zm-8 0h-5v-2h5v2zm-8 0h-5v-2h5v2zm-8 0h-5v-2h5v2zm283.136-.341l-.309-1.976a26.21 26.21 0 0 0 4.66-1.178l.666 1.886a28.067 28.067 0 0 1-5.017 1.268zm7.887-2.466l-.871-1.8a26.344 26.344 0 0 0 4.118-2.484l1.186 1.61a28.203 28.203 0 0 1-4.433 2.674zm6.832-4.65l-1.355-1.472a26.35 26.35 0 0 0 3.228-3.566l1.6 1.201a28.644 28.644 0 0 1-3.473 3.837zm5.197-6.42l-1.721-1.018a26.295 26.295 0 0 0 2.056-4.345l1.879.686a28.154 28.154 0 0 1-2.214 4.677zm3.117-7.651l-1.943-.474c.378-1.551.615-3.151.704-4.756l1.996.11a28.128 28.128 0 0 1-.757 5.12zM773.628 382.686h-6.456v-2.582h6.456v2.582zm-10.329 0h-6.455v-2.582h6.455v2.582zm-10.329 0h-6.455v-2.582h6.455v2.582zm-10.328 0h-6.456v-2.582h6.456v2.582zm-10.33 0h-1.842v-2.582h1.842v2.582zm45.334-.171l-.305-2.564a21.73 21.73 0 0 0 5.871-1.55l1.002 2.381a24.319 24.319 0 0 1-6.568 1.733zm10.184-3.628l-1.385-2.18a21.978 21.978 0 0 0 4.627-3.938l1.93 1.717a24.545 24.545 0 0 1-5.172 4.401zm7.624-7.667l-2.188-1.371a21.795 21.795 0 0 0 2.478-5.544l2.482.713a24.287 24.287 0 0 1-2.772 6.202zm3.567-10.208l-2.566-.289a22.137 22.137 0 0 0-.156-6.075l2.547-.422a24.82 24.82 0 0 1 .175 6.786zm-3.619-9.901a21.8 21.8 0 0 0-2.766-5.406l2.113-1.484a24.35 24.35 0 0 1 3.092 6.047l-2.439.843zm-5.105-8.211a21.989 21.989 0 0 0-4.825-3.693l1.27-2.248a24.525 24.525 0 0 1 5.394 4.127l-1.839 1.814zm-8.144-5.217a21.793 21.793 0 0 0-5.945-1.24l.17-2.576c2.276.15 4.514.617 6.65 1.387l-.875 2.429zm-9.732-1.288h-6.455v-2.582h6.455v2.582zm-10.328 0h-6.456v-2.582h6.456v2.582zm-10.329 0h-6.455v-2.582h6.455v2.582zm-10.328 0h-6.456v-2.582h6.456v2.582zm-10.33 0h-6.455v-2.582h6.455v2.582zm-10.329 0h-6.455v-2.582h6.455v2.582zM212.544 308.612l-.03-2.582a97.098 97.098 0 0 0 6.361-.283l.199 2.574a99.44 99.44 0 0 1-6.53.291zm-3.922-.03c-2.17-.061-4.365-.193-6.524-.396l.241-2.57c2.103.196 4.241.326 6.354.384l-.071 2.582zm14.357-.643l-.302-2.564a95.178 95.178 0 0 0 6.293-.955l.473 2.539c-2.13.396-4.304.726-6.464.98zm-24.78-.197a98.262 98.262 0 0 1-6.447-1.085l.514-2.531a96.66 96.66 0 0 0 6.277 1.058l-.344 2.558zm35.086-1.578l-.574-2.518a96.299 96.299 0 0 0 6.155-1.622l.741 2.473a97.703 97.703 0 0 1-6.322 1.667zm-45.362-.364a98.308 98.308 0 0 1-6.294-1.769l.78-2.461a96.127 96.127 0 0 0 6.129 1.722l-.615 2.508zm55.419-2.505l-.84-2.441a95.127 95.127 0 0 0 5.937-2.269l1.002 2.379a97.57 97.57 0 0 1-6.099 2.331zm-65.44-.532a98.694 98.694 0 0 1-6.077-2.438l1.041-2.363a94.783 94.783 0 0 0 5.917 2.374l-.881 2.427zm75.115-3.391l-1.097-2.338a95.397 95.397 0 0 0 5.664-2.892l1.25 2.26a99.353 99.353 0 0 1-5.817 2.97zm-84.756-.705a97.301 97.301 0 0 1-5.778-3.073l1.288-2.238a95.474 95.474 0 0 0 5.626 2.993l-1.136 2.318zm93.962-4.231l-1.339-2.207a96.447 96.447 0 0 0 5.327-3.479l1.483 2.113a98.403 98.403 0 0 1-5.471 3.573zm-103.106-.871a98.912 98.912 0 0 1-5.415-3.67l1.519-2.088a96.77 96.77 0 0 0 5.273 3.574l-1.377 2.184zm111.739-5.018l-1.565-2.053a96.015 96.015 0 0 0 4.929-4.026l1.699 1.945a97.9 97.9 0 0 1-5.063 4.134zm-120.283-1.025a98.671 98.671 0 0 1-4.994-4.222l1.731-1.916a96.315 96.315 0 0 0 4.863 4.112l-1.6 2.026zm128.248-5.75l-1.774-1.875a97.508 97.508 0 0 0 4.477-4.527l1.896 1.754a98.816 98.816 0 0 1-4.599 4.648zm-136.1-1.161a99.722 99.722 0 0 1-4.518-4.727l1.925-1.721a96.913 96.913 0 0 0 4.399 4.602l-1.806 1.846zm143.306-6.419l-1.963-1.678a95.693 95.693 0 0 0 3.974-4.977l2.07 1.543a97.388 97.388 0 0 1-4.081 5.112zm-150.38-1.279a98.578 98.578 0 0 1-3.991-5.176l2.096-1.508a95.431 95.431 0 0 0 3.887 5.039l-1.992 1.645zm156.745-7.026l-2.13-1.461a95.821 95.821 0 0 0 3.425-5.371l2.223 1.314a98.608 98.608 0 0 1-3.518 5.518zM129.43 264.51a99.128 99.128 0 0 1-3.419-5.568l2.244-1.277a96.053 96.053 0 0 0 3.329 5.422l-2.154 1.423zm168.412-7.561l-2.273-1.225a95.21 95.21 0 0 0 2.833-5.708l2.351 1.07a97.403 97.403 0 0 1-2.911 5.863zm-173.7-1.45a98.546 98.546 0 0 1-2.805-5.896l2.367-1.031a97.375 97.375 0 0 0 2.731 5.742l-2.293 1.185zm178.166-8.026l-2.392-.975a96.175 96.175 0 0 0 2.206-5.98l2.451.811a97.539 97.539 0 0 1-2.265 6.144zm-182.459-1.491a98.545 98.545 0 0 1-2.161-6.171l2.464-.771a96.166 96.166 0 0 0 2.104 6.009l-2.407.933zm185.882-8.402l-2.482-.711a95.208 95.208 0 0 0 1.548-6.174l2.524.543a97.622 97.622 0 0 1-1.59 6.342zm-189.139-1.536a98.277 98.277 0 0 1-1.487-6.367l2.533-.502a95.011 95.011 0 0 0 1.447 6.197l-2.493.672zm191.479-8.658l-2.544-.441a95.47 95.47 0 0 0 .879-6.305l2.568.271a98.336 98.336 0 0 1-.903 6.475zm-193.652-1.574a98.978 98.978 0 0 1-.798-6.489l2.572-.23c.188 2.109.45 4.235.777 6.319l-2.551.4zm194.89-8.808l-2.576-.17c.139-2.103.209-4.243.209-6.363h2.582a100.736 100.736 0 0 1-.215 6.533zm-195.96-1.593a100.289 100.289 0 0 1-.109-6.537l2.582.041a97.603 97.603 0 0 0 .106 6.369l-2.579.127zm193.539-8.186a96.994 96.994 0 0 0-.423-6.353l2.57-.256c.215 2.158.36 4.353.433 6.522l-2.58.087zm-190.931-2.13l-2.578-.143c.12-2.166.314-4.357.577-6.512l2.563.312a97.091 97.091 0 0 0-.562 6.343zm190.055-8.015a95.928 95.928 0 0 0-1.095-6.271l2.527-.529a98.297 98.297 0 0 1 1.124 6.44l-2.556.36zm-188.953-2.107l-2.549-.416c.35-2.144.776-4.302 1.268-6.414l2.515.584a95.06 95.06 0 0 0-1.234 6.246zm187.002-7.887a95.082 95.082 0 0 0-1.759-6.116l2.456-.797a98.19 98.19 0 0 1 1.807 6.284l-2.504.629zm-184.829-2.06l-2.489-.686a97.701 97.701 0 0 1 1.948-6.242l2.438.852a95.269 95.269 0 0 0-1.897 6.076zm181.818-7.668a95.946 95.946 0 0 0-2.401-5.885l2.356-1.055a98.114 98.114 0 0 1 2.466 6.045l-2.421.895zm-178.586-1.998l-2.401-.949a97.632 97.632 0 0 1 2.61-6.004l2.332 1.107a96.09 96.09 0 0 0-2.541 5.846zm174.559-7.333a96.447 96.447 0 0 0-3.018-5.599l2.231-1.3a99.168 99.168 0 0 1 3.099 5.75l-2.312 1.149zm-170.307-1.935l-2.286-1.201a98.89 98.89 0 0 1 3.235-5.688l2.201 1.351a96.06 96.06 0 0 0-3.15 5.538zm165.304-6.921a96.82 96.82 0 0 0-3.597-5.25l2.08-1.529a98.762 98.762 0 0 1 3.695 5.391l-2.178 1.388zm-160.089-1.837l-2.145-1.438a99.073 99.073 0 0 1 3.82-5.31l2.045 1.576a97.356 97.356 0 0 0-3.72 5.172zm154.169-6.443a96.292 96.292 0 0 0-4.135-4.841l1.907-1.741a99.064 99.064 0 0 1 4.245 4.971l-2.017 1.611zm-148.054-1.708l-1.98-1.657a99.358 99.358 0 0 1 4.36-4.873l1.866 1.784a97.106 97.106 0 0 0-4.246 4.746zm141.288-5.902a96.051 96.051 0 0 0-4.625-4.377l1.712-1.933a99.263 99.263 0 0 1 4.749 4.495l-1.836 1.815zm-134.347-1.553l-1.794-1.857a98.51 98.51 0 0 1 4.85-4.383l1.667 1.972a96.695 96.695 0 0 0-4.723 4.268zm126.811-5.302a96.612 96.612 0 0 0-5.063-3.864l1.497-2.104a98.369 98.369 0 0 1 5.2 3.967l-1.634 2.001zm-119.123-1.374l-1.588-2.036a98.658 98.658 0 0 1 5.286-3.845l1.448 2.138a95.89 95.89 0 0 0-5.146 3.743zm110.901-4.645a95.816 95.816 0 0 0-5.447-3.305l1.266-2.251a98.895 98.895 0 0 1 5.594 3.394l-1.413 2.162zm-102.555-1.177l-1.362-2.193a98.25 98.25 0 0 1 5.662-3.261l1.214 2.279a96.728 96.728 0 0 0-5.514 3.175zm93.735-3.935a96.112 96.112 0 0 0-5.771-2.706l1.018-2.373a97.652 97.652 0 0 1 5.927 2.779l-1.174 2.3zm-84.821-.962l-1.121-2.326a98.292 98.292 0 0 1 5.975-2.637l.963 2.396a94.62 94.62 0 0 0-5.817 2.567zm75.501-3.18a95.629 95.629 0 0 0-6.029-2.072l.756-2.469a97.65 97.65 0 0 1 6.194 2.128l-.921 2.413zm-66.112-.741l-.866-2.433a97.57 97.57 0 0 1 6.231-1.985l.7 2.485a94.924 94.924 0 0 0-6.065 1.933zm56.408-2.376a95.66 95.66 0 0 0-6.207-1.41l.487-2.536a98.08 98.08 0 0 1 6.376 1.449l-.656 2.497zm-46.646-.519l-.601-2.512a98.086 98.086 0 0 1 6.407-1.305l.431 2.546a95.53 95.53 0 0 0-6.237 1.271zm36.674-1.537a96.578 96.578 0 0 0-6.323-.74l.215-2.573c2.163.181 4.347.437 6.493.76l-.385 2.553zm-26.658-.295l-.328-2.562a99.2 99.2 0 0 1 6.508-.615l.158 2.577a96.77 96.77 0 0 0-6.338.6zm16.523-.687a97.357 97.357 0 0 0-6.368-.069l-.057-2.582c2.163-.046 4.364-.023 6.538.071l-.113 2.58z"/><path class="st1" d="M277.683 164.24h35.724v125.84h-35.724z"/><path class="st0" d="M249.115 75.941h-6.456v-2.582h6.456v2.582zm-10.328 0h-6.456v-2.582h6.456v2.582zm-10.329 0h-6.456v-2.582h6.456v2.582zm-10.329 0h-6.455v-2.582h6.455v2.582zm-10.329 0h-6.456v-2.582h6.456v2.582zm-10.328 0h-2.512c-1.43 0-2.85-.179-4.223-.533l.645-2.5c1.162.299 2.366.451 3.578.451h2.512v2.582zm-10.625-2.074a16.827 16.827 0 0 1-5.267-4.514l2.046-1.575a14.262 14.262 0 0 0 4.464 3.826l-1.243 2.263zm-7.39-8.118a16.777 16.777 0 0 1-1.376-6.686v-.106h2.582v.089c0 1.984.392 3.89 1.165 5.68l-2.371 1.023zm-1.836-10.297a14.163 14.163 0 0 0-2.623-5.258l2.024-1.604a16.77 16.77 0 0 1 3.098 6.21l-2.499.652zm-5.147-7.743a14.17 14.17 0 0 0-5.3-2.539l.61-2.509a16.724 16.724 0 0 1 6.26 2.998l-1.57 2.05zm-8.832-2.943h-6.456v-2.582h6.456v2.582zm-10.329 0h-6.456v-2.582h6.456v2.582zm-10.329 0h-6.456v-2.582h6.456v2.582zm-10.328 0H126.2v-2.582h6.456v2.582zm-10.329 0h-6.455v-2.582h6.455v2.582zm-10.329 0h-6.456v-2.582h6.456v2.582zm-10.329 0h-6.456v-2.582h6.456v2.582zm-10.328 0h-6.456v-2.582h6.456v2.582z"/><path class="st2" d="M57.297 357.426c-1.418 0-2.853-.06-4.264-.176l.165-1.994a49.88 49.88 0 0 0 7.817.031l.149 1.994c-1.279.096-2.58.145-3.867.145zm10.911-1.169l-.425-1.955a48.516 48.516 0 0 0 7.477-2.27l.733 1.861a50.845 50.845 0 0 1-7.785 2.364zm-22.211-.086a50.849 50.849 0 0 1-7.771-2.427l.748-1.855a48.667 48.667 0 0 0 7.463 2.331l-.44 1.951zm36.418-5.341l-.985-1.74a49.298 49.298 0 0 0 6.472-4.379l1.249 1.562a51.233 51.233 0 0 1-6.736 4.557zm-50.593-.204a51.267 51.267 0 0 1-6.702-4.612l1.262-1.553a49.175 49.175 0 0 0 6.439 4.433l-.999 1.732zm62.566-9.172l-1.452-1.375a49.334 49.334 0 0 0 4.906-6.086l1.652 1.127a51.306 51.306 0 0 1-5.106 6.334zm-74.468-.303a51.538 51.538 0 0 1-5.053-6.372l1.661-1.115a49.508 49.508 0 0 0 4.855 6.124l-1.463 1.363zm83.169-12.179l-1.793-.887a48.883 48.883 0 0 0 2.893-7.263l1.911.588a50.859 50.859 0 0 1-3.011 7.562zm-91.763-.366a50.877 50.877 0 0 1-2.949-7.581l1.916-.574a48.933 48.933 0 0 0 2.833 7.284l-1.8.871zm96.386-14.13l-1.975-.314c.408-2.558.615-5.179.615-7.792v-.198l2-.014v.212a51.433 51.433 0 0 1-.64 8.106zm-100.893-.398a51.56 51.56 0 0 1-.578-7.708l.001-.404 2 .016-.001.389c0 2.483.187 4.976.556 7.409l-1.978.298zm99.035-14.733a48.874 48.874 0 0 0-1.725-7.621l1.909-.596a50.928 50.928 0 0 1 1.795 7.934l-1.979.283zm-97.087-.185l-1.979-.291a50.948 50.948 0 0 1 1.825-7.927l1.906.604a48.886 48.886 0 0 0-1.752 7.614zm92.87-13.804a48.991 48.991 0 0 0-3.903-6.768l1.647-1.135a50.937 50.937 0 0 1 4.062 7.045l-1.806.858zm-88.598-.173l-1.804-.865a51.173 51.173 0 0 1 4.094-7.032l1.643 1.141a49.226 49.226 0 0 0-3.933 6.756zm80.435-11.946a49.528 49.528 0 0 0-5.722-5.327l1.243-1.566a51.57 51.57 0 0 1 5.953 5.542l-1.474 1.351zm-72.22-.146l-1.469-1.357a51.497 51.497 0 0 1 5.975-5.518l1.236 1.572a49.424 49.424 0 0 0-5.742 5.303zm60.854-9.049a48.995 48.995 0 0 0-7.036-3.409l.725-1.863a50.848 50.848 0 0 1 7.324 3.548l-1.013 1.724zm-49.455-.098l-1.006-1.729a51.066 51.066 0 0 1 7.331-3.516l.718 1.867a49.065 49.065 0 0 0-7.043 3.378zm35.882-5.336a49.295 49.295 0 0 0-7.727-1.17l.141-1.994a51.14 51.14 0 0 1 8.042 1.217l-.456 1.947zm-22.3-.042l-.449-1.949a51.276 51.276 0 0 1 8.046-1.188l.134 1.996a49.08 49.08 0 0 0-7.731 1.141zM65.719 373.616l-.029-8.347a.85.85 0 0 0-.849-.846h-.003l-14.368.057a.843.843 0 0 0-.597.252.841.841 0 0 0-.248.6l.029 8.275-2 .008-.029-8.275c-.003-.759.291-1.475.828-2.016s1.25-.841 2.009-.844l14.368-.057h.011a2.852 2.852 0 0 1 2.849 2.838l.029 8.347-2 .008z"/><path transform="translate(-1.384 .227)" class="st2" d="M53.875 347.94h7.585v15.213h-7.585z"/><linearGradient id="SVGID_1_" gradientUnits="userSpaceOnUse" x1="21.028" y1="326.782" x2="94.352" y2="284.448"><stop offset="0" stop-color="#17c9c0"/><stop offset=".168" stop-color="#00a9d7"/><stop offset=".564" stop-color="#1cd0bb"/><stop offset="1" stop-color="#0fbec8"/></linearGradient><path d="M57.69 263.288c-23.376 0-42.327 18.95-42.327 42.326 0 23.377 18.95 42.327 42.327 42.327s42.327-18.95 42.327-42.327c-.001-23.375-18.951-42.326-42.327-42.326zm0 77.599c-19.053 0-34.498-15.446-34.498-34.499 0-19.053 15.445-34.498 34.498-34.498s34.498 15.445 34.498 34.498c0 19.053-15.445 34.499-34.498 34.499z" fill="url(#SVGID_1_)"/><path class="st2" d="M57.3 265.288c22.562 0 40.99 18.357 41.078 40.922.088 22.652-18.269 41.153-40.922 41.241h-.163c-22.563 0-40.99-18.357-41.078-40.922-.043-10.973 4.19-21.306 11.919-29.096 7.729-7.789 18.029-12.103 29.002-12.146l.164.001m-.02 75.773a34.63 34.63 0 0 0 26.581-12.38c5.96-7.095 8.799-16.087 7.996-25.319-.803-9.231-5.153-17.597-12.249-23.557a34.723 34.723 0 0 0-22.295-8.128 34.632 34.632 0 0 0-26.581 12.38c-12.303 14.647-10.395 36.573 4.252 48.876a34.722 34.722 0 0 0 22.296 8.128m.02-77.773h-.171c-23.793.093-43.006 19.456-42.914 43.249.092 23.735 19.364 42.914 43.078 42.914h.171c23.793-.093 43.006-19.456 42.914-43.249-.092-23.735-19.364-42.914-43.078-42.914zm-.02 75.773a32.557 32.557 0 0 1-21.008-7.659c-13.825-11.612-15.619-32.233-4.007-46.058 6.466-7.698 15.726-11.666 25.049-11.666a32.557 32.557 0 0 1 21.008 7.659c13.825 11.612 15.619 32.233 4.007 46.058-6.466 7.698-15.726 11.666-25.049 11.666z"/><path fill="none" d="M40.398 294.273h34.47v26.114h-34.47z"/><path class="st2" d="M57.082 299.046c-12.051 0-18.356-2.909-18.356-5.782s6.305-5.781 18.356-5.781 18.357 2.908 18.357 5.781-6.306 5.782-18.357 5.782zm0-9.564c-10.583 0-16.356 2.498-16.356 3.781 0 1.284 5.773 3.782 16.356 3.782 10.583 0 16.357-2.498 16.357-3.782 0-1.283-5.773-3.781-16.357-3.781zM57.082 307.783c-12.051 0-18.356-2.909-18.356-5.782h2c0 1.284 5.773 3.782 16.356 3.782 10.583 0 16.357-2.498 16.357-3.782h2c0 2.873-6.306 5.782-18.357 5.782zM57.082 316.52c-12.051 0-18.356-2.908-18.356-5.781h2c0 1.283 5.773 3.781 16.356 3.781 10.583 0 16.357-2.498 16.357-3.781h2c0 2.873-6.306 5.781-18.357 5.781zM57.082 325.258c-12.051 0-18.356-2.908-18.356-5.781h2c0 1.283 5.773 3.781 16.356 3.781 10.583 0 16.357-2.498 16.357-3.781h2c0 2.872-6.306 5.781-18.357 5.781z"/><path class="st2" d="M38.74 293.352h2v26.596h-2zM73.409 293.352h2v26.596h-2z"/><path class="st0" d="M225.756 348.779h3.228v2.582h-3.228zM133.74 374.903h-6.354v-2.582h6.354v2.582zm-10.166 0h-6.354v-2.582h6.354v2.582zm-10.165 0h-6.354v-2.582h6.354v2.582zm-10.166 0h-6.354v-2.582h6.354v2.582zm-10.166 0h-6.354v-2.582h6.354v2.582zm-10.165 0h-6.354v-2.582h6.354v2.582zm-10.166 0h-6.354v-2.582h6.354v2.582zm-10.165 0h-6.354v-2.582h6.354v2.582zm-10.166 0h-6.354v-2.582h6.354v2.582zm-10.166 0h-6.353v-2.582h6.353v2.582zm-10.166 0H25.73v-2.582h6.354v2.582zm105.595-.065l-.257-2.57a10.433 10.433 0 0 0 5.203-2.023l1.546 2.068a13.033 13.033 0 0 1-6.492 2.525zm9.416-5.552l-2.12-1.473a10.435 10.435 0 0 0 1.843-5.271l2.576.17a13.02 13.02 0 0 1-2.299 6.574zm2.669-10.11l-2.498-.654a13.066 13.066 0 0 1 3.503-6.019l1.806 1.846a10.463 10.463 0 0 0-2.811 4.827zm5.575-6.772l-1.126-2.324a12.939 12.939 0 0 1 5.688-1.301h1.05v2.582h-1.05c-1.599 0-3.134.351-4.562 1.043zm66.606-1.043h-6.354v-2.582h6.354v2.582zm-10.165 0h-6.354v-2.582h6.354v2.582zm-10.166 0h-6.354v-2.582h6.354v2.582zm-10.165 0h-6.354v-2.582h6.354v2.582zm-10.166 0h-6.354v-2.582h6.354v2.582zm-10.166 0h-6.354v-2.582h6.354v2.582zM18.667 372.321h3.228v2.582h-3.228z"/><path transform="rotate(-86.359 656.976 335)" class="st0" d="M655.712 333.388h2.581v3.227h-2.581z"/><path class="st0" d="M651.511 335.947l-2.69-.171c-1.256-.024-2.591-.18-3.871-.542l.701-2.484c1.053.297 2.146.447 3.252.447l2.772.174-.164 2.576zm-10.365-2.411a14.605 14.605 0 0 1-4.788-4.961l2.23-1.301a12.018 12.018 0 0 0 3.938 4.08l-1.38 2.182zm-6.349-8.822a14.56 14.56 0 0 1-.414-3.454c0-1.018-.04-2.047-.12-3.059l2.574-.203a41.7 41.7 0 0 1 .128 3.261c0 .962.114 1.918.34 2.844l-2.508.611zm-.999-10.162a37.889 37.889 0 0 0-1.55-5.928l2.438-.854a40.72 40.72 0 0 1 1.655 6.332l-2.543.45zm-2.931-9.34a38.267 38.267 0 0 0-3.013-5.341l2.141-1.445a40.932 40.932 0 0 1 3.216 5.702l-2.344 1.084zm-5.216-8.288a38.59 38.59 0 0 0-4.266-4.405l1.707-1.938a41.313 41.313 0 0 1 4.551 4.699l-1.992 1.644zm-7.142-6.704a38.406 38.406 0 0 0-5.236-3.182l1.16-2.307a41.03 41.03 0 0 1 5.59 3.396l-1.514 2.093zm-8.6-4.672a38.033 38.033 0 0 0-5.874-1.741l.531-2.527c2.13.448 4.24 1.073 6.274 1.86l-.931 2.408zm-9.507-2.326a39.27 39.27 0 0 0-4.296-.238h-1.896v-2.582h1.896a41.72 41.72 0 0 1 4.58.254l-.284 2.566zm-9.999-.238h-6.345v-2.582h6.345v2.582zm-10.151 0h-6.345v-2.582h6.345v2.582zm-10.151 0h-6.345v-2.582h6.345v2.582zm-10.152 0h-6.345v-2.582h6.345v2.582zm-10.152 0h-6.345v-2.582h6.345v2.582zm-10.151 0h-6.345v-2.582h6.345v2.582zM526.21 280.402h3.228v2.582h-3.228zM573.615 260.027a69.018 69.018 0 0 1-5.066-.196l.15-1.994a66.75 66.75 0 0 0 4.92.19l-.004 2zm3.044-.062l-.086-1.998a65.577 65.577 0 0 0 4.905-.396l.236 1.986a67.955 67.955 0 0 1-5.055.408zm-11.139-.434a67.094 67.094 0 0 1-5.008-.804l.391-1.961c1.599.319 3.234.581 4.859.78l-.242 1.985zm19.208-.401l-.326-1.973c1.619-.268 3.242-.6 4.822-.986l.475 1.943c-1.63.398-3.303.74-4.971 1.016zm-27.188-1.067a66.502 66.502 0 0 1-4.874-1.406l.627-1.898c1.543.51 3.134.969 4.728 1.363l-.481 1.941zm35.099-.739l-.562-1.92a64.81 64.81 0 0 0 4.666-1.563l.707 1.871a67.871 67.871 0 0 1-4.811 1.612zm-42.849-1.689a67.375 67.375 0 0 1-4.672-1.99l.854-1.809a65.18 65.18 0 0 0 4.531 1.93l-.713 1.869zm50.475-1.061l-.791-1.836a64.681 64.681 0 0 0 4.438-2.117l.93 1.771a67.32 67.32 0 0 1-4.577 2.182zm-57.875-2.294a68.225 68.225 0 0 1-4.394-2.54l1.066-1.693a65.136 65.136 0 0 0 4.263 2.466l-.935 1.767zm65.11-1.361l-1.008-1.729a64.369 64.369 0 0 0 4.153-2.638l1.135 1.646a66.926 66.926 0 0 1-4.28 2.721zm-72.044-2.862a67.423 67.423 0 0 1-4.055-3.052l1.262-1.551a66.036 66.036 0 0 0 3.934 2.96l-1.141 1.643zm78.789-1.639l-1.209-1.594a65.588 65.588 0 0 0 3.806-3.12l1.326 1.498a68.127 68.127 0 0 1-3.923 3.216zm-85.163-3.387a67.408 67.408 0 0 1-3.658-3.515l1.439-1.389a66.073 66.073 0 0 0 3.55 3.411l-1.331 1.493zm91.318-1.896l-1.391-1.438a66.127 66.127 0 0 0 3.406-3.555l1.494 1.328a66.399 66.399 0 0 1-3.509 3.665zm-97.04-3.857a67.42 67.42 0 0 1-3.209-3.929l1.596-1.205a65.558 65.558 0 0 0 3.113 3.812l-1.5 1.322zm102.524-2.129l-1.555-1.26a65.591 65.591 0 0 0 2.954-3.938l1.645 1.139a68.122 68.122 0 0 1-3.044 4.059zm-107.512-4.264a67.072 67.072 0 0 1-2.712-4.285l1.729-1.004a64.51 64.51 0 0 0 2.632 4.156l-1.649 1.133zm112.232-2.337l-1.693-1.064a64.581 64.581 0 0 0 2.458-4.266l1.77.932a66.802 66.802 0 0 1-2.535 4.398zm-116.413-4.61a67.797 67.797 0 0 1-2.175-4.579l1.838-.789a65.176 65.176 0 0 0 2.11 4.442l-1.773.926zm120.308-2.52l-1.811-.85a65.48 65.48 0 0 0 1.924-4.535l1.869.711a66.845 66.845 0 0 1-1.982 4.674zm-123.616-4.876a67.993 67.993 0 0 1-1.604-4.812l1.92-.561c.459 1.57.982 3.142 1.557 4.669l-1.873.704zm126.618-2.676l-1.9-.625a64.14 64.14 0 0 0 1.356-4.729l1.941.477a66.394 66.394 0 0 1-1.397 4.877zm-129.007-5.079a67.777 67.777 0 0 1-1.009-4.973l1.975-.322c.263 1.61.592 3.233.978 4.824l-1.944.471zm131.063-2.768l-1.961-.389c.316-1.597.576-3.231.771-4.86l1.986.238a66.575 66.575 0 0 1-.796 5.011zm-132.494-5.218a67.592 67.592 0 0 1-.4-5.056l1.998-.084c.069 1.642.199 3.293.389 4.907l-1.987.233zm133.585-2.823l-1.994-.148c.121-1.625.183-3.28.183-4.919h2c0 1.688-.064 3.393-.189 5.067zm-132.044-5.27l-2-.006a67.64 67.64 0 0 1 .204-5.068l1.994.156a66.285 66.285 0 0 0-.198 4.918zm130.184-2.348a65.647 65.647 0 0 0-.373-4.907l1.986-.227c.19 1.669.32 3.37.385 5.058l-1.998.076zm-129.69-5.51l-1.984-.244a66.58 66.58 0 0 1 .812-5.008l1.961.395a64.105 64.105 0 0 0-.789 4.857zm128.916-2.323a65.259 65.259 0 0 0-.963-4.826l1.945-.465c.391 1.631.725 3.305.992 4.975l-1.974.316zm-127.48-5.414l-1.941-.484a67.746 67.746 0 0 1 1.414-4.872l1.898.631a65.201 65.201 0 0 0-1.371 4.725zm125.764-2.268a65.127 65.127 0 0 0-1.541-4.673l1.875-.697a66.651 66.651 0 0 1 1.588 4.817l-1.922.553zm-123.397-5.247l-1.867-.717a66.786 66.786 0 0 1 1.998-4.667l1.807.855a66.052 66.052 0 0 0-1.938 4.529zm120.765-2.161a65.853 65.853 0 0 0-2.096-4.449l1.775-.92a67.275 67.275 0 0 1 2.16 4.586l-1.839.783zm-117.5-5.011l-1.766-.938a68.034 68.034 0 0 1 2.547-4.391l1.691 1.068a67.171 67.171 0 0 0-2.472 4.261zm113.987-2.024a65.097 65.097 0 0 0-2.619-4.165l1.652-1.128a67.48 67.48 0 0 1 2.699 4.293l-1.732 1zm-109.879-4.698l-1.641-1.144a67 67 0 0 1 3.058-4.05l1.549 1.265a65.709 65.709 0 0 0-2.966 3.929zm105.541-1.866a64.992 64.992 0 0 0-3.102-3.821l1.504-1.318a67.505 67.505 0 0 1 3.197 3.938l-1.599 1.201zm-100.656-4.31l-1.49-1.333a68.133 68.133 0 0 1 3.521-3.652l1.387 1.441a65.29 65.29 0 0 0-3.418 3.544zm95.558-1.688a65.588 65.588 0 0 0-3.539-3.422l1.336-1.489a68.075 68.075 0 0 1 3.646 3.526l-1.443 1.385zm-89.966-3.855l-1.32-1.503a67.309 67.309 0 0 1 3.934-3.202l1.203 1.598a64.8 64.8 0 0 0-3.817 3.107zm84.184-1.49a65.408 65.408 0 0 0-3.925-2.973l1.146-1.639a68.278 68.278 0 0 1 4.046 3.064l-1.267 1.548zm-77.971-3.341l-1.131-1.65a68.34 68.34 0 0 1 4.287-2.706l1.004 1.73a65.234 65.234 0 0 0-4.16 2.626zm71.587-1.271a66.22 66.22 0 0 0-4.256-2.479l.939-1.765a67.327 67.327 0 0 1 4.387 2.554l-1.07 1.69zm-64.842-2.774l-.924-1.774a67.055 67.055 0 0 1 4.582-2.167l.787 1.839a64.01 64.01 0 0 0-4.445 2.102zm57.942-1.037c-1.478-.703-3-1.357-4.524-1.945l.719-1.866a66.338 66.338 0 0 1 4.665 2.005l-.86 1.806zm-50.762-2.162l-.701-1.873a67.154 67.154 0 0 1 4.814-1.597l.557 1.921a65.463 65.463 0 0 0-4.67 1.549zm43.452-.783a64.521 64.521 0 0 0-4.724-1.379l.486-1.94c1.636.411 3.274.889 4.87 1.421l-.632 1.898zm-35.927-1.523l-.469-1.944a66.539 66.539 0 0 1 4.975-1l.318 1.975c-1.614.26-3.237.586-4.824.969zm28.323-.508a65.59 65.59 0 0 0-4.857-.795l.248-1.984c1.671.208 3.354.484 5.006.819l-.397 1.96zm-20.573-.867l-.23-1.986a67.459 67.459 0 0 1 5.057-.392l.08 1.998a65.572 65.572 0 0 0-4.907.38zm12.779-.228a66.602 66.602 0 0 0-4.919-.206l.01-2c1.687.008 3.391.079 5.067.211l-.158 1.995z"/><path class="st1" d="M444.325 163.016h107.75v177.833h-107.75z"/><linearGradient id="SVGID_2_" gradientUnits="userSpaceOnUse" x1="272.452" y1="250.842" x2="555.551" y2="250.842"><stop offset="0" stop-color="#17c9c0"/><stop offset=".168" stop-color="#00a9d7"/><stop offset=".564" stop-color="#1cd0bb"/><stop offset="1" stop-color="#0fbec8"/></linearGradient><path fill="url(#SVGID_2_)" d="M279.404 342.144h-6.952v-181.38h33.085l215.688-1.225h34.326v181.309H548.6V166.491h-27.356l-215.688 1.225h-26.152z"/><linearGradient id="SVGID_3_" gradientUnits="userSpaceOnUse" x1="221.591" y1="356.329" x2="606.412" y2="356.329"><stop offset="0" stop-color="#17c9c0"/><stop offset=".168" stop-color="#00a9d7"/><stop offset=".564" stop-color="#1cd0bb"/><stop offset="1" stop-color="#0fbec8"/></linearGradient><path d="M578.559 373.99H249.444c-7.842 0-17.141-2.621-19.026-8.377l-8.827-26.944h384.821l-8.828 26.944c-1.883 5.756-11.183 8.377-19.025 8.377zm-347.375-28.37l5.84 17.829c.477 1.061 5.288 3.59 12.42 3.59h329.114c7.131 0 11.942-2.528 12.426-3.607l5.835-17.812H231.184z" fill="url(#SVGID_3_)"/><g><path class="st2" d="M713.328 358.368h-53.722a1.988 1.988 0 0 1-1.986-1.986V302.66c0-1.096.891-1.986 1.986-1.986h53.722c1.096 0 1.987.891 1.987 1.986v53.722a1.989 1.989 0 0 1-1.987 1.986zm-53.722-1.986h53.722l.001-53.722h-53.723v53.722z"/><path class="st2" d="M694.207 302.66h1.986v54.011h-1.986zM675.831 302.163h1.986v54.508h-1.986z"/><path class="st2" d="M659.068 319.34h54.653v1.986h-54.653zM659.214 337.716h54.508v1.986h-54.508z"/><linearGradient id="SVGID_4_" gradientUnits="userSpaceOnUse" x1="691.874" y1="343.512" x2="717.77" y2="326.695"><stop offset="0" stop-color="#17c9c0"/><stop offset=".168" stop-color="#00a9d7"/><stop offset=".564" stop-color="#1cd0bb"/><stop offset="1" stop-color="#0fbec8"/></linearGradient><path fill="url(#SVGID_4_)" d="M700.822 357.291h8v-44.375h-8z"/><linearGradient id="SVGID_5_" gradientUnits="userSpaceOnUse" x1="676.409" y1="348.565" x2="695.743" y2="336.009"><stop offset="0" stop-color="#17c9c0"/><stop offset=".168" stop-color="#00a9d7"/><stop offset=".564" stop-color="#1cd0bb"/><stop offset="1" stop-color="#0fbec8"/></linearGradient><path fill="url(#SVGID_5_)" d="M682.076 357.291h8v-30.009h-8z"/><linearGradient id="SVGID_6_" gradientUnits="userSpaceOnUse" x1="659.449" y1="351.315" x2="675.21" y2="341.08"><stop offset="0" stop-color="#17c9c0"/><stop offset=".168" stop-color="#00a9d7"/><stop offset=".564" stop-color="#1cd0bb"/><stop offset="1" stop-color="#0fbec8"/></linearGradient><path fill="url(#SVGID_6_)" d="M663.329 357.291h8v-22.187h-8z"/><path class="st2" d="M709.628 358.097h-9.611v-45.986h9.611v45.986zm-8-1.611h6.389v-42.764h-6.389v42.764zM690.881 358.097h-9.611v-31.621h9.611v31.621zm-8-1.611h6.389v-28.398h-6.389v28.398zM672.135 358.097h-9.611v-23.799h9.611v23.799zm-8-1.611h6.389V335.91h-6.389v20.576z"/></g><g><linearGradient id="SVGID_7_" gradientUnits="userSpaceOnUse" x1="39.616" y1="49.511" x2="72.097" y2="49.511"><stop offset="0" stop-color="#17c9c0"/><stop offset=".168" stop-color="#00a9d7"/><stop offset=".564" stop-color="#1cd0bb"/><stop offset="1" stop-color="#0fbec8"/></linearGradient><path d="M39.616 33.97S44.792 45.1 53.11 50.049c9.202 5.475 16.157 7.309 18.987 15.003H39.616V33.97z" fill-rule="evenodd" clip-rule="evenodd" fill="url(#SVGID_7_)"/><path class="st2" d="M78.447 26.122v37.956H40.492V26.122h37.955m2-2H38.492v41.956h41.956V24.122h-.001z"/><path class="st2" d="M46.727 26.805c-.397-1.257-.544-2.006-.55-2.038l1.963-.38c.001.006.135.68.494 1.815l-1.907.603zM75.042 61.251c-.213-1.308-.521-2.491-.916-3.517l1.866-.719c.451 1.17.785 2.451 1.023 3.915l-1.973.321zm-1.668-5.122a10.41 10.41 0 0 0-2.208-2.711l1.324-1.499a12.363 12.363 0 0 1 2.624 3.225l-1.74.985zm-3.632-3.807c-.968-.657-1.995-1.221-3.237-1.889l.948-1.761c1.248.672 2.367 1.286 3.412 1.995l-1.123 1.655zm-4.943-2.816c-1.35-.751-2.387-1.399-3.362-2.099l1.166-1.625c.911.654 1.889 1.264 3.169 1.977l-.973 1.747zm-4.943-3.333a22.19 22.19 0 0 1-.374-.324 46.907 46.907 0 0 1-2.499-2.382l1.432-1.396a45.28 45.28 0 0 0 2.393 2.281l.342.297-1.294 1.524zm-4.217-4.145a45.925 45.925 0 0 1-2.5-3.043l1.599-1.202a44.008 44.008 0 0 0 2.391 2.91l-1.49 1.335zm-3.651-4.644a44.483 44.483 0 0 1-2.082-3.348l1.744-.979a42.051 42.051 0 0 0 1.988 3.197l-1.65 1.13zm-3.008-5.091a39.99 39.99 0 0 1-1.598-3.615l1.868-.715a37.918 37.918 0 0 0 1.518 3.434l-1.788.896zM75.399 65.088a33.93 33.93 0 0 0-.122-1.944l1.992-.182c.059.649.102 1.333.128 2.054l-1.998.072zM74.189 36.97v1.168h-9.792V36.97h9.792m2-2H62.397v5.168h13.792V34.97zM74.189 30.168v1.168h-9.792v-1.168h9.792m2-2H62.397v5.168h13.792v-5.168zM69.293 42.177h6.896v2h-6.896zM72.097 66.052a1 1 0 0 1-.938-.655c-2.04-5.546-6.422-7.883-12.486-11.117-1.924-1.026-3.913-2.086-6.074-3.372-8.485-5.048-13.672-16.051-13.889-16.517a1 1 0 1 1 1.814-.844c.05.108 5.15 10.913 13.098 15.642 2.121 1.262 4.089 2.311 5.992 3.326 6.212 3.312 11.119 5.929 13.422 12.191a1 1 0 0 1-.939 1.346z"/><path class="st2" d="M67.672 66.052a1 1 0 0 1-.831-.442c-3.022-4.498-6.271-6.453-9.926-5.978-6.177.804-9.647-.05-10.599-2.61-.432-1.163-.591-2.214-.744-3.231-.255-1.689-.496-3.285-2.059-5.311-1.783-2.309-3.821-2.377-3.907-2.379a1.004 1.004 0 0 1-.984-1.01.996.996 0 0 1 .995-.99c.124 0 3.07.036 5.48 3.158 1.881 2.437 2.172 4.367 2.454 6.234.145.958.281 1.864.642 2.833.545 1.469 3.63 1.949 8.466 1.323 4.421-.573 8.405 1.728 11.844 6.846a1 1 0 0 1-.831 1.557z"/><path class="st2" d="M55.845 66.052a.996.996 0 0 1-.646-.237c-2.679-2.273-5.033-2.313-7.109-2.348-1.618-.028-3.146-.054-4.446-1.117-1.05-.858-1.325-2.058-1.617-3.328-.373-1.624-.795-3.465-3.028-5.221a1 1 0 0 1 1.236-1.572c2.788 2.193 3.339 4.593 3.741 6.346.265 1.151.438 1.822.934 2.227.763.624 1.845.643 3.214.666 2.171.037 5.145.088 8.369 2.823.421.357.473.988.116 1.41-.198.23-.48.351-.764.351zM33.159 26.122V78.83h-7.42V26.122h7.42m2-2h-11.42V80.83h11.42V24.122z"/><path class="st2" d="M28.815 28.552h4.982v2h-4.982zM30.668 34.683h2.852v2h-2.852zM28.815 40.815h4.982v2h-4.982zM30.668 46.947h2.852v2h-2.852zM28.815 53.079h4.982v2h-4.982zM30.668 59.211h2.852v2h-2.852zM28.815 65.343h4.982v2h-4.982zM78.447 71.41v7.42H25.739v-7.42h52.708m2-2H23.739v11.42h56.708V69.41z"/><path class="st2" d="M37.55 71.048h2V73.9h-2zM43.682 70.771h2v4.982h-2zM49.814 71.048h2V73.9h-2zM55.946 70.771h2v4.982h-2zM62.078 71.048h2V73.9h-2zM68.209 70.771h2v4.982h-2zM74.341 71.048h2V73.9h-2z"/></g><g><path class="st1" d="M518.096 189.152a3.873 3.873 0 0 1 3.873 3.873v129.13a3.873 3.873 0 0 1-3.873 3.873H310.009a3.873 3.873 0 0 1-3.873-3.873v-129.13a3.873 3.873 0 0 1 3.873-3.873h208.087z"/><path class="st2" d="M518.097 327.528H310.009a5.379 5.379 0 0 1-5.373-5.373v-129.13a5.38 5.38 0 0 1 5.373-5.374h208.088a5.38 5.38 0 0 1 5.373 5.374v129.13a5.379 5.379 0 0 1-5.373 5.373zM310.009 190.651a2.376 2.376 0 0 0-2.373 2.374v129.13a2.375 2.375 0 0 0 2.373 2.373h208.088a2.375 2.375 0 0 0 2.373-2.373v-129.13a2.376 2.376 0 0 0-2.373-2.374H310.009z"/></g><g><path class="st2" d="M351.838 221.081c13.622 0 24.704 11.082 24.704 24.704s-11.082 24.704-24.704 24.704-24.704-11.082-24.704-24.704c0-13.621 11.082-24.704 24.704-24.704m0-3c-15.301 0-27.704 12.404-27.704 27.704s12.404 27.704 27.704 27.704c15.301 0 27.704-12.404 27.704-27.704s-12.403-27.704-27.704-27.704z"/><path class="st2" d="M351.838 230.415c8.475 0 15.371 6.895 15.371 15.371s-6.895 15.371-15.371 15.371-15.37-6.895-15.37-15.371 6.895-15.371 15.37-15.371m0-3c-10.146 0-18.37 8.225-18.37 18.371s8.225 18.371 18.37 18.371 18.371-8.225 18.371-18.371-8.225-18.371-18.371-18.371z"/><path class="st2" d="M377.603 247.281h-7.602a1.5 1.5 0 0 1 0-3h7.602a1.5 1.5 0 0 1 0 3zM350.328 219.531h3v9.205h-3z"/><path transform="rotate(-45.316 355.674 223.528)" class="st2" d="M350.658 222.03h10.023v3h-10.023z"/><path transform="rotate(-44.368 360.906 225.734)" class="st2" d="M355.951 224.247h9.967v3h-9.967z"/><path transform="rotate(-45.685 365.695 228.367)" class="st2" d="M361.038 226.861h9.295v3h-9.295z"/><path transform="rotate(-45.685 369.338 232.088)" class="st2" d="M364.456 230.582h9.743v3h-9.743z"/><path transform="rotate(-45.001 372.138 236.64)" class="st2" d="M367.156 235.135h9.967v3h-9.967z"/><path transform="rotate(-44.684 374.015 242.075)" class="st2" d="M369.148 240.579h9.742v3h-9.742z"/><path transform="rotate(-34.442 363.685 264.25)" class="st2" d="M362.206 259.229h3.001v10.081h-3.001z"/></g><g><path class="st2" d="M487.205 304.567c-.454 0-.884-.206-1.169-.56-2.205-2.743-7.213-8.972-7.788-9.699-.019-.022-.036-.045-.054-.068a11.229 11.229 0 0 1-2.16-7.759c.489-5.263 4.654-9.503 9.903-10.081a11.292 11.292 0 0 1 8.753 2.792 11.236 11.236 0 0 1 2.917 12.574 11.143 11.143 0 0 1-1.31 2.353 1.444 1.444 0 0 1-.115.166l-7.808 9.722c-.284.354-.714.56-1.169.56zm.009-25.237c-.313 0-.63.018-.948.053-3.777.416-6.892 3.587-7.245 7.376a8.242 8.242 0 0 0 1.582 5.691c.17.22 3.701 4.614 6.602 8.223l6.552-8.157c.015-.022.029-.044.046-.065a8.173 8.173 0 0 0 1.025-1.81 8.239 8.239 0 0 0-2.137-9.214 8.134 8.134 0 0 0-5.477-2.097zm-.009 11.881c-2.057 0-3.729-1.674-3.729-3.73s1.673-3.729 3.729-3.729 3.73 1.673 3.73 3.729-1.673 3.73-3.73 3.73zm0-4.46a.73.73 0 1 0 .002 1.46.73.73 0 0 0-.002-1.46zM455.163 223.531v34.564h-34.564v-34.564h34.564m3-3h-40.564v40.564h40.564v-40.564zM504.487 223.531v34.564h-34.564v-34.564h34.564m3-3h-40.564v40.564h40.564v-40.564zM455.163 272.765v34.564h-34.564v-34.564h34.564m3-3h-40.564v40.564h40.564v-40.564z"/><path class="st2" d="M504.487 272.765v34.564h-34.564v-34.564h34.564m3-3h-40.564v40.564h40.564v-40.564zM421.46 258.288a1.5 1.5 0 0 1-.857-2.732c.049-.034 4.911-3.425 9.121-7.124 4.379-3.848 9.176-5.497 13.029-6.822l.453-.156c2.829-.976 7.646-4.168 10.235-5.883.724-.479 1.286-.852 1.609-1.047a1.499 1.499 0 1 1 1.555 2.565c-.302.184-.828.533-1.507.983-2.7 1.788-7.725 5.118-10.914 6.218l-.456.157c-3.604 1.239-8.091 2.781-12.024 6.239-4.341 3.814-9.185 7.191-9.389 7.333-.26.182-.559.269-.855.269z"/><path class="st2" d="M444.662 251.843c-1.24 0-2.474-.231-3.535-.826-2.137-1.195-3.076-1.504-5.029-1.648-1.845-.14-3.386.402-3.401.408l-1.017-2.822c.087-.032 2.139-.764 4.641-.578 2.405.179 3.754.614 6.271 2.023 1.628.912 4.663.251 6.23-.576l.551-.293c1.426-.763 2.458-1.312 4.002-1.169l.389.031c1.203.089 1.593.249 3.473 1.423l-1.59 2.545c-1.488-.931-1.523-.933-2.105-.976l-.445-.037c-.611-.049-.992.125-2.309.828l-.566.302c-1.314.691-3.445 1.364-5.56 1.365zM429.369 252.421l-2.725-1.258c2.33-5.046 1.728-5.924 1.583-6.049-.16-.138-.484-.302-.827-.476-.983-.499-2.472-1.252-3.479-3.11-.77-1.421-.341-2.805.003-3.918.278-.897.519-1.673.288-2.513-1.311-4.794-4.782-5.02-4.93-5.026l.092-2.999c.236.006 5.815.224 7.732 7.234.46 1.684.011 3.133-.316 4.191-.248.8-.392 1.305-.231 1.601.562 1.035 1.355 1.438 2.197 1.864.488.247.993.503 1.432.881 2.137 1.846 1.218 5.164-.819 9.578zM436.539 239.71c-1.112 0-1.824-.419-2.24-.797-1.119-1.016-1.119-2.568-1.119-3.314 0-.283.027-.525.057-.755.044-.352.058-.457-.409-1.109-1.295-1.814-1.152-2.886-.541-3.937.761-1.326 2.435-1.222 2.931-1.16l1.921.366c.307.056 1.035-.034 1.274-.185 1.044-1.701 2.354-1.814 3.05-1.726.042.005 4.245.557 4.576 2.794.287 1.951-1.631 2.91-2.899 3.545-.722.36-1.062.837-1.532 1.496-.106.149-.214.3-.325.447-.064.093-.208.421-.312.661-.52 1.192-1.486 3.41-3.97 3.65a4.404 4.404 0 0 1-.462.024zm-.218-3.016c.017 0 .132.031.389.007.618-.06.979-.648 1.509-1.862.201-.464.393-.901.662-1.262.098-.131.19-.261.284-.392.554-.776 1.243-1.742 2.633-2.437.142-.071.386-.193.631-.326a9.435 9.435 0 0 0-1.229-.336 1.543 1.543 0 0 0-.25.333c-.957 1.606-3.363 1.724-4.378 1.529l-1.526-.293c.058.094.131.205.224.335 1.062 1.485 1.056 2.34.944 3.227-.015.116-.033.238-.033.381 0 .228 0 .918.139 1.097-.001-.001-.001-.001.001-.001zm-1.392-5.473l-.006.011a.11.11 0 0 0 .006-.011z"/><path transform="rotate(-43.878 470.386 229.02)" class="st2" d="M468.871 227.497h3v3.032h-3z"/><path transform="rotate(-43.87 474.012 232.769)" class="st2" d="M472.473 230.92h3v3.682h-3z"/><path class="st2" d="M478.626 239.1a1.5 1.5 0 0 1-1.081-.46l-2.102-2.186 2.162-2.08 1.472 1.531 2.039-.596.842 2.879-2.911.851c-.139.042-.28.061-.421.061zM484.9 237.33l-.842-2.879 5.885-1.72.842 2.879-5.885 1.72zm8.828-2.579l-.842-2.879 5.886-1.72.842 2.879-5.886 1.72z"/><path transform="rotate(-16.301 503.497 230.27)" class="st2" d="M502.074 228.807h3.032v2.999h-3.032z"/><g><path transform="rotate(-47.727 503.892 254.034)" class="st2" d="M502.423 252.534h3v3.033h-3z"/><path transform="rotate(-47.732 499.528 250.044)" class="st2" d="M498.011 247.817h3v4.446h-3z"/><path class="st2" d="M495.212 248.159l-1.622-1.474-2.103.614-.842-2.879 2.91-.851a1.496 1.496 0 0 1 1.43.329l2.244 2.039-2.017 2.222zM475.821 251.876l-.842-2.879 5.222-1.525.842 2.879-5.222 1.525zm7.833-2.288l-.842-2.879 5.222-1.525.842 2.879-5.222 1.525z"/><path transform="rotate(-16.301 471.247 251.584)" class="st2" d="M469.818 250.125h3.032v2.999h-3.032z"/></g><circle class="st2" cx="430.47" cy="281.693" r="2.86"/><circle class="st2" cx="446.935" cy="287.413" r="2.86"/><circle class="st2" cx="434.189" cy="299.923" r="2.86"/></g><path class="st2" d="M520.157 208.177H308.656a1.5 1.5 0 0 1 0-3h211.501a1.5 1.5 0 0 1 0 3zM319.187 200.269h-3.093a1.5 1.5 0 0 1 0-3h3.093a1.5 1.5 0 0 1 0 3zM329.155 200.269h-3.093a1.5 1.5 0 0 1 0-3h3.093a1.5 1.5 0 0 1 0 3zM339.124 200.269h-3.093a1.5 1.5 0 0 1 0-3h3.093a1.5 1.5 0 0 1 0 3z"/><g><path transform="rotate(-40.035 337.028 301.077)" class="st2" d="M329.444 299.598h15.22v3h-15.22z"/><path transform="rotate(-56.969 354.32 299.784)" class="st2" d="M352.842 294.069h3v11.463h-3z"/><path transform="rotate(-49.912 371.435 294.28)" class="st2" d="M363.412 292.796h16.076v3h-16.076z"/><circle class="st1" cx="328.099" cy="308.839" r="5.835"/><path class="st2" d="M328.099 306.005c1.563 0 2.835 1.272 2.835 2.835s-1.272 2.835-2.835 2.835-2.835-1.272-2.835-2.835 1.272-2.835 2.835-2.835m0-3a5.835 5.835 0 1 0 0 11.67 5.835 5.835 0 0 0 0-11.67z"/><circle class="st1" cx="363.701" cy="304.337" r="5.835"/><path class="st2" d="M363.701 301.502c1.563 0 2.835 1.272 2.835 2.835s-1.272 2.835-2.835 2.835-2.835-1.272-2.835-2.835 1.272-2.835 2.835-2.835m0-3a5.835 5.835 0 1 0 0 11.67 5.835 5.835 0 0 0 0-11.67z"/><g><circle class="st1" cx="379.699" cy="284.778" r="5.835"/><path class="st2" d="M379.699 281.944c1.563 0 2.835 1.272 2.835 2.835s-1.272 2.835-2.835 2.835-2.835-1.272-2.835-2.835 1.272-2.835 2.835-2.835m0-3a5.835 5.835 0 1 0 0 11.67 5.835 5.835 0 0 0 0-11.67z"/></g><g><circle class="st1" cx="346.004" cy="293.979" r="5.835"/><path class="st2" d="M346.004 291.145c1.563 0 2.835 1.272 2.835 2.835s-1.272 2.835-2.835 2.835-2.835-1.272-2.835-2.835 1.272-2.835 2.835-2.835m0-3a5.835 5.835 0 1 0 0 11.67 5.835 5.835 0 0 0 0-11.67z"/></g></g><g><path class="st2" d="M245.282 60.385h109.061V86.14H245.282z"/><path class="st1" d="M255.079 67.256h2.312l3.587 9.145 3.569-9.145h2.261l-4.929 11.984h-1.854l-4.946-11.984zM268.85 67.256h8.821v1.87h-6.73v3.093h5.966v1.87h-5.966v3.196h6.815v1.87h-8.906V67.256zM280.239 67.256h5.303c1.496 0 2.669.442 3.434 1.19.629.646.986 1.53.986 2.567v.034c0 1.955-1.173 3.128-2.822 3.604l3.213 4.504h-2.481l-2.924-4.147h-2.617v4.147h-2.091V67.256zm5.151 5.899c1.495 0 2.447-.782 2.447-1.989v-.034c0-1.274-.918-1.972-2.465-1.972h-3.042v3.995h3.06zM296.745 67.171h1.938l5.235 11.984h-2.21l-1.207-2.873h-5.626l-1.225 2.873h-2.142l5.237-11.984zm2.992 7.258l-2.057-4.759-2.04 4.759h4.097zM304.686 73.239v-.034c0-3.383 2.532-6.153 6.137-6.153 2.192 0 3.519.765 4.657 1.853l-1.343 1.547c-.952-.884-1.972-1.479-3.332-1.479-2.261 0-3.927 1.87-3.927 4.199v.034c0 2.329 1.649 4.215 3.927 4.215 1.462 0 2.397-.578 3.417-1.53l1.343 1.36c-1.241 1.292-2.601 2.108-4.827 2.108-3.468 0-6.052-2.703-6.052-6.12zM317.877 67.256h2.091v11.899h-2.091V67.256zM326.07 69.194h-3.773v-1.938h9.655v1.938h-3.773v9.961h-2.108v-9.961zM337.664 74.464l-4.726-7.208h2.482l3.314 5.252 3.365-5.252h2.397l-4.726 7.156v4.743h-2.108v-4.691z"/></g><g><path class="st2" d="M639.214 368.518h96.654v25.755h-96.654z"/><path class="st1" d="M649.6 375.388h2.312l3.587 9.146 3.569-9.146h2.262l-4.93 11.984h-1.854l-4.946-11.984zM662.095 381.372v-.033c0-3.349 2.584-6.153 6.238-6.153s6.204 2.771 6.204 6.119v.034c0 3.349-2.583 6.153-6.238 6.153-3.654 0-6.204-2.772-6.204-6.12zm10.25 0v-.033c0-2.312-1.683-4.233-4.046-4.233-2.362 0-4.012 1.888-4.012 4.199v.034c0 2.312 1.684 4.215 4.046 4.215 2.363-.001 4.012-1.87 4.012-4.182zM677.072 375.388h2.091v9.995h6.255v1.904h-8.346v-11.899zM687.067 382.239v-6.851h2.091v6.766c0 2.21 1.139 3.383 3.009 3.383 1.853 0 2.991-1.104 2.991-3.298v-6.851h2.091v6.749c0 3.553-2.006 5.337-5.116 5.337-3.094 0-5.066-1.784-5.066-5.235zM700.124 375.388h2.227l3.62 5.627 3.621-5.627h2.227v11.899h-2.091v-8.533l-3.757 5.609h-.067l-3.723-5.575v8.499h-2.057v-11.899zM714.88 375.388h8.821v1.87h-6.73v3.094h5.966v1.87h-5.966v3.195h6.815v1.87h-8.906v-11.899z"/></g><g><path class="st2" d="M578.628 191.754h96.654v25.755h-96.654z"/><path class="st1" d="M588.471 198.625h2.312l3.587 9.146 3.569-9.146h2.261l-4.929 11.984h-1.854l-4.946-11.984zM604.756 198.54h1.938l5.235 11.984h-2.21l-1.207-2.873h-5.626l-1.225 2.873h-2.142l5.237-11.984zm2.992 7.259l-2.057-4.76-2.04 4.76h4.097zM613.972 198.625h5.303c1.496 0 2.669.442 3.434 1.19.629.646.986 1.529.986 2.566v.034c0 1.955-1.173 3.128-2.821 3.604l3.212 4.505h-2.481l-2.924-4.147h-2.617v4.147h-2.091v-11.899zm5.15 5.898c1.495 0 2.447-.781 2.447-1.988v-.034c0-1.274-.918-1.972-2.465-1.972h-3.042v3.994h3.06zM626.38 198.625h2.091v11.899h-2.091v-11.899zM631.651 198.625h8.821v1.87h-6.73v3.094h5.966v1.87h-5.966v3.195h6.815v1.87h-8.906v-11.899zM645.964 200.563h-3.773v-1.938h9.655v1.938h-3.773v9.961h-2.108v-9.961zM657.558 205.833l-4.726-7.208h2.482l3.314 5.253 3.365-5.253h2.397l-4.726 7.156v4.743h-2.108v-4.691z"/></g><g><path class="st2" d="M159.056 227.305H261.71v25.755H159.056z"/><path class="st1" d="M165.49 234.176h2.312l3.587 9.146 3.569-9.146h2.261l-4.929 11.984h-1.854l-4.946-11.984zM179.261 234.176h8.821v1.87h-6.73v3.094h5.966v1.87h-5.966v3.195h6.815v1.87h-8.906v-11.899zM190.65 234.176h2.091v9.995h6.255v1.904h-8.346v-11.899zM199.966 240.159v-.033c0-3.349 2.584-6.153 6.238-6.153s6.204 2.771 6.204 6.119v.034c0 3.349-2.583 6.153-6.238 6.153-3.654 0-6.204-2.771-6.204-6.12zm10.25 0v-.033c0-2.312-1.683-4.233-4.046-4.233-2.362 0-4.012 1.888-4.012 4.199v.034c0 2.312 1.684 4.215 4.046 4.215 2.363 0 4.012-1.87 4.012-4.182zM214.416 240.159v-.033c0-3.383 2.533-6.153 6.137-6.153 2.192 0 3.519.765 4.657 1.853l-1.343 1.547c-.952-.884-1.972-1.479-3.332-1.479-2.261 0-3.927 1.87-3.927 4.199v.034c0 2.328 1.649 4.215 3.927 4.215 1.462 0 2.396-.577 3.417-1.529l1.343 1.359c-1.241 1.292-2.601 2.108-4.827 2.108-3.468-.001-6.052-2.704-6.052-6.121zM227.607 234.176h2.091v11.899h-2.091v-11.899zM235.801 236.114h-3.773v-1.938h9.655v1.938h-3.773v9.961h-2.108v-9.961zM247.395 241.384l-4.726-7.208h2.482l3.314 5.253 3.365-5.253h2.397l-4.726 7.156v4.743h-2.108v-4.691z"/></g><g><path class="st2" d="M696.25 40.136h83.985v25.755H696.25z"/><path class="st1" d="M708.666 47.007h2.312l3.587 9.145 3.569-9.145h2.261l-4.929 11.984h-1.854l-4.946-11.984zM724.951 46.922h1.938l5.235 11.984h-2.21l-1.207-2.873h-5.626l-1.225 2.873h-2.142l5.237-11.984zm2.992 7.258l-2.057-4.759-2.04 4.759h4.097zM734.167 47.007h2.091v9.995h6.255v1.904h-8.346V47.007zM744.162 53.858v-6.851h2.091v6.766c0 2.209 1.139 3.382 3.009 3.382 1.853 0 2.991-1.104 2.991-3.297v-6.851h2.091v6.749c0 3.553-2.006 5.337-5.116 5.337-3.094 0-5.066-1.785-5.066-5.235zM757.219 47.007h8.821v1.87h-6.73v3.093h5.966v1.87h-5.966v3.196h6.815v1.87h-8.906V47.007z"/></g><g><path class="st1" d="M201.074 208.964c-23.758.277-45.029.443-45.032.151-.284-30.132 23.913-54.789 54.044-55.073s54.789 23.913 55.073 54.044c0 0-21.05.326-44.66.635"/><path class="st2" d="M164.974 210.781c-9.38 0-9.592-.209-9.979-.589a1.514 1.514 0 0 1-.453-1.064c-.141-14.973 5.557-29.104 16.045-39.793 10.489-10.688 24.511-16.651 39.485-16.792l.537-.002c30.669 0 55.76 24.799 56.05 55.533a1.5 1.5 0 0 1-1.477 1.514s-21.053.326-44.664.636h-.02a1.5 1.5 0 0 1-.02-3c19.868-.261 37.923-.532 43.145-.612-.502-13.61-6.1-26.303-15.86-35.881-10.116-9.927-23.472-15.295-37.665-15.187-14.172.133-27.445 5.778-37.372 15.894-9.605 9.787-14.966 22.627-15.183 36.286 3.103.077 13.205.094 43.51-.259.823-.047 1.508.654 1.518 1.482s-.654 1.508-1.482 1.518c-18.593.214-29.58.316-36.115.316z"/><linearGradient id="SVGID_8_" gradientUnits="userSpaceOnUse" x1="201.995" y1="196.835" x2="238.853" y2="196.835"><stop offset="0" stop-color="#17c9c0"/><stop offset=".168" stop-color="#00a9d7"/><stop offset=".564" stop-color="#1cd0bb"/><stop offset="1" stop-color="#0fbec8"/></linearGradient><path d="M238.853 176.546s-34.709 26.848-34.799 26.949a8.196 8.196 0 0 0 12.274 10.864c.089-.101 22.525-37.813 22.525-37.813z" fill="url(#SVGID_8_)"/><path class="st2" d="M210.178 218.624a9.624 9.624 0 0 1-6.413-2.437c-1.939-1.717-3.094-4.085-3.251-6.67s.701-5.077 2.417-7.016c.13-.147.184-.207 35.003-27.142a1.5 1.5 0 0 1 2.207 1.953c-22.509 37.837-22.563 37.897-22.695 38.045a9.628 9.628 0 0 1-6.666 3.247c-.201.013-.402.02-.602.02zm-5.081-14.042a6.652 6.652 0 0 0-1.589 4.753 6.649 6.649 0 0 0 2.246 4.606 6.638 6.638 0 0 0 4.845 1.669 6.641 6.641 0 0 0 4.525-2.155c.894-1.473 10.843-18.186 18.405-30.893-11.697 9.049-27.077 20.953-28.432 22.02z"/><path class="st1" d="M208.868 163.169l.099 10.504"/><path class="st2" d="M208.966 175.173a1.5 1.5 0 0 1-1.5-1.486l-.099-10.504a1.5 1.5 0 0 1 1.486-1.514h.015a1.5 1.5 0 0 1 1.5 1.486l.099 10.504a1.5 1.5 0 0 1-1.486 1.514h-.015z"/><g><path class="st1" d="M177.914 176.958l7.497 7.357"/><path class="st2" d="M185.411 185.815c-.379 0-.759-.143-1.051-.43l-7.498-7.357a1.5 1.5 0 1 1 2.102-2.141l7.498 7.357a1.5 1.5 0 0 1-1.051 2.571z"/></g></g><g><path class="st2" d="M663.304 56.539h-19.476a1 1 0 1 1 0-2h19.476a1 1 0 1 1 0 2zM663.304 63.438h-19.476a1 1 0 1 1 0-2h19.476a1 1 0 1 1 0 2z"/><path class="st2" d="M666.135 70.06h-25.447a2.321 2.321 0 0 1-2.318-2.319v-49.13a2.321 2.321 0 0 1 2.318-2.319h25.447a2.321 2.321 0 0 1 2.318 2.319v49.13a2.321 2.321 0 0 1-2.318 2.319zm-25.447-51.767a.318.318 0 0 0-.318.319v49.13c0 .176.143.319.318.319h25.447a.318.318 0 0 0 .318-.319v-49.13a.319.319 0 0 0-.318-.319h-25.447z"/><path class="st2" d="M679.662 66.253h-11.379a1.832 1.832 0 0 1-1.83-1.83V21.93c0-1.009.821-1.83 1.83-1.83h11.379c1.009 0 1.83.821 1.83 1.83v42.493c0 1.009-.821 1.83-1.83 1.83zm-11.209-2h11.039V22.1h-11.039v42.153zM638.539 66.253H627.16a1.832 1.832 0 0 1-1.83-1.83V21.93c0-1.009.821-1.83 1.83-1.83h11.379c1.009 0 1.83.821 1.83 1.83v42.493c0 1.009-.821 1.83-1.83 1.83zm-11.209-2h11.039V22.1H627.33v42.153z"/><linearGradient id="SVGID_9_" gradientUnits="userSpaceOnUse" x1="647.351" y1="35.838" x2="659.471" y2="35.838"><stop offset="0" stop-color="#17c9c0"/><stop offset=".168" stop-color="#00a9d7"/><stop offset=".564" stop-color="#1cd0bb"/><stop offset="1" stop-color="#0fbec8"/></linearGradient><path d="M658.092 36.671c-.84-.765-2.127-1.407-3.819-1.908-1.217-.38-2.061-.778-2.509-1.181-.41-.369-.609-.843-.609-1.449 0-.685.194-1.204.594-1.584.399-.381 1.03-.573 1.875-.573.785 0 1.378.242 1.813.741.449.515.667 1.212.667 2.061 0 .217.176.427.392.427h2.376c.217 0 .392-.21.392-.427 0-1.518-.377-2.771-1.186-3.691-.744-.846-1.844-1.4-3.015-1.617v-2.122c0-.217-.241-.457-.458-.457h-1.915c-.217 0-.204.241-.204.457v2.109c-1.288.203-2.383.69-3.143 1.451-.84.841-1.313 1.938-1.313 3.26 0 1.366.44 2.479 1.354 3.306.873.791 2.156 1.428 3.838 1.893 1.123.35 1.924.744 2.391 1.171.432.396.639.858.639 1.413 0 .684-.239 1.201-.728 1.58-.513.398-1.254.6-2.203.6-.824 0-1.499-.211-2.064-.645-.526-.404-.792-1.073-.792-2.078 0-.217-.176-.348-.392-.348h-2.303c-.156 0-.297.048-.359.191l-.024.033a.33.33 0 0 0-.033.138c-.035 1.65.481 2.923 1.455 3.793.871.779 2.039 1.259 3.327 1.442v1.769c0 .216.096.362.312.362h1.903c.217 0 .595-.146.595-.362v-1.779c1.288-.185 2.377-.653 3.199-1.394.914-.824 1.327-1.942 1.327-3.324-.001-1.36-.499-2.456-1.38-3.258z" fill="url(#SVGID_9_)"/><path class="st2" d="M654.604 24.89c.216 0 .458.241.458.457v2.122c1.171.217 2.271.771 3.015 1.617.809.92 1.186 2.173 1.186 3.691 0 .217-.176.427-.392.427h-2.376c-.216 0-.392-.21-.392-.427 0-.848-.218-1.546-.667-2.061-.435-.499-1.028-.741-1.813-.741-.845 0-1.476.193-1.875.573-.4.381-.594.899-.594 1.584 0 .606.199 1.08.609 1.449.448.403 1.292.801 2.509 1.181 1.692.501 2.979 1.143 3.819 1.908.881.802 1.379 1.898 1.379 3.256 0 1.381-.413 2.499-1.327 3.324-.822.741-1.911 1.209-3.199 1.394v1.779c0 .216-.379.362-.595.362h-1.903c-.217 0-.312-.146-.312-.362v-1.769c-1.288-.183-2.456-.664-3.327-1.442-.974-.87-1.49-2.143-1.455-3.793a.333.333 0 0 1 .033-.138l.024-.033c.062-.143.203-.191.359-.191h2.303c.217 0 .392.131.392.348 0 1.005.267 1.675.792 2.078.565.434 1.241.645 2.064.645.948 0 1.69-.202 2.203-.6.489-.38.728-.897.728-1.58 0-.555-.207-1.017-.639-1.413-.467-.427-1.268-.821-2.391-1.171-1.681-.465-2.964-1.102-3.838-1.893-.914-.828-1.354-1.94-1.354-3.306 0-1.322.473-2.418 1.313-3.26.76-.761 1.855-1.248 3.143-1.451v-2.109c0-.217-.013-.457.204-.457h1.916m0-1.798h-1.915c-.535 0-1.034.205-1.405.577-.602.604-.6 1.365-.599 1.652v.732c-1.035.355-1.924.891-2.617 1.584-1.203 1.205-1.839 2.772-1.839 4.531 0 1.883.673 3.488 1.945 4.64.172.156.356.307.55.452h-.956c-.798 0-1.495.385-1.881 1.022l-.05.068-.102.211a2.124 2.124 0 0 0-.184.824c-.045 2.141.666 3.93 2.055 5.172.755.675 1.68 1.192 2.726 1.529v.34c0 1.233.908 2.162 2.112 2.162h1.903c1.152 0 2.395-.827 2.395-2.162v-.353a7.175 7.175 0 0 0 2.604-1.484c1.275-1.15 1.922-2.718 1.922-4.661 0-1.829-.68-3.415-1.967-4.587a7.075 7.075 0 0 0-.399-.337c1.193-.019 2.158-1.01 2.158-2.226 0-2.004-.55-3.646-1.634-4.879-.673-.765-1.556-1.372-2.567-1.775v-.776c.003-1.201-1.052-2.256-2.255-2.256zm-1.614 8.762c.014 0 .189-.077.633-.077.348 0 .418.081.456.124.185.212.224.595.224.878l.002.102c-1.004-.353-1.302-.604-1.337-.634l-.001.001c-.004 0-.013-.034-.013-.112a.784.784 0 0 1 .036-.282zm-.637 8.205c.004 0-.089-.16-.089-.651 0-.158-.017-.312-.048-.46.162.05.327.099.496.146 1.187.372 1.59.686 1.686.773a.33.33 0 0 1 .058.063c-.004.131-.02.172-.02.173-.083.059-.36.228-1.115.228-.543 0-.802-.145-.968-.272z"/></g><g><path class="st1" d="M653.509 178.237h-53.107a2 2 0 0 1-2-2V123.13a2 2 0 0 1 2-2h53.107a2 2 0 0 1 2 2v53.107a2 2 0 0 1-2 2z"/><path class="st2" d="M653.509 123.13v53.107h-53.107V123.13h53.107m0-2h-53.107a2 2 0 0 0-2 2v53.107a2 2 0 0 0 2 2h53.107a2 2 0 0 0 2-2V123.13a2 2 0 0 0-2-2z"/><path class="st2" d="M654.336 131.615h-54.762a1 1 0 1 1 0-2h54.762a1 1 0 1 1 0 2zM605.466 127.336h-1.674a1 1 0 1 1 0-2h1.674a1 1 0 1 1 0 2zM610.86 127.336h-1.674a1 1 0 1 1 0-2h1.674a1 1 0 1 1 0 2zM616.256 127.336h-1.674a1 1 0 1 1 0-2h1.674a1 1 0 1 1 0 2z"/><linearGradient id="SVGID_10_" gradientUnits="userSpaceOnUse" x1="608.268" y1="141.192" x2="617.763" y2="141.192"><stop offset="0" stop-color="#17c9c0"/><stop offset=".168" stop-color="#00a9d7"/><stop offset=".564" stop-color="#1cd0bb"/><stop offset="1" stop-color="#0fbec8"/></linearGradient><path d="M616.428 145.94h-6.825a1.335 1.335 0 0 1-1.335-1.335v-6.825c0-.737.598-1.335 1.335-1.335h6.825c.737 0 1.335.598 1.335 1.335v6.825c0 .737-.598 1.335-1.335 1.335z" fill="url(#SVGID_10_)"/><linearGradient id="SVGID_11_" gradientUnits="userSpaceOnUse" x1="622.208" y1="141.192" x2="631.703" y2="141.192"><stop offset="0" stop-color="#17c9c0"/><stop offset=".168" stop-color="#00a9d7"/><stop offset=".564" stop-color="#1cd0bb"/><stop offset="1" stop-color="#0fbec8"/></linearGradient><path d="M630.368 145.94h-6.825a1.335 1.335 0 0 1-1.335-1.335v-6.825c0-.737.598-1.335 1.335-1.335h6.825c.737 0 1.335.598 1.335 1.335v6.825c0 .737-.598 1.335-1.335 1.335z" fill="url(#SVGID_11_)"/><linearGradient id="SVGID_12_" gradientUnits="userSpaceOnUse" x1="636.148" y1="141.192" x2="645.643" y2="141.192"><stop offset="0" stop-color="#17c9c0"/><stop offset=".168" stop-color="#00a9d7"/><stop offset=".564" stop-color="#1cd0bb"/><stop offset="1" stop-color="#0fbec8"/></linearGradient><path d="M644.308 145.94h-6.825a1.335 1.335 0 0 1-1.335-1.335v-6.825c0-.737.598-1.335 1.335-1.335h6.825c.737 0 1.335.598 1.335 1.335v6.825c0 .737-.597 1.335-1.335 1.335z" fill="url(#SVGID_12_)"/><linearGradient id="SVGID_13_" gradientUnits="userSpaceOnUse" x1="608.268" y1="154.045" x2="617.763" y2="154.045"><stop offset="0" stop-color="#17c9c0"/><stop offset=".168" stop-color="#00a9d7"/><stop offset=".564" stop-color="#1cd0bb"/><stop offset="1" stop-color="#0fbec8"/></linearGradient><path d="M616.428 158.792h-6.825a1.335 1.335 0 0 1-1.335-1.335v-6.825c0-.737.598-1.335 1.335-1.335h6.825c.737 0 1.335.598 1.335 1.335v6.825c0 .737-.598 1.335-1.335 1.335z" fill="url(#SVGID_13_)"/><linearGradient id="SVGID_14_" gradientUnits="userSpaceOnUse" x1="622.208" y1="154.045" x2="631.703" y2="154.045"><stop offset="0" stop-color="#17c9c0"/><stop offset=".168" stop-color="#00a9d7"/><stop offset=".564" stop-color="#1cd0bb"/><stop offset="1" stop-color="#0fbec8"/></linearGradient><path d="M630.368 158.792h-6.825a1.335 1.335 0 0 1-1.335-1.335v-6.825c0-.737.598-1.335 1.335-1.335h6.825c.737 0 1.335.598 1.335 1.335v6.825c0 .737-.598 1.335-1.335 1.335z" fill="url(#SVGID_14_)"/><linearGradient id="SVGID_15_" gradientUnits="userSpaceOnUse" x1="636.148" y1="154.045" x2="645.643" y2="154.045"><stop offset="0" stop-color="#17c9c0"/><stop offset=".168" stop-color="#00a9d7"/><stop offset=".564" stop-color="#1cd0bb"/><stop offset="1" stop-color="#0fbec8"/></linearGradient><path d="M644.308 158.792h-6.825a1.335 1.335 0 0 1-1.335-1.335v-6.825c0-.737.598-1.335 1.335-1.335h6.825c.737 0 1.335.598 1.335 1.335v6.825c0 .737-.597 1.335-1.335 1.335z" fill="url(#SVGID_15_)"/><linearGradient id="SVGID_16_" gradientUnits="userSpaceOnUse" x1="608.268" y1="166.897" x2="617.763" y2="166.897"><stop offset="0" stop-color="#17c9c0"/><stop offset=".168" stop-color="#00a9d7"/><stop offset=".564" stop-color="#1cd0bb"/><stop offset="1" stop-color="#0fbec8"/></linearGradient><path d="M616.428 171.645h-6.825a1.335 1.335 0 0 1-1.335-1.335v-6.825c0-.737.598-1.335 1.335-1.335h6.825c.737 0 1.335.598 1.335 1.335v6.825c0 .737-.598 1.335-1.335 1.335z" fill="url(#SVGID_16_)"/><linearGradient id="SVGID_17_" gradientUnits="userSpaceOnUse" x1="622.208" y1="166.897" x2="631.703" y2="166.897"><stop offset="0" stop-color="#17c9c0"/><stop offset=".168" stop-color="#00a9d7"/><stop offset=".564" stop-color="#1cd0bb"/><stop offset="1" stop-color="#0fbec8"/></linearGradient><path d="M630.368 171.645h-6.825a1.335 1.335 0 0 1-1.335-1.335v-6.825c0-.737.598-1.335 1.335-1.335h6.825c.737 0 1.335.598 1.335 1.335v6.825c0 .737-.598 1.335-1.335 1.335z" fill="url(#SVGID_17_)"/><linearGradient id="SVGID_18_" gradientUnits="userSpaceOnUse" x1="636.148" y1="166.897" x2="645.643" y2="166.897"><stop offset="0" stop-color="#17c9c0"/><stop offset=".168" stop-color="#00a9d7"/><stop offset=".564" stop-color="#1cd0bb"/><stop offset="1" stop-color="#0fbec8"/></linearGradient><path d="M644.308 171.645h-6.825a1.335 1.335 0 0 1-1.335-1.335v-6.825c0-.737.598-1.335 1.335-1.335h6.825c.737 0 1.335.598 1.335 1.335v6.825c0 .737-.597 1.335-1.335 1.335z" fill="url(#SVGID_18_)"/><g><path class="st2" d="M615.763 138.444v5.495h-5.495v-5.495h5.495m.665-2h-6.825c-.737 0-1.335.598-1.335 1.335v6.825c0 .737.598 1.335 1.335 1.335h6.825c.737 0 1.335-.598 1.335-1.335v-6.825c0-.737-.598-1.335-1.335-1.335zM629.703 138.444v5.495h-5.495v-5.495h5.495m.665-2h-6.825c-.737 0-1.335.598-1.335 1.335v6.825c0 .737.598 1.335 1.335 1.335h6.825c.737 0 1.335-.598 1.335-1.335v-6.825c0-.737-.598-1.335-1.335-1.335zM643.643 138.444v5.495h-5.495v-5.495h5.495m.665-2h-6.825c-.737 0-1.335.598-1.335 1.335v6.825c0 .737.598 1.335 1.335 1.335h6.825c.737 0 1.335-.598 1.335-1.335v-6.825c0-.737-.597-1.335-1.335-1.335zM615.763 151.297v5.495h-5.495v-5.495h5.495m.665-2h-6.825c-.737 0-1.335.598-1.335 1.335v6.825c0 .737.598 1.335 1.335 1.335h6.825c.737 0 1.335-.598 1.335-1.335v-6.825c0-.737-.598-1.335-1.335-1.335zM629.703 151.297v5.495h-5.495v-5.495h5.495m.665-2h-6.825c-.737 0-1.335.598-1.335 1.335v6.825c0 .737.598 1.335 1.335 1.335h6.825c.737 0 1.335-.598 1.335-1.335v-6.825c0-.737-.598-1.335-1.335-1.335zM643.643 151.297v5.495h-5.495v-5.495h5.495m.665-2h-6.825c-.737 0-1.335.598-1.335 1.335v6.825c0 .737.598 1.335 1.335 1.335h6.825c.737 0 1.335-.598 1.335-1.335v-6.825c0-.737-.597-1.335-1.335-1.335zM615.763 164.15v5.495h-5.495v-5.495h5.495m.665-2h-6.825c-.737 0-1.335.598-1.335 1.335v6.825c0 .737.598 1.335 1.335 1.335h6.825c.737 0 1.335-.598 1.335-1.335v-6.825c0-.738-.598-1.335-1.335-1.335zM629.703 164.15v5.495h-5.495v-5.495h5.495m.665-2h-6.825c-.737 0-1.335.598-1.335 1.335v6.825c0 .737.598 1.335 1.335 1.335h6.825c.737 0 1.335-.598 1.335-1.335v-6.825c0-.738-.598-1.335-1.335-1.335zM643.643 164.15v5.495h-5.495v-5.495h5.495m.665-2h-6.825c-.737 0-1.335.598-1.335 1.335v6.825c0 .737.598 1.335 1.335 1.335h6.825c.737 0 1.335-.598 1.335-1.335v-6.825c0-.738-.597-1.335-1.335-1.335z"/></g></g></g></svg>