<?xml version="1.0" encoding="UTF-8" standalone="no"?>
<svg
   xmlns:dc="http://purl.org/dc/elements/1.1/"
   xmlns:cc="http://creativecommons.org/ns#"
   xmlns:rdf="http://www.w3.org/1999/02/22-rdf-syntax-ns#"
   xmlns:svg="http://www.w3.org/2000/svg"
   xmlns="http://www.w3.org/2000/svg"
   xmlns:xlink="http://www.w3.org/1999/xlink"
   xmlns:sodipodi="http://sodipodi.sourceforge.net/DTD/sodipodi-0.dtd"
   xmlns:inkscape="http://www.inkscape.org/namespaces/inkscape"
   width="825"
   height="429.87222"
   viewBox="0 0 825 429.87222"
   version="1.1"
   id="svg200"
   sodipodi:docname="header.svg"
   inkscape:version="0.92.5 (2060ec1f9f, 2020-04-08)">
  <metadata
     id="metadata204">
    <rdf:RDF>
      <cc:Work
         rdf:about="">
        <dc:format>image/svg+xml</dc:format>
        <dc:type
           rdf:resource="http://purl.org/dc/dcmitype/StillImage" />
        <dc:title>top illustration</dc:title>
      </cc:Work>
    </rdf:RDF>
  </metadata>
  <sodipodi:namedview
     pagecolor="#ffffff"
     bordercolor="#666666"
     borderopacity="1"
     objecttolerance="10"
     gridtolerance="10"
     guidetolerance="10"
     inkscape:pageopacity="0"
     inkscape:pageshadow="2"
     inkscape:window-width="1650"
     inkscape:window-height="767"
     id="namedview202"
     showgrid="true"
     fit-margin-top="0"
     fit-margin-left="0"
     fit-margin-right="0"
     fit-margin-bottom="0"
     inkscape:zoom="0.54883721"
     inkscape:cx="99.234666"
     inkscape:cy="194.79966"
     inkscape:window-x="72"
     inkscape:window-y="27"
     inkscape:window-maximized="0"
     inkscape:current-layer="svg200">
    <inkscape:grid
       type="xygrid"
       id="grid1044"
       originx="45"
       originy="14.872237" />
  </sodipodi:namedview>
  <!-- Generator: Sketch 60.1 (88133) - https://sketch.com -->
  <title
     id="title2">top illustration</title>
  <desc
     id="desc4">Created with Sketch.</desc>
  <defs
     id="defs8">
    <path
       d="M 75.504355,101.56891 C 84.130689,46.973173 45.835465,11.19787 2.2673553,0 -3.9318484,37.921376 0.2410351,94.142254 44.797811,108.37668 c 40.067698,12.7963 30.706544,-6.80777 30.706544,-6.80777 z"
       id="path-1"
       inkscape:connector-curvature="0" />
    <path
       d="m 16.188828,22.772335 c 0.286268,0 0.552351,-0.01467 0.798248,-0.04401 0.245897,-0.02934 0.482619,-0.07702 0.710165,-0.143038 v 0 -1.562412 c -0.146804,0.01467 -0.275258,0.02384 -0.385361,0.02751 -0.110103,0.0037 -0.212866,0.0055 -0.308289,0.0055 -0.35967,0 -0.616577,-0.04034 -0.770721,-0.121032 -0.278928,-0.13937 -0.418392,-0.414442 -0.418392,-0.825217 v 0 -7.691028 h 1.882763 V 10.80118 H 15.814478 V 7.5113131 H 13.810601 V 10.80118 h -1.596495 v 1.617426 h 1.596495 v 7.801057 c 0,0.755532 0.165155,1.369861 0.495464,1.842986 0.330309,0.473124 0.957897,0.709686 1.882763,0.709686 z"
       id="path-3"
       inkscape:connector-curvature="0" />
    <clipPath
       clipPathUnits="userSpaceOnUse"
       id="clipPath1046">
      <rect
         style="opacity:0.48600003;fill:#747575;fill-opacity:1;stroke:none;stroke-width:2.00882649;stroke-opacity:1"
         id="rect1048"
         width="771.17572"
         height="401.69205"
         x="-14.038099"
         y="20.983198" />
    </clipPath>
  </defs>
  <g
     id="New!!!!!!!"
     transform="matrix(1.0697951,0,0,1.0697951,14.924853,-22.303676)"
     style="fill:none;fill-rule:evenodd;stroke:none;stroke-width:1"
     clip-path="url(#clipPath1046)">
    <g
       id="Post_6_Computer-Vision"
       transform="translate(-168,-310)">
      <g
         id="TOP"
         transform="translate(134,310)">
        <g
           id="top-illustration"
           transform="translate(33)">
          <g
             id="g162">
            <g
               transform="translate(404.21174,206.37897)"
               id="Path"
               style="fill-rule:nonzero">
              <path
                 d="M 69.888005,69.916563 C 60.344259,43.299916 22.779401,52.213687 27.945404,79.903371 31.570513,99.333791 17.274936,82.677237 4.4712647,97.73982 c -7.980584,9.38573 -2.3915031,20.89082 -2.3915031,20.89082 l 61.7827244,3.51742 z"
                 id="path10"
                 inkscape:connector-curvature="0"
                 style="fill:#b1c6f8" />
              <path
                 d="M 75.414737,95.023835 C 99.52572,55.352653 82.446736,0.11131084 82.446736,0.11131084 c 0,0 -13.560758,23.09922516 -15.569264,48.70962216 -2.008506,25.610398 0.50324,51.723917 0.50324,51.723917 z"
                 id="path12"
                 inkscape:connector-curvature="0"
                 style="fill:#b1c6f8" />
              <path
                 d="M 58.674215,99.89925 C 74.88923,69.342199 118.39499,44.337333 154.84649,58.834456 146.72785,90.54914 124.29136,125.35827 98.252033,123.94239 72.208253,122.52652 58.674215,99.89925 58.674215,99.89925 Z"
                 id="path14"
                 inkscape:connector-curvature="0"
                 style="fill:#7c95df" />
              <path
                 d="m 75.966965,104.02666 c -0.178138,0 -0.338462,-0.12912 -0.369636,-0.31167 -0.03563,-0.20482 0.09798,-0.40072 0.302834,-0.43634 0.48988,-0.0891 49.223997,-9.091872 70.186387,-38.518005 0.12024,-0.169192 0.35627,-0.209264 0.52551,-0.08905 0.16923,0.120216 0.20931,0.356195 0.0891,0.525388 -21.14053,29.675469 -70.17302,38.731717 -70.6629,38.820767 -0.02672,0.004 -0.04899,0.009 -0.07125,0.009 z"
                 id="path16"
                 inkscape:connector-curvature="0"
                 style="fill:#ffffff" />
              <path
                 d="m 121.09378,87.850965 0.38745,-0.650055 c 0.049,-0.0846 4.98342,-8.566482 8.68423,-27.146487 0.0401,-0.204812 0.23603,-0.338385 0.44089,-0.293861 0.20486,0.04007 0.33847,0.240432 0.29393,0.440791 -3.15304,15.841758 -7.21904,24.421598 -8.42147,26.736863 l 19.14983,-2.186145 c 0.20932,-0.01781 0.39191,0.124668 0.41863,0.329481 0.0223,0.204811 -0.1247,0.391814 -0.32956,0.418528 z"
                 id="path18"
                 inkscape:connector-curvature="0"
                 style="fill:#ffffff" />
              <path
                 d="m 127.15048,102.49057 c -8.02067,0 -25.20654,-6.562891 -25.9369,-6.843394 l -0.37854,-0.14693 0.16923,-0.3651 c 0.0712,-0.155835 7.21013,-15.561255 7.88706,-31.371846 0.009,-0.209264 0.2004,-0.34729 0.3919,-0.360647 0.20931,0.0089 0.36964,0.18255 0.36073,0.391814 -0.62348,14.595077 -6.69354,28.838412 -7.78908,31.291702 2.60081,0.975083 18.04983,6.651941 25.2956,6.651941 0.0445,0 0.0846,-0.004 0.12915,0 0.20486,0 0.37409,0.16474 0.37854,0.374 0,0.20926 -0.16478,0.37846 -0.37409,0.37846 -0.0445,0 -0.0891,0 -0.1336,0 z"
                 id="path20"
                 inkscape:connector-curvature="0"
                 style="fill:#ffffff" />
              <path
                 d="m 109.44356,117.51308 c -0.0267,0 -0.049,-0.004 -0.0757,-0.009 -14.807727,-3.04546 -27.606945,-14.89784 -27.736095,-15.01806 l -0.200406,-0.187 0.11579,-0.24488 c 0.07571,-0.16474 7.593134,-16.620936 9.196376,-30.561506 0.02672,-0.209264 0.218219,-0.351742 0.418624,-0.32948 0.204859,0.02226 0.356277,0.209265 0.329556,0.418529 -1.50972,13.112417 -8.189896,28.402073 -9.147388,30.539237 1.670044,1.50048 13.578571,11.85238 27.174953,14.64851 0.20486,0.0401 0.33401,0.24043 0.29393,0.44524 -0.0356,0.1781 -0.1915,0.29832 -0.36963,0.29832 z"
                 id="path22"
                 inkscape:connector-curvature="0"
                 style="fill:#ffffff" />
              <path
                 d="m 56.171376,78.727929 c -5.090294,4.50141 -6.185843,12.546957 -6.755885,15.111559 -1.63887,-5.19599 -4.471265,-10.663578 -5.210537,-12.159596 0.752633,-0.374004 4.876528,-4.523672 2.409316,-13.52204 -0.204858,-0.748009 -0.770447,-1.157633 -1.051014,-0.765819 -2.462758,3.432826 -2.65871,8.611007 -2.204458,12.760675 -1.76802,-2.974226 -2.948185,-5.249419 -7.20123,-10.37417 0.605669,-0.04452 0.993119,-2.324171 1.055468,-2.925249 0.249393,-3.228014 -1.148991,-5.814878 -3.184218,-8.107882 -0.378543,-0.414076 -0.926318,-0.338385 -0.984212,0.106859 -0.521054,3.548589 0.249393,6.803318 1.972878,9.599446 -3.104055,-3.205752 -1.990692,-2.128263 -4.391102,-4.265431 0.195952,-0.810343 -2.992719,-6.553982 -9.356701,-6.389242 -0.5166,0.02226 -0.63239,0.485315 -0.329555,0.819248 2.872476,3.294801 4.68503,4.127406 6.328354,4.919939 0.360729,0.169192 2.743325,1.081941 3.112962,0.930558 2.248993,1.999143 1.295954,1.073037 4.221871,4.091787 -2.832394,-1.901189 -5.851834,-2.21286 -8.85346,-0.707937 -1.545348,0.810343 2.925917,2.355337 4.65831,2.702627 1.117816,0.191455 5.197177,0.240431 5.482198,-0.51203 4.212964,5.071322 5.606894,7.711615 7.147788,10.302931 -3.460331,-2.902986 -7.388275,-4.70177 -11.676948,-3.210204 -0.445345,0.155835 -0.351823,0.67677 0.12915,1.019607 4.520253,3.130061 8.016212,3.780116 10.278565,3.878069 1.153444,0.06679 1.963972,-0.02226 2.106482,-0.169192 0.712552,1.447041 3.513773,6.812223 5.299607,12.475719 -6.974104,-7.048203 -17.747002,-5.280586 -14.758737,-3.53078 1.460732,0.80589 5.286247,3.472898 10.523505,4.541482 2.680977,0.565459 4.431183,0.249336 4.560333,0.03117 2.827942,8.976107 3.322275,12.863077 4.248593,18.482047 0.423077,2.50227 0.431984,2.25293 0.574495,2.23067 0.146964,-0.0178 0.231579,0.22262 -0.178138,-2.31972 -0.743726,-4.47024 -1.255873,-8.89151 -4.377742,-18.780359 0.752633,0.18255 4.132802,-2.951963 5.370861,-5.6724 2.195552,-4.586006 2.591909,-11.981498 1.033201,-10.592339 z"
                 id="path24"
                 inkscape:connector-curvature="0"
                 style="fill:#7c95df" />
              <path
                 d="m 80.059686,74.288853 c -6.003251,-0.0935 -11.311765,4.443528 -14.727562,9.381277 0.832796,-4.212002 2.738873,-11.611947 4.083815,-15.801686 0.752633,0.27605 5.068027,-0.333933 9.84658,-4.955559 1.064375,-1.028512 1.963972,-2.025857 2.631989,-2.738246 0.521054,-0.574364 0.565589,-1.273396 0.08907,-1.313468 -4.3243,-0.369552 -8.439289,2.493362 -11.912981,6.954701 1.629963,-5.080227 3.638469,-10.294026 5.571267,-14.541648 0.07125,0.160288 0.222673,0.258241 0.436438,0.227074 1.977333,-0.284956 3.589482,-0.975083 5.299607,-2.083739 1.705672,-1.130918 6.252645,-5.547732 4.337661,-5.529922 -3.92349,0.04452 -6.95629,2.230669 -9.183016,5.418611 0.293928,-0.690127 2.017414,-4.158573 3.446971,-6.69646 0.34737,-0.01781 1.429558,-1.086393 1.678951,-1.331277 2.338062,-2.199502 4.337662,-4.710675 6.582201,-9.666233 0.236033,-0.520935 -0.05789,-0.890487 -0.592309,-0.654508 -6.720258,2.960868 -8.399209,10.712555 -7.998398,11.469469 -1.518627,2.702627 -3.014986,5.748091 -3.357902,6.500553 0.984213,-3.775664 1.126723,-7.404397 -0.556681,-10.926272 -0.209313,-0.436339 -0.743727,-0.249337 -1.002027,0.34729 -0.970852,2.239574 -1.598789,4.456885 -1.572068,6.959153 0.0045,2.34198 1.36721,5.970713 2.119843,5.841593 -2.066402,4.554839 -4.021466,9.719662 -5.575721,14.56391 0.07126,-3.566399 0.2583,-10.325193 -3.224298,-14.425885 -0.325102,-0.382909 -0.846156,0.187003 -0.975306,1.064132 -1.750206,10.178263 2.78786,15.485564 3.540493,15.418777 -1.077735,3.361587 -3.023893,10.467671 -4.18179,16.304811 -1.100002,-5.650138 -3.629562,-13.023367 -8.448196,-16.1935 -0.494333,-0.32948 -0.917411,0.471958 -0.792715,1.487113 1.327129,11.85683 8.07856,16.652101 8.978158,16.037665 -1.763567,8.250359 -3.861142,26.131331 -3.108509,26.175861 0.146964,0.009 0.169231,0.32057 0.414171,-2.84956 0.765993,-10.262861 1.456278,-14.693032 3.130776,-23.597899 0.360729,0.396266 4.114988,-0.333933 7.615401,-2.653651 2.832394,-1.856664 6.150215,-5.316205 7.370461,-6.732079 0.601216,-0.667865 0.61903,-1.451493 0.03563,-1.460398 z"
                 id="path26"
                 inkscape:connector-curvature="0"
                 style="fill:#7c95df" />
            </g>
            <g
               transform="translate(170.71186,186.4789)"
               id="g55">
              <g
                 transform="translate(0.136212,20.708268)"
                 id="g35">
                <mask
                   id="mask-2"
                   fill="white">
                  <use
                     xlink:href="#path-1"
                     id="use29"
                     x="0"
                     y="0"
                     width="100%"
                     height="100%" />
                </mask>
                <use
                   id="Mask"
                   xlink:href="#path-1"
                   style="fill:#b1c6f8;fill-rule:nonzero"
                   x="0"
                   y="0"
                   width="100%"
                   height="100%" />
                <path
                   d="m 34.835442,65.686751 c -6.898396,0 -15.066025,-0.645603 -23.950659,-2.613578 -0.253847,-0.05788 -0.414171,-0.307218 -0.356276,-0.561007 0.05789,-0.253789 0.307288,-0.414076 0.561134,-0.356195 24.342563,5.39635 43.229648,0.783629 45.046656,0.311671 0.957492,-1.197705 9.022692,-11.678733 7.161149,-22.440265 -0.04453,-0.253789 0.124697,-0.498672 0.382997,-0.543197 0.253847,-0.04452 0.498786,0.124668 0.543321,0.382909 2.03968,11.812306 -7.067627,22.849889 -7.45953,23.312942 l -0.09352,0.111311 -0.138057,0.04007 c -0.133603,0.03562 -8.630788,2.355337 -21.697212,2.355337 z"
                   mask="url(#mask-2)"
                   id="path33"
                   inkscape:connector-curvature="0"
                   style="fill:#ffffff;fill-rule:nonzero" />
              </g>
              <path
                 d="m 87.949905,3.2814435 c 0,0 -12.483023,21.5497785 -17.693561,39.0033175 11.231604,12.529148 21.648225,30.24538 26.711799,57.917259 l -6.853861,1.53609 c 0.734819,2.35533 1.358302,4.586 1.839275,6.62522 0,0 15.444563,-18.539937 16.121493,-41.937475 C 108.75643,43.028317 87.949905,3.2814435 87.949905,3.2814435 Z"
                 id="path37"
                 inkscape:connector-curvature="0"
                 style="fill:#7c95df;fill-rule:nonzero" />
              <path
                 d="m 73.894814,129.2586 c -0.236033,0 -0.436438,-0.17365 -0.467612,-0.41408 -0.0089,-0.0846 -1.153444,-8.92268 -10.576946,-30.748506 C 54.05469,77.717226 42.431183,55.579727 6.1934536,28.793887 5.9841414,28.638052 5.9396069,28.344192 6.0954777,28.13938 6.246895,27.930115 6.5408228,27.885591 6.750135,28.041426 c 36.429228,26.923865 48.115083,49.190485 56.96409,69.685037 9.490304,21.990567 10.603667,30.650547 10.643748,31.006747 0.03117,0.25824 -0.151418,0.48977 -0.409718,0.52093 -0.01781,0 -0.03563,0.004 -0.05344,0.004 z"
                 id="path39"
                 inkscape:connector-curvature="0"
                 style="fill:#ffffff;fill-rule:nonzero" />
              <path
                 d="m 38.944131,64.386641 c -7.303659,0 -23.460779,-1.104204 -37.2219421,-9.830974 C 1.5039698,54.417642 1.4371681,54.128234 1.575225,53.905612 1.713282,53.687443 2.0027563,53.620657 2.2254289,53.758682 19.010485,64.40445 39.434011,63.540678 42.422277,63.344771 L 45.44617,41.928566 c 0.03563,-0.258241 0.276114,-0.431886 0.52996,-0.400719 0.258301,0.03562 0.436438,0.271599 0.400811,0.52984 l -3.130776,22.159761 -0.369637,0.03562 c -0.05789,0.01336 -1.505266,0.133573 -3.932397,0.133573 z"
                 id="path41"
                 inkscape:connector-curvature="0"
                 style="fill:#ffffff;fill-rule:nonzero" />
              <path
                 d="m 52.237682,114.33849 c -9.22755,0 -21.839723,-1.64295 -36.691981,-7.81402 -0.240487,-0.0979 -0.351823,-0.374 -0.253847,-0.61444 0.09798,-0.24043 0.37409,-0.35174 0.614576,-0.25378 29.708971,12.34214 50.301728,6.4115 52.466105,5.72137 1.184618,-2.68927 14.344565,-32.70312 15.328778,-39.337246 0.04008,-0.258241 0.276114,-0.436339 0.534414,-0.396267 0.2583,0.04007 0.431985,0.276051 0.396357,0.534292 -1.046561,7.039298 -14.896793,38.437861 -15.484649,39.773591 l -0.08016,0.18255 -0.191498,0.0668 c -0.11579,0.0401 -6.217018,2.13717 -16.638093,2.13717 z"
                 id="path43"
                 inkscape:connector-curvature="0"
                 style="fill:#ffffff;fill-rule:nonzero" />
              <path
                 d="m 96.968143,100.67397 c -0.222673,0 -0.418624,-0.16028 -0.463159,-0.38291 C 87.887557,53.184318 63.959165,35.241011 46.488277,22.137499 L 44.283819,20.481194 C 28.763543,8.771294 8.5760498,2.6046736 4.9197666,1.5494468 4.8707787,3.317063 4.6436527,9.0517973 3.5124762,20.841841 3.4857555,21.100082 3.2630829,21.27818 3.0003293,21.264822 2.7420292,21.238108 2.5549842,21.011034 2.5772515,20.752793 3.9622747,6.2957409 3.9934489,0.9839878 3.9934489,0.93501103 V 0.32502764 L 4.5813044,0.48086282 C 4.8084304,0.54319688 27.659087,6.7632465 44.844954,19.733185 l 2.204458,1.656305 c 17.595584,13.197013 41.693207,31.264988 50.377436,78.73683 0.04453,0.25379 -0.120243,0.49868 -0.378543,0.54765 -0.02672,-0.004 -0.05344,0 -0.08016,0 z"
                 id="path45"
                 inkscape:connector-curvature="0"
                 style="fill:#c2cfee;fill-rule:nonzero" />
              <path
                 d="m 45.851434,43.264296 c -0.02227,0 -0.04453,0 -0.07126,-0.0045 -0.2583,-0.04007 -0.431984,-0.276051 -0.396357,-0.534292 0.01781,-0.124668 1.834822,-12.408932 1.821462,-20.312002 0,-0.258241 0.209312,-0.467505 0.467612,-0.471958 0.2583,0 0.467612,0.209265 0.472066,0.467506 0.01336,7.974308 -1.812555,20.329811 -1.834822,20.454479 -0.03117,0.231527 -0.231579,0.400719 -0.458705,0.400719 z"
                 id="path47"
                 inkscape:connector-curvature="0"
                 style="fill:#d1e5f0;fill-rule:nonzero" />
              <path
                 d="m 64.172931,63.456082 c -0.02672,0 -0.0579,-0.0045 -0.08907,-0.0089 -0.253847,-0.04898 -0.423078,-0.29386 -0.37409,-0.547649 1.518626,-8.081167 1.594335,-24.675386 1.594335,-24.840127 0,-0.258241 0.209312,-0.467505 0.467613,-0.467505 0.262753,0 0.472065,0.213717 0.467612,0.471958 0,0.169192 -0.07571,16.843556 -1.612149,25.009319 -0.04008,0.227074 -0.236033,0.382909 -0.454252,0.382909 z"
                 id="path49"
                 inkscape:connector-curvature="0"
                 style="fill:#d1e5f0;fill-rule:nonzero" />
              <path
                 d="m 75.823158,95.152956 c -0.06235,0 -0.12915,-0.01336 -0.191498,-0.04007 -0.236033,-0.106858 -0.342916,-0.382909 -0.236033,-0.618888 5.513372,-12.279812 8.586253,-31.594468 8.612974,-31.790375 0.04008,-0.258241 0.276114,-0.431886 0.534414,-0.391814 0.2583,0.04007 0.431985,0.280503 0.391904,0.534292 -0.03117,0.195907 -3.117416,19.630779 -8.68423,32.030806 -0.07571,0.173645 -0.249393,0.276051 -0.427531,0.276051 z"
                 id="path51"
                 inkscape:connector-curvature="0"
                 style="fill:#c2cfee;fill-rule:nonzero" />
              <path
                 d="m 139.90123,110.12441 c -6.83604,-1.99024 -13.55185,0.71684 -18.70004,5.53437 1.55426,-4.72848 4.84981,-11.88799 7.02309,-15.43658 1.01984,0.63224 5.10366,0.59217 7.67775,0.0134 2.42713,-0.583265 10.75954,-3.642087 8.59071,-4.603813 -4.85426,-2.15943 -10.19395,-0.837057 -15.14173,2.65365 3.33118,-5.298395 4.89434,-7.578041 9.49475,-13.125773 0.0445,0.200359 0.1915,0.365099 0.44535,0.422981 4.50244,1.001797 8.58625,0.09795 12.68788,-2.769414 0.48097,-0.32948 0.4498,-0.939463 -0.0624,-1.13537 -4.10608,-1.571709 -8.01176,-0.823701 -11.58788,1.79433 1.71458,-1.910094 3.62066,-3.904784 5.44657,-5.645685 0.13361,0.04452 0.29393,0.04452 0.47207,-0.01781 4.80082,-1.634043 8.1899,-4.416814 10.87087,-8.89151 0.3162,-0.51203 0.0134,-1.019607 -0.61012,-0.917201 -8.01176,1.398064 -11.31622,8.570934 -11.05792,9.488136 -1.89272,1.803235 -4.21742,4.252074 -5.30406,5.480945 2.1332,-3.833545 2.94819,-7.582494 1.96397,-11.89245 -0.12469,-0.556554 -0.7749,-0.592173 -1.21579,-0.06233 -3.30001,3.944856 -4.69839,8.588745 -2.84575,13.504231 0.0802,0.213717 0.24048,0.32948 0.41862,0.3651 -4.72066,5.694662 -6.32835,8.081167 -9.52593,13.17475 1.30486,-5.926188 1.87936,-11.669828 -0.62794,-16.554147 -1.01984,-1.976881 -3.69636,6.059762 -3.40243,10.944081 0.20486,4.292146 2.43158,7.480089 2.89919,7.560229 -2.47166,4.06062 -6.0745,12.18186 -7.21013,15.99314 -1.06438,-6.77215 -2.95264,-14.94237 -7.94051,-19.63968 -0.52105,-0.498672 -1.22915,0.262694 -1.25587,1.455946 -0.22713,8.090064 2.11539,13.054534 4.24859,15.908544 2.1911,2.86291 4.22187,3.73559 4.50244,3.62428 -2.67207,8.29933 -4.04819,17.18639 -4.18624,24.14109 -0.0757,3.28145 -0.009,2.96532 0.17368,2.96532 0.18259,0 0.23158,0.32503 0.33846,-2.98313 0.18259,-7.48009 1.55426,-16.08664 4.23524,-24.32809 0.19149,0.23597 1.47409,0.33838 3.25102,0.18255 3.90122,-0.34284 8.55062,-1.545 15.71622,-5.81934 0.78826,-0.45414 0.90405,-1.18434 0.21822,-1.3847 z"
                 id="path53"
                 inkscape:connector-curvature="0"
                 style="fill:#c2cfee;fill-rule:nonzero" />
            </g>
            <g
               transform="translate(148.98954,265.99315)"
               id="g59"
               style="fill:#abc0ff;fill-rule:nonzero">
              <path
                 d="m 29.401893,15.445058 c 66.780325,-41.00295 111.981267,10.870992 163.175167,27.840951 51.1939,16.969959 83.09184,12.150797 169.40549,-15.049225 36.95627,-11.646032 68.93486,6.486052 77.913,16.175691 17.20425,18.567654 8.38587,41.594084 -8.97814,41.616346 -107.65772,0.124668 -411.496731,-0.635388 -426.7051166,0 C -3.3542861,86.344944 0.79609796,33.008943 29.401893,15.445058 Z"
                 id="path57"
                 inkscape:connector-curvature="0" />
            </g>
            <g
               transform="translate(0.729088,352.02197)"
               id="g69"
               style="opacity:0.2;fill:#ffffff;fill-rule:nonzero">
              <path
                 d="M 743.22306,77.81518 H 1.6566837 c -4.5380664,0 4.0526403,-5.935094 18.0453833,-12.684983 C 32.666062,58.874528 45.817103,54.088162 49.767314,54.088162 H 695.11688 c 3.95021,0 17.10125,4.786366 30.06525,11.042035 13.98829,6.749889 22.57899,12.684983 18.04093,12.684983 z"
                 id="path61"
                 inkscape:connector-curvature="0" />
              <path
                 d="M 679.19579,46.238522 H 65.6884 c -3.754259,0 1.63887,-4.087334 11.387474,-8.789104 9.142935,-4.412362 18.949434,-7.822926 22.293975,-7.822926 H 645.51435 c 3.34454,0 13.14658,3.410564 22.29397,7.822926 9.74415,4.70177 15.14173,8.789104 11.38747,8.789104 z"
                 id="path63"
                 inkscape:connector-curvature="0" />
              <path
                 d="m 637.74307,25.792947 h -530.6064 c -3.24657,0 0.45425,-3.067727 7.82917,-6.625221 6.97855,-3.36604 14.81217,-5.988523 17.747,-5.988523 h 479.45852 c 2.93482,0 10.76844,2.622483 17.747,5.988523 7.37491,3.557494 11.07128,6.625221 7.82471,6.625221 z"
                 id="path65"
                 inkscape:connector-curvature="0" />
              <path
                 d="M 606.16365,10.218335 H 138.72054 c -2.85911,0 -0.25385,-2.3865045 5.52228,-5.1737279 5.49556,-2.6536503 11.9397,-4.72848432 14.55833,-4.72848432 H 586.0875 c 2.61417,0 9.05831,2.07483402 14.55833,4.72848432 5.77167,2.7872234 8.37694,5.1737279 5.51782,5.1737279 z"
                 id="path67"
                 inkscape:connector-curvature="0" />
            </g>
            <ellipse
               id="Oval"
               cx="476.65671"
               cy="392.159"
               rx="71.232948"
               ry="4.1897397"
               style="opacity:0.3;fill:#7c95df;fill-rule:nonzero" />
            <g
               transform="translate(117.99519)"
               id="g151">
              <g
                 transform="translate(117.44333,67.601818)"
                 id="g122"
                 style="fill-rule:nonzero">
                <path
                   d="m 174.29725,42.008708 c 11.29903,6.033557 20.13292,14.001018 21.67293,22.166394 1.54,8.165375 11.94775,14.707854 19.24163,33.916843 4.87951,-1.147902 23.21293,-9.573394 34.37093,-19.576544 10.86467,-9.743035 7.5703,0.260116 3.44669,10.268921 -8.40517,20.396478 -31.97913,36.184378 -37.84019,37.179598 -7.80157,1.3232 -23.71498,-11.95402 -33.39503,-23.8006 -12.28621,-15.030168 -26.795,-29.381777 -27.675,-41.154846 -1.30309,-17.376869 11.22005,-23.783635 20.17804,-18.999766 z"
                   id="path72"
                   inkscape:connector-curvature="0"
                   style="fill:#b12f6e" />
                <path
                   d="m 254.49046,85.040916 c 3.59335,-8.759119 6.0867,-17.523891 -2.90514,-8.312398 -0.66001,0.672909 -3.62156,2.895203 -4.30977,3.573766 2.6513,1.775573 6.09798,3.421088 7.21491,4.738632 z"
                   id="path74"
                   inkscape:connector-curvature="0"
                   style="fill:#fccb9f" />
                <path
                   d="m 250.38941,78.017788 c -0.22,-5.9657 1.79386,-6.621645 5.34208,-11.173672 2.82617,-3.624657 5.28567,-5.162734 4.96977,-3.732096 -1.13385,5.111841 -3.82464,5.733857 -3.48617,6.587716 0.33846,0.853858 5.21233,-4.993093 6.52106,-9.584703 1.30872,-4.59161 3.83591,0.418447 3.51437,4.105306 -0.32154,3.686859 -0.6318,6.304982 -4.24771,11.84658 -4.12925,6.327601 -9.48261,6.683846 -9.48261,6.683846 z"
                   id="path76"
                   inkscape:connector-curvature="0"
                   style="fill:#fccb9f" />
                <path
                   d="m 214.18514,23.78929 c 0,9.307623 -7.95953,18.620901 -12.82776,17.733115 -6.97234,-1.272306 -12.82775,-8.431146 -12.82775,-17.733115 0,-9.307623 5.74259,-16.8509827 12.82775,-16.8509827 7.08516,0.00565 12.82776,7.5490137 12.82776,16.8509827 z"
                   id="path78"
                   inkscape:connector-curvature="0"
                   style="fill:#fccb9f" />
                <path
                   d="m 196.9348,77.882075 c -1.11693,-17.512581 -5.02054,-30.942475 -3.35643,-40.3123 -3.31694,-4.207091 -9.71953,-5.174044 -13.98981,-7.656453 -4.35489,3.336268 -9.26825,6.259744 -16.71444,10.726951 -22.00575,13.192397 -24.58935,32.344839 -29.63245,66.063767 -2.6513,17.73312 -3.53694,18.17984 7.51952,24.38869 11.05647,6.20885 26.78936,6.89307 33.61504,-5.5416 9.73081,-17.73877 23.88985,-26.831514 22.55857,-47.669055 z"
                   id="path80"
                   inkscape:connector-curvature="0"
                   style="fill:#da3685" />
                <path
                   d="m 193.58401,37.569775 c 0.3159,-1.775574 0.81231,-3.426744 1.58514,-4.913928 4.86258,-9.313278 -1.77129,-18.620901 -1.77129,-18.620901 -5.2067,8.024008 -9.12159,12.287646 -13.80366,15.878376 4.27028,2.476755 10.67287,3.449362 13.98981,7.656453 z"
                   id="path82"
                   inkscape:connector-curvature="0"
                   style="fill:#fccb9f" />
                <path
                   d="m 133.68731,159.68285 c 15.03905,18.6209 40.02891,36.35967 56.61361,48.99226 16.58469,12.63258 -1.99129,29.26303 39.80891,86.46024 22.50216,30.7898 0.66564,-79.14307 -7.29952,-109.07336 -4.29849,-16.15545 -29.04014,-39.4132 -51.44641,-55.97014 -19.10624,-14.10846 -52.71564,10.9701 -37.67659,29.591 z"
                   id="path84"
                   inkscape:connector-curvature="0"
                   style="fill:#fccb9f" />
                <path
                   d="m 130.59037,126.21273 c -6.26721,33.28352 -25.93192,73.68064 -31.398096,72.44226 -20.352919,-4.60857 -60.144906,3.76603 -78.314737,9.42072 -18.1698316,5.65469 52.653587,26.54312 89.805563,20.5548 28.6227,-4.60857 36.11966,-29.34785 46.14381,-43.16792 10.02415,-13.81441 16.29136,-39.56588 16.29136,-39.56588 z"
                   id="path86"
                   inkscape:connector-curvature="0"
                   style="fill:#fccb9f" />
                <path
                   d="m 125.28214,137.29593 c -4.86258,19.06762 -17.19957,60.66353 -26.54115,59.74747 -30.518097,-2.99133 -58.052076,4.98744 -64.025951,7.97877 0,3.65859 -0.665644,6.98355 0,14.96232 0.135386,1.60028 33.129904,12.93228 69.661361,10.64213 15.92469,-0.99523 30.28681,-9.96357 37.2648,-19.28815 9.29081,-12.41205 19.90163,-31.92074 19.90163,-31.92074 L 141.6412,138.18371 Z"
                   id="path88"
                   inkscape:connector-curvature="0"
                   style="fill:#212e51" />
                <path
                   d="m 133.02167,114.46228 c 38.92326,5.76213 78.51217,43.67119 90.45428,69.82979 1.20719,3.0705 18.94266,97.125 16.25751,100.20115 -4.64258,5.32106 -11.19184,8.91745 -14.26622,4.65381 -30.18527,-41.90127 -24.96166,-68.53487 -31.18374,-75.15086 -15.58059,-16.5739 -59.37772,-41.56764 -67.67571,-62.51828 -4.67079,-11.80134 -2.80924,-23.78363 0,-29.04249 6.63388,-12.4064 6.41388,-7.97312 6.41388,-7.97312 z"
                   id="path90"
                   inkscape:connector-curvature="0"
                   style="fill:#263764" />
                <g
                   transform="translate(225.64211,291.78212)"
                   id="g98">
                  <path
                     d="M 1.816419,15.324216 C 0.4907716,2.0243798 0.27077054,-1.0800462 4.2477128,2.9121665 8.2302961,6.9043792 11.547235,-0.63332552 15.084175,0.25446115 18.621115,1.1422478 27.466286,7.7921658 36.7571,7.7921658 c 9.290815,0 16.364695,-2.6577053 16.810338,0.441066 C 54.00744,11.337658 40.299682,21.533068 27.471927,23.749707 14.644173,25.966346 7.570293,29.958559 3.1420665,26.407412 -1.280519,22.86192 1.816419,15.324216 1.816419,15.324216 Z"
                     id="path92"
                     inkscape:connector-curvature="0"
                     style="fill:#0f1627" />
                  <path
                     d="m 2.4764222,16.325096 c 9.0651718,0.220533 13.2677568,3.104426 18.5759868,3.766025 5.308231,0.667254 9.950818,-3.545492 13.933401,-4.433278 3.982583,-0.887787 9.510815,-1.549386 12.827754,-2.437173 3.316939,-0.887786 6.413877,-3.9922124 6.413877,-3.9922124 0,0 1.325648,-0.4410659 0.665644,1.9961064 -0.660003,2.437172 -6.193875,9.08709 -14.373402,12.412049 -8.185168,3.324959 -16.144693,4.88 -19.021631,4.88 -2.876937,0 -3.982583,2.437172 -8.185167,3.104426 C 9.1103004,32.288292 3.8020696,33.170424 2.4764222,29.404399 1.1507748,25.638374 0.70513161,22.975014 1.1507748,20.537842 1.7543674,17.201574 2.4764222,16.325096 2.4764222,16.325096 Z"
                     id="path94"
                     inkscape:connector-curvature="0"
                     style="fill:#20364c" />
                  <path
                     d="m 1.816419,15.324216 c 9.065172,0.220533 13.267756,3.104426 18.575987,3.766025 5.308231,0.661599 9.950817,-3.545492 13.933401,-4.433279 3.982583,-0.887787 9.510815,-1.549385 12.827754,-2.437172 3.316939,-0.887787 6.413877,-3.9922129 6.413877,-3.9922129 0,0 1.325647,-0.441066 0.665644,1.9961069 -0.665644,2.437172 -6.193876,9.08709 -14.373402,12.412049 -8.185168,3.324959 -16.144694,4.874345 -19.021631,4.874345 -2.876937,0 -3.982583,2.437172 -8.185167,3.104426 C 8.4502972,31.281757 3.1420665,32.163889 1.816419,28.397864 0.4907716,24.631839 0.04512842,21.968479 0.4907716,19.531307 1.0943643,16.200693 1.816419,15.324216 1.816419,15.324216 Z"
                     id="path96"
                     inkscape:connector-curvature="0"
                     style="fill:#ffffff" />
                </g>
                <g
                   transform="translate(0,199.04516)"
                   id="g106">
                  <path
                     d="M 18.293934,2.9856775 C 31.561691,4.3371489 34.641706,4.738632 29.942709,7.8487127 25.249353,10.964448 31.956564,15.725699 30.382711,19.022384 28.808857,22.31907 20.544715,29.681479 18.688808,38.808152 16.838543,47.929171 18.023164,55.415983 14.903662,55.229379 11.784159,55.042774 4.5466886,39.543262 4.9415623,26.497888 5.330795,13.458167 2.8430907,5.7112391 7.1923424,2.0696173 11.547235,-1.560695 18.293934,2.9856775 18.293934,2.9856775 Z"
                     id="path100"
                     inkscape:connector-curvature="0"
                     style="fill:#0f1627" />
                  <path
                     d="M 17.188288,3.4380529 C 15.16315,12.298956 11.507748,15.855757 9.7985088,20.933671 c -1.709239,5.083568 1.4835972,10.483799 1.5569302,14.572141 0.07333,4.088343 -0.37795,9.65256 -0.174872,13.084958 0.203078,3.438053 2.623089,7.096639 2.623089,7.096639 0,0 0.169232,1.391054 -2.081548,0.254461 C 9.4713278,54.805277 4.0728402,48.047919 2.453858,39.345348 0.83487583,30.642777 0.90820951,22.516984 1.4779558,19.689638 2.0533433,16.867947 -0.11282106,15.290288 0.07897474,11.032304 0.26512949,6.7743212 0.45692528,1.3797449 4.4056623,0.83123975 8.3543993,0.27707992 11.045182,0.37320968 13.34109,1.2949245 c 3.136425,1.2609964 3.847198,2.1431284 3.847198,2.1431284 z"
                     id="path102"
                     inkscape:connector-curvature="0"
                     style="fill:#20364c" />
                  <path
                     d="m 18.293934,2.9856775 c -2.025138,8.8609025 -5.68054,12.4177045 -7.389779,17.4956175 -1.7092388,5.083568 1.483597,10.483799 1.556931,14.572142 0.07333,4.088342 -0.377951,9.652559 -0.174873,13.084958 0.203078,3.438052 2.62309,7.096638 2.62309,7.096638 0,0 0.169231,1.391054 -2.081549,0.254461 C 10.576974,54.352901 5.1784865,47.595544 3.5595044,38.892973 1.9405222,30.190402 2.0138559,22.064609 2.5836022,19.237263 3.1589896,16.415571 0.99282531,14.837912 1.1846211,10.579929 1.3707758,6.3219459 1.5625716,0.92736952 5.5113087,0.37886438 9.4600457,-0.17529546 12.150828,-0.07916569 14.446736,0.84254913 17.583162,2.1035455 18.293934,2.9856775 18.293934,2.9856775 Z"
                     id="path104"
                     inkscape:connector-curvature="0"
                     style="fill:#ffffff" />
                </g>
                <path
                   d="m 180.1301,25.118143 c 7.07952,0 14.1534,12.638237 14.3734,13.299836 0.22,0.661599 -1.21846,9.313278 -1.21846,9.313278 0,0 -4.08977,-7.758238 -9.398,-10.862664 -5.30823,-3.104426 -14.26622,-0.220533 -14.26622,-0.220533 z"
                   id="path108"
                   inkscape:connector-curvature="0"
                   style="fill:#da3685" />
                <path
                   d="m 185.87833,23.348224 c 2.62873,-14.5042854 2.12383,-19.1965786 6.63388,-20.8375407 4.51005,-1.64096204 10.64546,-4.8846423 17.71934,1.7652757 7.07388,6.649918 8.63938,1.5570668 9.29938,8.206985 0.66,6.649918 -5.68382,10.698281 -11.87205,7.814388 -6.19388,-2.883893 -1.30286,-0.07347 -2.18287,2.804766 -0.88564,2.883893 -0.35605,6.449323 -2.34734,4.232684 -1.99129,-2.216639 -4.42258,1.328853 -8.40517,2.216639 -3.97694,0.887787 -12.16211,-5.094877 -8.84517,-6.203197 z"
                   id="path110"
                   inkscape:connector-curvature="0"
                   style="fill:#0f1627" />
                <path
                   d="m 204.83791,26.407412 c -0.11282,2.324079 -1.33693,4.150545 -2.74155,4.088343 -1.40462,-0.06786 -2.44822,-2.007416 -2.34104,-4.331494 0.10718,-2.324079 1.33693,-4.150544 2.74155,-4.088343 1.40463,0.06786 2.45386,2.007416 2.34104,4.331494 z"
                   id="path112"
                   inkscape:connector-curvature="0"
                   style="fill:#fccb9f" />
                <g
                   transform="translate(97.026109,40.713784)"
                   id="g120">
                  <path
                     d="M 82.579373,36.761154 C 69.486489,50.32676 61.120808,37.445372 52.980769,35.879022 c -8.14004,-1.56635 3.875403,-0.938679 -31.702718,10.093625 -0.727695,4.970475 3.356427,23.466973 8.534913,37.541502 5.043102,13.712628 -4.275918,5.835642 -11.135438,-2.521993 C 2.2789854,61.008474 -0.82359372,42.404537 0.40615581,36.574549 2.0477022,28.816311 17.690342,21.335154 30.845277,13.548643 44.000212,5.7621313 64.922878,-2.4484817 76.171137,1.0630821 92.761473,6.2484349 89.630689,29.455292 82.579373,36.761154 Z"
                     id="path114"
                     inkscape:connector-curvature="0"
                     style="fill:#da3685" />
                  <path
                     d="m 21.182154,83.909977 c 6.357466,7.011819 13.07596,11.705213 8.625169,-0.384519 -0.327181,-0.882132 -0.648721,-1.786883 -0.96462,-2.702943 -2.730269,1.639861 -5.996439,2.640742 -7.660549,3.087462 z"
                     id="path116"
                     inkscape:connector-curvature="0"
                     style="fill:#fccb9f" />
                  <path
                     d="m 29.542194,83.107011 c 5.471821,2.358007 5.201051,4.467207 7.779012,9.629941 2.053343,4.110961 2.386165,7.000509 1.23539,6.101413 -4.117968,-3.21752 -3.531299,-5.920463 -4.445149,-5.982665 -0.913851,-0.0622 2.262062,6.864797 5.84413,10.01446 3.576428,3.15532 -2.019496,3.29103 -5.206691,1.41933 -3.187195,-1.87171 -5.40977,-3.27407 -8.856453,-8.928761 -3.937455,-6.452004 -1.957446,-11.450752 -1.957446,-11.450752 z"
                     id="path118"
                     inkscape:connector-curvature="0"
                     style="fill:#fccb9f" />
                </g>
              </g>
              <g
                 id="g149">
                <g
                   id="Group-10"
                   transform="translate(0,133.32581)">
                  <g
                     id="Group-8">
                    <g
                       id="t"
                       style="fill-rule:nonzero">
                      <use
                         xlink:href="#path-3"
                         id="use124"
                         style="fill:#000000"
                         x="0"
                         y="0"
                         width="100%"
                         height="100%" />
                      <use
                         xlink:href="#path-3"
                         id="use126"
                         style="fill:#da3685"
                         x="0"
                         y="0"
                         width="100%"
                         height="100%" />
                    </g>
                    <ellipse
                       id="ellipse129"
                       cx="15.032745"
                       cy="15.022626"
                       rx="14.032745"
                       ry="14.022626"
                       style="stroke:#da3685;stroke-width:2" />
                  </g>
                  <g
                     id="Group-8-Copy"
                     transform="translate(0,38.49548)">
                    <ellipse
                       id="ellipse132"
                       cx="15.032745"
                       cy="15.022626"
                       rx="14.032745"
                       ry="14.022626"
                       style="stroke:#da3685;stroke-width:2" />
                    <g
                       id="Group"
                       transform="translate(6.388917,7.32353)"
                       style="fill:#da3685;fill-rule:nonzero">
                      <path
                         d="m 3.3858301,15.210409 c 0,0 -0.09933,-0.07918 -0.2885285,-0.232877 C 2.9128325,14.823833 2.6479539,14.586299 2.3405055,14.250956 1.7303386,13.594244 0.94516263,12.513695 0.51000487,11.004653 0.28769602,10.25479 0.15998667,9.4024607 0.1930965,8.5035561 0.2120164,7.6186241 0.38229553,6.6312262 0.74177368,5.709034 1.46073,3.8460192 2.9695922,2.108758 4.951452,1.1306753 5.935287,0.63697638 7.0279113,0.33423649 8.1205357,0.23177067 l 0.4115079,-0.0326028 0.1040595,-0.009315 c 0.03311,0 0,-0.004658 0.08514,0 0.0473,0 0.2364988,0.004658 0.2364988,0.004658 0.2601487,0.009315 0.4871875,-0.009315 0.7709861,0.0279452 0.572326,0.0465754 1.102084,0.15369872 1.612921,0.27945221 2.052811,0.56821952 3.731952,1.81178182 4.767816,3.17178262 0.534487,0.6706853 0.922345,1.3646583 1.191953,2.0073983 0.279069,0.6427401 0.444618,1.2342473 0.543948,1.7279462 0.10879,0.4936989 0.14663,0.8895895 0.160819,1.1597267 0.01892,0.2701371 0.03311,0.4145207 0.03311,0.4145207 h -2.223089 c -0.02365,0 0.0473,-0.4471235 -0.06622,-1.2156171 C 15.702687,7.3810897 15.603357,6.915336 15.423618,6.4030069 15.248609,5.8860204 14.979001,5.3224584 14.591142,4.7588964 13.843806,3.627115 12.557253,2.5232788 10.892302,1.9317716 10.466604,1.8013606 10.040906,1.6849222 9.615208,1.6150591 9.4070891,1.5684837 9.1280206,1.5638262 8.8867918,1.5405385 l -0.189199,-0.013973 c -0.05676,-0.00466 -0.1466293,0 -0.1466293,0 l -0.3500182,0.00466 C 7.2644101,1.5545111 6.308955,1.7501277 5.4197196,2.1227306 3.6317888,2.8586214 2.1607664,4.3117729 1.3850504,5.9791711 0.99246239,6.8221853 0.78434346,7.669857 0.70393388,8.5315013 0.61406434,9.379173 0.680284,10.194242 0.84110317,10.925475 1.1580115,12.397257 1.848588,13.505751 2.4067251,14.195066 c 0.2790686,0.349315 0.5250273,0.600822 0.7000364,0.768494 0.1844691,0.158356 0.2790686,0.246849 0.2790686,0.246849 z"
                         id="path134"
                         inkscape:connector-curvature="0" />
                      <path
                         d="M 8.7115362,8.5452725 C 8.4355578,8.1712946 9.0524506,7.0547808 9.6734019,6.4585841 L 11.292746,4.8976328 c 0.03247,-0.03252 0.08929,-0.01084 0.125813,0.04336 0.04059,0.0542 0.05682,0.1300793 0.03247,0.1680191 l -1.17291,2.1571477 C 9.8276251,8.095415 8.9875145,8.9192504 8.7115362,8.5452725 Z"
                         id="path136"
                         inkscape:connector-curvature="0" />
                    </g>
                  </g>
                  <g
                     id="Group-8-Copy-2"
                     transform="translate(0,76.990959)">
                    <ellipse
                       id="ellipse140"
                       cx="15.032745"
                       cy="15.022626"
                       rx="14.032745"
                       ry="14.022626"
                       style="stroke:#da3685;stroke-width:2" />
                    <path
                       d="m 15.270677,10.174415 c -4.48416,-3.8296316 -9.3132556,-0.14226 -8.3010681,4.358838 1.1592091,5.155492 7.0796581,8.325038 8.2897591,8.364871 1.238374,-0.03414 7.153168,-3.203689 8.312377,-8.364871 1.012188,-4.501098 -3.811253,-8.1884696 -8.301068,-4.358838 z"
                       id="path142"
                       inkscape:connector-curvature="0"
                       style="fill:#da3685;fill-rule:nonzero" />
                    <path
                       d="m 11.629064,19.421297 c -0.282734,-0.02276 -0.469338,-0.193474 -0.52023,-0.415399 L 9.9383151,13.861787 8.7395233,16.854931 C 8.6603578,17.059785 8.462444,17.190664 8.2475662,17.190664 H 3.9782839 c -0.2940433,0 -0.5315398,-0.238996 -0.5315398,-0.534896 0,-0.2959 0.2374965,-0.534897 0.5315398,-0.534897 h 3.9073829 l 1.6964036,-4.239339 c 0.08482,-0.216235 0.3053526,-0.341424 0.5371946,-0.335733 0.231842,0.01707 0.424101,0.187783 0.474993,0.415398 l 1.198792,5.257919 1.509799,-3.351639 c 0.08482,-0.193473 0.271425,-0.312971 0.480648,-0.312971 0.209223,0 0.395827,0.119498 0.486302,0.312971 l 0.910403,1.974565 h 7.588579 c 0.294043,0 0.53154,0.238996 0.53154,0.534897 0,0.2959 -0.237497,0.534896 -0.53154,0.534896 h -7.927859 c -0.209224,0 -0.395828,-0.119498 -0.480648,-0.312971 l -0.565468,-1.229124 -1.67944,3.732895 c -0.09047,0.193473 -0.282733,0.318662 -0.486302,0.318662 z"
                       id="path144"
                       inkscape:connector-curvature="0"
                       style="fill:#ffffff;fill-rule:nonzero" />
                  </g>
                </g>
                <path
                   d="m 172.88796,5.3124039 c -0.93954,0 -1.6741,-1.1172615 -1.6741,-2.5448735 0,-1.427612 0.73456,-2.54487362 1.6741,-2.54487362 0.93955,0 1.6741,1.11726162 1.6741,2.54487362 0,1.427612 -0.73455,2.5448735 -1.6741,2.5448735 z m 0,-4.42390436 c -0.47831,0 -1.00218,0.77305476 -1.00218,1.87903086 0,1.1059761 0.52956,1.8790308 1.00218,1.8790308 0.47832,0 1.00219,-0.7730547 1.00219,-1.8790308 0.006,-1.1059761 -0.52387,-1.87903086 -1.00219,-1.87903086 z"
                   id="Shape"
                   inkscape:connector-curvature="0"
                   style="fill:#20364c;fill-rule:nonzero" />
              </g>
            </g>
            <path
               d="m 36.246782,133.31679 c -4.141709,0 -7.508518,-3.36604 -7.508518,-7.50681 0,-4.14076 3.366809,-7.5068 7.508518,-7.5068 4.14171,0 7.508518,3.36604 7.508518,7.5068 0,4.14077 -3.366808,7.50681 -7.508518,7.50681 z m 0,-13.96283 c -3.56276,0 -6.461957,2.89853 -6.461957,6.46048 0,3.56194 2.899197,6.46048 6.461957,6.46048 3.562761,0 6.461957,-2.89854 6.461957,-6.46048 0,-3.56195 -2.899196,-6.46048 -6.461957,-6.46048 z"
               id="path153"
               inkscape:connector-curvature="0"
               style="fill:#ffffff;fill-rule:nonzero" />
            <path
               d="m 101.47688,332.35785 c -3.371266,0 -6.110138,-2.7427 -6.110138,-6.10873 0,-3.3705 2.743326,-6.10874 6.110138,-6.10874 3.37126,0 6.11013,2.7427 6.11013,6.10874 0,3.37049 -2.73887,6.10873 -6.11013,6.10873 z m 0,-11.17115 c -2.792317,0 -5.063577,2.27074 -5.063577,5.06242 0,2.79167 2.27126,5.06241 5.063577,5.06241 2.79231,0 5.06357,-2.27074 5.06357,-5.06241 0,-2.79168 -2.27126,-5.06242 -5.06357,-5.06242 z"
               id="path155"
               inkscape:connector-curvature="0"
               style="fill:#ffffff;fill-rule:nonzero" />
            <path
               d="m 617.09984,98.655055 c -3.75425,0 -6.80932,-3.054369 -6.80932,-6.807771 0,-3.753401 3.05507,-6.80777 6.80932,-6.80777 3.75426,0 6.80933,3.054369 6.80933,6.80777 0,3.753402 -3.05507,6.807771 -6.80933,6.807771 z m 0,-12.56922 c -3.17531,0 -5.76276,2.582412 -5.76276,5.761449 0,3.174585 2.583,5.761449 5.76276,5.761449 3.17977,0 5.76277,-2.582411 5.76277,-5.761449 0,-3.179037 -2.58746,-5.761449 -5.76277,-5.761449 z"
               id="path157"
               inkscape:connector-curvature="0"
               style="fill:#ffffff;fill-rule:nonzero" />
            <path
               d="m 664.07717,323.99445 c -3.75426,0 -6.80932,-3.05437 -6.80932,-6.80777 0,-3.7534 3.05506,-6.80777 6.80932,-6.80777 3.75426,0 6.80933,3.05437 6.80933,6.80777 0,3.7534 -3.05507,6.80777 -6.80933,6.80777 z m 0,-12.56922 c -3.17531,0 -5.76276,2.58241 -5.76276,5.76145 0,3.17458 2.583,5.76145 5.76276,5.76145 3.17977,0 5.76277,-2.58241 5.76277,-5.76145 0,-3.17904 -2.58746,-5.76145 -5.76277,-5.76145 z"
               id="Shape-Copy"
               inkscape:connector-curvature="0"
               style="fill:#ffffff;fill-rule:nonzero" />
            <path
               d="m 566.15045,183.302 c -2.60082,0 -4.7162,-2.1149 -4.7162,-4.71512 0,-2.60022 2.11538,-4.71513 4.7162,-4.71513 2.60081,0 4.7162,2.11491 4.7162,4.71513 0,2.60022 -2.11539,4.71512 -4.7162,4.71512 z m 0,-8.37948 c -2.02187,0 -3.66519,1.64295 -3.66519,3.66436 0,2.0214 1.64332,3.66435 3.66519,3.66435 2.02187,0 3.66519,-1.64295 3.66519,-3.66435 0,-2.02141 -1.64332,-3.66436 -3.66519,-3.66436 z"
               id="path160"
               inkscape:connector-curvature="0"
               style="fill:#ffffff;fill-rule:nonzero" />
          </g>
          <g
             id="Group-37"
             transform="translate(265,76)">
            <ellipse
               id="Oval-Copy-14"
               cx="172.35628"
               cy="6.1091771"
               rx="6.1052632"
               ry="6.1091771"
               style="fill:#ffffff" />
            <ellipse
               id="Oval-Copy-33"
               cx="147.93523"
               cy="37.125"
               rx="6.1052632"
               ry="6.1091771"
               style="fill:#ffffff" />
            <ellipse
               id="Oval-Copy-34"
               cx="80.307693"
               cy="67.200951"
               rx="6.1052632"
               ry="6.1091771"
               style="fill:#ffffff" />
            <ellipse
               id="Oval-Copy-35"
               cx="98.153847"
               cy="122.65348"
               rx="6.1052632"
               ry="6.1091771"
               style="fill:#ffffff" />
            <ellipse
               id="Oval-Copy-36"
               cx="181.74899"
               cy="102.91614"
               rx="6.1052632"
               ry="6.1091771"
               style="fill:#ffffff" />
            <ellipse
               id="Oval-Copy-37"
               cx="225.89473"
               cy="67.200951"
               rx="6.1052632"
               ry="6.1091771"
               style="fill:#ffffff" />
            <ellipse
               id="Oval-Copy-38"
               cx="114.12146"
               cy="116.07436"
               rx="6.1052632"
               ry="6.1091771"
               style="fill:#ffffff" />
            <ellipse
               id="Oval-Copy-39"
               cx="178.93117"
               cy="176.22627"
               rx="6.1052632"
               ry="6.1091771"
               style="fill:#ffffff" />
            <ellipse
               id="Oval-Copy-40"
               cx="208.04858"
               cy="290.89081"
               rx="6.1052632"
               ry="6.1091771"
               style="fill:#ffffff" />
            <ellipse
               id="Oval-Copy-41"
               cx="85.943321"
               cy="201.60284"
               rx="6.1052632"
               ry="6.1091771"
               style="fill:#ffffff" />
            <ellipse
               id="Oval-Copy-42"
               cx="6.1052632"
               cy="204.42247"
               rx="6.1052632"
               ry="6.1091771"
               style="fill:#ffffff" />
            <path
               d="M 168.75718,10.808544 147.93522,37.446835 116,117.88282 l 62.93117,57.79456 30.30728,115.21344"
               id="Path-37-Copy-3"
               inkscape:connector-curvature="0"
               style="stroke:#ffffff;stroke-width:2;stroke-linecap:round;stroke-dasharray:4, 4" />
            <path
               d="M 147.93522,37.446835 79.838057,68.610759 95.336032,122.18354"
               id="Path-37-Copy-5"
               inkscape:connector-curvature="0"
               style="stroke:#ffffff;stroke-width:2;stroke-linecap:round;stroke-dasharray:4, 4" />
            <path
               d="m 147.93522,37.446835 33.81377,65.469305 44.14575,-34.305381"
               id="Path-37-Copy-6"
               inkscape:connector-curvature="0"
               style="stroke:#ffffff;stroke-width:2;stroke-linecap:round;stroke-dasharray:4, 4" />
            <path
               d="M 114.12146,116.07437 86.412955,201.77268 5.2917017,204.42247"
               id="Path-37-Copy-7"
               inkscape:connector-curvature="0"
               style="stroke:#ffffff;stroke-width:2;stroke-linecap:round;stroke-dasharray:4, 4" />
          </g>
          <g
             id="Group-20"
             transform="translate(263,66)"
             style="stroke:#da3685;stroke-width:3">
            <polyline
               id="Path-2"
               points="0 58.125 0 0 47.9578947 0" />
            <polyline
               id="Path-2-Copy"
               transform="matrix(-1,0,0,1,488.04211,0)"
               points="220.042105 58.125 220.042105 0 268 0" />
            <polyline
               id="Path-2-Copy-3"
               transform="matrix(1,0,0,-1,0,601.875)"
               points="0 330 0 271.875 47.9578947 271.875" />
            <polyline
               id="Path-2-Copy-2"
               transform="rotate(180,244.02105,300.9375)"
               points="220.042105 330 220.042105 271.875 268 271.875" />
          </g>
          <g
             id="Group-22-Copy-3"
             transform="translate(116,42)">
            <polyline
               id="Fill-55"
               points="25.9199844 19.7506585 18.2560307 40.2954801 23.9757444 42.7603161 31.2960526 23.9769636 25.9199844 19.7506585"
               style="fill:#ffffff" />
            <polyline
               id="Fill-56"
               points="4.34667398 51.0894388 14.2427918 44.5302897 16.5173611 51.0894388 7.19037845 56.9201054 4.34667398 51.0894388"
               style="fill:#ffffff" />
            <path
               d="m 26.080044,45.41493 c 0,3.91105 -3.113669,7.080241 -6.954679,7.080241 -3.840328,0 -6.954678,-3.169191 -6.954678,-7.080241 0,-3.909663 3.11435,-7.079548 6.954678,-7.079548 3.84101,0 6.954679,3.169885 6.954679,7.079548"
               id="Fill-57"
               inkscape:connector-curvature="0"
               style="fill:#eef9ff" />
            <path
               d="M 39.295384,42.836673 22.959525,19.673234 c -1.309348,-1.855586 -0.893702,-4.455401 0.926975,-5.80573 l 9.192192,-6.8168883 c 1.820677,-1.3503293 4.358409,-0.9408076 5.667094,0.9154571 L 55.081645,31.129512 c 1.742061,2.47029 1.189647,5.930838 -1.234829,7.729011 l -7.006985,5.196763 c -2.425134,1.797499 -5.802388,1.252354 -7.544447,-1.218613"
               id="Fill-58"
               transform="rotate(-26,39.146846,25.684705)"
               inkscape:connector-curvature="0"
               style="fill:#ffffff" />
            <path
               d="M 49.712401,45.128505 41.573989,33.464267 c -1.152585,-1.652014 -0.78686,-3.965862 0.816833,-5.167912 l 9.943552,-7.45285 c 1.603692,-1.202051 3.838263,-0.837252 4.990848,0.814762 l 8.138413,11.664238 c 1.152585,1.652014 0.78686,3.965861 -0.817495,5.168596 l -9.942892,7.452849 c -1.604353,1.202052 -3.838923,0.837253 -4.990847,-0.815445"
               id="Fill-59"
               transform="rotate(-26,53.518792,33.393706)"
               inkscape:connector-curvature="0"
               style="fill:#da3685" />
            <path
               d="m 57.014084,38.435904 c -2.537946,1.866269 -6.073393,1.300096 -7.897072,-1.264609 -1.824353,-2.56539 -1.245896,-6.157605 1.29205,-8.023874 2.537271,-1.866953 6.072718,-1.300781 7.897072,1.264609 1.823679,2.564705 1.245221,6.15692 -1.29205,8.023874"
               id="Fill-60"
               transform="rotate(-26,53.711331,33.791416)"
               inkscape:connector-curvature="0"
               style="fill:#263764" />
            <path
               d="m 54.670717,35.919593 c 0.454079,0.158036 0.694281,0.660086 0.536527,1.121456 -0.157756,0.461942 -0.654237,0.708757 -1.107751,0.550719 -0.454083,-0.156889 -0.694284,-0.659513 -0.536529,-1.120882 0.158321,-0.461945 0.654237,-0.708758 1.107753,-0.551293"
               id="Fill-61"
               transform="rotate(-26,54.385104,36.755823)"
               inkscape:connector-curvature="0"
               style="fill:#fffffe" />
            <path
               d="M 0,44.53029 V 64 c 5.2814108,0 9.5626828,-4.358581 9.5626828,-9.7352 0,-5.375929 -4.281272,-9.73451 -9.5626828,-9.73451"
               id="Fill-62"
               inkscape:connector-curvature="0"
               style="fill:#da3685" />
            <path
               d="m 30.144715,28.600527 0.281313,-0.701142 h 6.9e-4 l -0.282003,0.701142 m -4.934006,-5.837813 v 0 l 0.137898,-0.357095 -0.137898,0.357781"
               id="Fill-63"
               inkscape:connector-curvature="0"
               style="fill:#e3e1dc" />
          </g>
          <line
             x1="247"
             y1="99"
             x2="186"
             y2="83"
             id="Path-34-Copy-6"
             style="opacity:0.4;stroke:#ffffff;stroke-width:2;stroke-linecap:round;stroke-dasharray:4, 4" />
        </g>
      </g>
    </g>
  </g>
</svg>
