<?xml version="1.0" encoding="utf-8"?>
<!-- Generator: Adobe Illustrator 16.0.0, SVG Export Plug-In . SVG Version: 6.00 Build 0)  -->
<!DOCTYPE svg PUBLIC "-//W3C//DTD SVG 1.1//EN" "http://www.w3.org/Graphics/SVG/1.1/DTD/svg11.dtd">
<svg version="1.1" id="Слой_2" xmlns="http://www.w3.org/2000/svg" xmlns:xlink="http://www.w3.org/1999/xlink" x="0px" y="0px"
	 width="3137.138px" height="1757.649px" viewBox="0 0 3137.138 1757.649" enable-background="new 0 0 3137.138 1757.649"
	 xml:space="preserve">
<g>
	<g>
		<g>
			<rect x="2354.039" y="216.491" fill="#AED3FF" width="714.111" height="1199.818"/>
			<rect x="2331.656" y="216.491" fill="#D2E4FF" width="714.109" height="1199.818"/>
			<rect x="2380.289" y="283.517" fill="#F3F9FF" width="618.541" height="417.917"/>
			<rect x="2656.197" y="1093.612" fill="#F3F9FF" width="331.969" height="223.135"/>
			<path fill="#F14D4E" d="M2405.792,496.817c0,0,105.609-13.158,170.145,46.294c64.535,59.45,184.758,5.268,233.16,0
				c84.162-9.159,150.141,18.375,169.709,48.642v90.799h-573.014V496.817z"/>
			<rect x="2487.65" y="350.69" fill="#A6C7F9" width="4.426" height="141.785"/>
			<rect x="2661.326" y="411.532" fill="#A6C7F9" width="4.424" height="141.785"/>
			<rect x="2840.531" y="379.452" fill="#A6C7F9" width="4.424" height="141.785"/>
			<path fill="#A6C7F9" d="M2541.486,372.446h-33.924c-2.027,0-3.688-1.659-3.688-3.688l0,0c0-2.028,1.658-3.687,3.688-3.687h33.924
				c2.027,0,3.688,1.659,3.688,3.687l0,0C2545.173,370.787,2543.513,372.446,2541.486,372.446z"/>
			<path fill="#A6C7F9" d="M2541.486,385.72h-33.924c-2.027,0-3.688-1.659-3.688-3.688l0,0c0-2.028,1.658-3.687,3.688-3.687h33.924
				c2.027,0,3.688,1.659,3.688,3.687l0,0C2545.173,384.061,2543.513,385.72,2541.486,385.72z"/>
			<path fill="#A6C7F9" d="M2712.58,444.718h-33.924c-2.027,0-3.689-1.659-3.689-3.687l0,0c0-2.028,1.66-3.688,3.689-3.688h33.924
				c2.027,0,3.688,1.659,3.688,3.688l0,0C2716.267,443.059,2714.605,444.718,2712.58,444.718z"/>
			<path fill="#A6C7F9" d="M2712.58,457.719h-33.924c-2.027,0-3.689-1.659-3.689-3.688l0,0c0-2.028,1.66-3.688,3.689-3.688h33.924
				c2.027,0,3.688,1.659,3.688,3.688l0,0C2716.267,456.06,2714.605,457.719,2712.58,457.719z"/>
			<path fill="#A6C7F9" d="M2894.732,391.251h-33.924c-2.027,0-3.686-1.66-3.686-3.688l0,0c0-2.028,1.658-3.688,3.686-3.688h33.924
				c2.029,0,3.689,1.66,3.689,3.688l0,0C2898.421,389.592,2896.761,391.251,2894.732,391.251z"/>
			<path fill="#A6C7F9" d="M2894.732,404.252h-33.924c-2.027,0-3.686-1.659-3.686-3.688l0,0c0-2.028,1.658-3.687,3.686-3.687h33.924
				c2.029,0,3.689,1.659,3.689,3.687l0,0C2898.421,402.593,2896.761,404.252,2894.732,404.252z"/>
			<g>
				<circle fill="#F3F9FF" cx="2937.755" cy="808.334" r="61.074"/>
				<path fill="#C65447" d="M2993.652,808.333c0,30.87-25.025,55.896-55.896,55.896c-14.572,0-27.844-5.572-37.783-14.705
					l37.783-41.191v-55.896C2968.626,752.438,2993.652,777.463,2993.652,808.333z"/>
				<path fill="#A6C7F9" d="M2916.468,798.486h-20.072c-0.926,0-1.682-0.757-1.682-1.683l0,0c0-0.925,0.756-1.681,1.682-1.681
					h20.072c0.924,0,1.682,0.756,1.682,1.681l0,0C2918.148,797.729,2917.392,798.486,2916.468,798.486z"/>
			</g>
			<g>
				<circle fill="#F3F9FF" cx="2786.123" cy="808.334" r="61.074"/>
				<path fill="#E57970" d="M2786.125,808.333l34.346,44.101c-9.475,7.396-21.395,11.796-34.346,11.796
					c-30.877,0-55.902-25.026-55.902-55.896s25.025-55.896,55.902-55.896c29.146,0,53.086,22.311,55.664,50.79L2786.125,808.333z"/>
				<path fill="#A6C7F9" d="M2829.166,822.154h-13.969c-0.926,0-1.682-0.756-1.682-1.682l0,0c0-0.925,0.758-1.682,1.682-1.682
					h13.969c0.924,0,1.682,0.757,1.682,1.682l0,0C2830.847,821.397,2830.089,822.154,2829.166,822.154z"/>
			</g>
			<g>
				<circle fill="#F3F9FF" cx="2937.755" cy="976.545" r="61.074"/>
				<path fill="#EE9849" d="M2993.652,976.545c0,30.869-25.025,55.896-55.896,55.896c-14.572,0-27.844-5.572-37.783-14.705
					l37.783-41.191v-55.895C2968.626,920.651,2993.652,945.676,2993.652,976.545z"/>
				<path fill="#A6C7F9" d="M2916.468,966.7h-20.072c-0.926,0-1.682-0.758-1.682-1.684l0,0c0-0.924,0.756-1.682,1.682-1.682h20.072
					c0.924,0,1.682,0.758,1.682,1.682l0,0C2918.148,965.942,2917.392,966.7,2916.468,966.7z"/>
			</g>
			<g>
				<circle fill="#F3F9FF" cx="2786.123" cy="976.545" r="61.074"/>
				<path fill="#C65447" d="M2841.789,971.44c-2.578-28.479-26.518-50.789-55.664-50.789c-30.877,0-55.902,25.025-55.902,55.895
					c0,30.871,25.025,55.896,55.902,55.896c12.951,0,24.871-4.4,34.346-11.795l-34.346-44.102L2841.789,971.44z"/>
				<path fill="#A6C7F9" d="M2829.166,990.368h-13.969c-0.926,0-1.682-0.758-1.682-1.684l0,0c0-0.924,0.758-1.68,1.682-1.68h13.969
					c0.924,0,1.682,0.756,1.682,1.68l0,0C2830.847,989.61,2830.089,990.368,2829.166,990.368z"/>
			</g>
			<g>
				<polygon fill="#A6C7F9" points="2973.855,1301.155 2669.146,1301.155 2669.146,1121.112 2672.935,1121.112 2672.935,1297.366 
					2973.855,1297.366 				"/>
			</g>
			<g>
				<path fill="#A6C7F9" d="M2764.4,1236.045c-37.301-29.691-76.969,0-76.969,0v50.762h278.861V1155.59
					C2890.509,1157.506,2801.701,1265.737,2764.4,1236.045z"/>
				<path fill="#A6C7F9" d="M2690.625,1134.838h129.939c1.758,0,3.193-1.436,3.193-3.191s-1.438-3.191-3.193-3.191h-129.939
					c-1.756,0-3.191,1.436-3.191,3.191S2688.869,1134.838,2690.625,1134.838z"/>
				<path fill="#A6C7F9" d="M2690.625,1150.442h129.939c1.758,0,3.193-1.438,3.193-3.193s-1.438-3.193-3.193-3.193h-129.939
					c-1.756,0-3.191,1.438-3.191,3.193S2688.869,1150.442,2690.625,1150.442z"/>
				<path fill="#A6C7F9" d="M2690.044,1165.168h86.039c1.438,0,2.611-1.176,2.611-2.611v-1.16c0-1.438-1.176-2.613-2.611-2.613
					h-86.039c-1.438,0-2.611,1.176-2.611,2.613v1.16C2687.433,1163.995,2688.607,1165.168,2690.044,1165.168z"/>
			</g>
		</g>
		<g>
			<rect x="1236.413" y="29.994" fill="#D2E4FF" width="977.088" height="1473.557"/>
			<rect x="1330.822" y="112.418" fill="#F3F9FF" width="786.669" height="876.836"/>
			<circle fill="#F3F9FF" cx="1489.021" cy="1269.399" r="141.479"/>
			<path fill="#FFCD30" d="M1608.611,1269.399c0-66.047-53.538-119.598-119.585-119.598c-66.06,0-119.597,53.551-119.597,119.598
				s53.538,119.598,119.597,119.598c27.284,0,52.423-9.129,72.53-24.51l-72.53-95.088l111.755,42.652
				C1605.835,1298.803,1608.611,1284.428,1608.611,1269.399z"/>
			<circle fill="#F3F9FF" cx="1971.058" cy="1269.399" r="141.479"/>
			<path fill="#FFCD30" d="M1971.062,1149.801c-66.059,0-119.598,53.551-119.598,119.598c0,32.689,13.104,62.301,34.363,83.889
				l85.232-83.889l111.754,42.652c5.057-13.248,7.83-27.623,7.83-42.652C2090.646,1203.352,2037.107,1149.801,1971.062,1149.801z"/>
			<g>
				<path fill="#DD7C2C" d="M1953.583,1208.684h-50.908c-2,0-3.637,1.639-3.637,3.639l0,0c0,2,1.637,3.635,3.637,3.635h50.908
					c2,0,3.637-1.635,3.637-3.635l0,0C1957.22,1210.323,1955.583,1208.684,1953.583,1208.684z"/>
				<path fill="#DD7C2C" d="M1953.583,1220.2h-50.908c-2,0-3.637,1.637-3.637,3.637s1.637,3.637,3.637,3.637h50.908
					c2,0,3.637-1.637,3.637-3.637S1955.583,1220.2,1953.583,1220.2z"/>
				<path fill="#DD7C2C" d="M1923.699,1231.715h-21.023c-2,0-3.637,1.635-3.637,3.635s1.637,3.639,3.637,3.639h21.023
					c2,0,3.635-1.639,3.635-3.639S1925.699,1231.715,1923.699,1231.715z"/>
			</g>
			<g>
				<path fill="#DD7C2C" d="M1470.566,1208.684h-50.908c-2,0-3.636,1.639-3.636,3.639l0,0c0,2,1.636,3.635,3.636,3.635h50.908
					c2,0,3.636-1.635,3.636-3.635l0,0C1474.203,1210.323,1472.566,1208.684,1470.566,1208.684z"/>
				<path fill="#DD7C2C" d="M1470.566,1220.2h-50.908c-2,0-3.636,1.637-3.636,3.637s1.636,3.637,3.636,3.637h50.908
					c2,0,3.636-1.637,3.636-3.637S1472.566,1220.2,1470.566,1220.2z"/>
				<path fill="#DD7C2C" d="M1440.682,1231.715h-21.022c-2,0-3.636,1.635-3.636,3.635s1.636,3.639,3.636,3.639h21.022
					c2,0,3.637-1.639,3.637-3.639S1442.682,1231.715,1440.682,1231.715z"/>
			</g>
			<g>
				<rect x="1400.872" y="425.783" fill="#A6C7F9" width="83.013" height="517.116"/>
				<rect x="1536.869" y="281.641" fill="#A6C7F9" width="83.013" height="661.258"/>
				<rect x="1685.263" y="550.837" fill="#A6C7F9" width="83.014" height="392.062"/>
				<rect x="1829.662" y="369.924" fill="#A6C7F9" width="83.012" height="572.975"/>
				<rect x="1974.81" y="627.574" fill="#A6C7F9" width="83.014" height="315.325"/>
			</g>
			<g>
				<path fill="#A6C7F9" d="M1908.736,295.378h-70.303c-4,0-7.271,3.272-7.271,7.272s3.271,7.272,7.271,7.272h70.303
					c4,0,7.271-3.272,7.271-7.272S1912.736,295.378,1908.736,295.378z"/>
				<path fill="#A6C7F9" d="M1854.447,321.842h-16.014c-4,0-7.271,3.272-7.271,7.272s3.271,7.272,7.271,7.272h16.014
					c4,0,7.271-3.272,7.271-7.272S1858.447,321.842,1854.447,321.842z"/>
				<path fill="#A6C7F9" d="M1619.047,182.755h-70.301c-4,0-7.272,3.272-7.272,7.272s3.272,7.272,7.272,7.272h70.301
					c4,0,7.272-3.272,7.272-7.272S1623.047,182.755,1619.047,182.755z"/>
				<path fill="#A6C7F9" d="M1564.757,209.219h-16.011c-4,0-7.272,3.272-7.272,7.272l0,0c0,4,3.272,7.272,7.272,7.272h16.011
					c4,0,7.272-3.272,7.272-7.272l0,0C1572.03,212.491,1568.757,209.219,1564.757,209.219z"/>
				<path fill="#A6C7F9" d="M1761.921,473.656h-70.301c-4,0-7.273,3.271-7.273,7.271s3.273,7.272,7.273,7.272h70.301
					c4,0,7.271-3.272,7.271-7.272S1765.921,473.656,1761.921,473.656z"/>
				<path fill="#A6C7F9" d="M1707.63,500.12h-16.01c-4,0-7.273,3.271-7.273,7.271l0,0c0,4,3.273,7.272,7.273,7.272h16.01
					c4,0,7.273-3.272,7.273-7.272l0,0C1714.904,503.392,1711.63,500.12,1707.63,500.12z"/>
				<path fill="#A6C7F9" d="M2051.466,550.837h-70.301c-4,0-7.273,3.273-7.273,7.273s3.273,7.271,7.273,7.271h70.301
					c4,0,7.273-3.272,7.273-7.271C2058.74,554.11,2055.466,550.837,2051.466,550.837z"/>
				<path fill="#A6C7F9" d="M1997.177,577.301h-16.012c-4,0-7.273,3.273-7.273,7.273s3.273,7.271,7.273,7.271h16.012
					c4,0,7.271-3.272,7.271-7.271C2004.449,580.574,2001.177,577.301,1997.177,577.301z"/>
			</g>
		</g>
		<g>
			<rect x="390.449" y="588.556" fill="#AED3FF" width="714.111" height="402.025"/>
			<rect x="413.669" y="588.556" fill="#D2E4FF" width="714.111" height="402.025"/>
			<circle fill="#F3F9FF" cx="608.972" cy="780.485" r="129.119"/>
			<g>
				<path fill="#F3F9FF" d="M1047.505,708.354H833.605c-7.753,0-14.095,6.343-14.095,14.095l0,0c0,7.752,6.342,14.094,14.095,14.094
					h213.899c7.752,0,14.094-6.342,14.094-14.094l0,0C1061.599,714.698,1055.257,708.354,1047.505,708.354z"/>
				<path fill="#F3F9FF" d="M1047.505,766.391H833.605c-7.753,0-14.095,6.343-14.095,14.095l0,0c0,7.752,6.342,14.094,14.095,14.094
					h213.899c7.752,0,14.094-6.342,14.094-14.094l0,0C1061.599,772.733,1055.257,766.391,1047.505,766.391z"/>
				<path fill="#F3F9FF" d="M1047.505,824.425H833.605c-7.753,0-14.095,6.343-14.095,14.094c0,7.752,6.342,14.095,14.095,14.095
					h213.899c7.752,0,14.094-6.343,14.094-14.095C1061.599,830.768,1055.257,824.425,1047.505,824.425z"/>
			</g>
			<path fill="#009E76" d="M490.754,778.609h118.22V660.389C543.688,660.389,490.754,713.321,490.754,778.609z"/>
			<path fill="#FFCD30" d="M727.192,782.414H608.975h-0.002H490.754c0,65.288,52.931,118.217,118.218,118.219l0,0l0,0
				c0.001,0,0.001,0,0.002,0l0,0C674.261,900.631,727.192,847.702,727.192,782.414z"/>
			<g>
				<path fill="#82B378" d="M588.554,717.831h-64.159c-3.65,0-6.638,2.987-6.638,6.638s2.987,6.638,6.638,6.638h64.159
					c3.651,0,6.638-2.986,6.638-6.638S592.205,717.831,588.554,717.831z"/>
				<path fill="#82B378" d="M539.007,741.983h-14.612c-3.65,0-6.638,2.986-6.638,6.637s2.987,6.637,6.638,6.637h14.612
					c3.65,0,6.638-2.986,6.638-6.637S542.658,741.983,539.007,741.983z"/>
			</g>
			<g>
				<path fill="#DD8936" d="M683.808,811.315h-64.159c-3.65,0-6.638,2.985-6.638,6.637c0,3.65,2.987,6.637,6.638,6.637h64.159
					c3.65,0,6.638-2.986,6.638-6.637C690.445,814.301,687.458,811.315,683.808,811.315z"/>
				<path fill="#DD8936" d="M634.261,835.467h-14.611c-3.65,0-6.638,2.987-6.638,6.638l0,0c0,3.649,2.987,6.638,6.638,6.638h14.611
					c3.65,0,6.638-2.987,6.638-6.638l0,0C640.898,838.454,637.911,835.467,634.261,835.467z"/>
			</g>
		</g>
		<g>
			<path fill="#AED3FF" d="M340.153,1062.573v411.148h714.11v-411.148H340.153z"/>
			<path fill="#D2E4FF" d="M363.373,1062.573v411.148h714.111v-411.148H363.373z"/>
			<circle fill="#F3F9FF" cx="558.668" cy="1255.452" r="129.119"/>
			<g>
				<path fill="#F3F9FF" d="M783.301,1211.51h213.9c7.752,0,14.094-6.344,14.094-14.096s-6.342-14.094-14.094-14.094h-213.9
					c-7.752,0-14.094,6.342-14.094,14.094S775.549,1211.51,783.301,1211.51z"/>
				<path fill="#F3F9FF" d="M997.201,1241.356h-213.9c-7.752,0-14.094,6.344-14.094,14.096s6.342,14.094,14.094,14.094h213.9
					c7.752,0,14.094-6.342,14.094-14.094S1004.953,1241.356,997.201,1241.356z"/>
				<path fill="#F3F9FF" d="M997.201,1299.391h-213.9c-7.752,0-14.094,6.344-14.094,14.096l0,0c0,7.75,6.342,14.094,14.094,14.094
					h213.9c7.752,0,14.094-6.344,14.094-14.094l0,0C1011.295,1305.735,1004.953,1299.391,997.201,1299.391z"/>
			</g>
			<path fill="#FFCD30" d="M558.67,1257.547l-118.209-1.504c-0.011,0.498-0.011,1.006-0.011,1.504
				c0,65.287,52.932,118.221,118.22,118.221c23.341,0,45.1-6.771,63.429-18.453L558.67,1257.547z"/>
			<g>
				<path fill="#DD8936" d="M563.024,1294.772h-64.16c-3.65,0-6.638,2.986-6.638,6.637v0.002c0,3.648,2.987,6.637,6.638,6.637h64.16
					c3.649,0,6.637-2.986,6.637-6.637v-0.002C569.661,1297.758,566.674,1294.772,563.024,1294.772z"/>
				<path fill="#DD8936" d="M513.477,1318.924h-14.612c-3.65,0-6.638,2.986-6.638,6.637s2.987,6.639,6.638,6.639h14.612
					c3.65,0,6.638-2.988,6.638-6.639S517.127,1318.924,513.477,1318.924z"/>
			</g>
		</g>
		<g>
			<rect x="340.153" y="150.104" fill="#AED3FF" width="714.12" height="372.571"/>
			<rect x="363.373" y="150.104" fill="#D2E4FF" width="714.111" height="372.571"/>
			<circle fill="#F3F9FF" cx="558.669" cy="341.863" r="129.119"/>
			<path fill="#009E76" d="M558.672,223.655c-65.288,0-118.22,52.921-118.22,118.209c0,44.724,24.845,83.65,61.482,103.729
				c18.938-35.077,56.737-103.729,56.737-103.729l55.975,104.138c37.058-19.956,62.234-59.104,62.234-104.138
				C676.881,276.576,623.96,223.655,558.672,223.655z"/>
			<g>
				<path fill="#F3F9FF" d="M997.203,269.734h-213.9c-7.751,0-14.094,6.342-14.094,14.094l0,0c0,7.751,6.343,14.094,14.094,14.094
					h213.9c7.751,0,14.094-6.342,14.094-14.094l0,0C1011.297,276.076,1004.954,269.734,997.203,269.734z"/>
				<path fill="#F3F9FF" d="M997.203,327.769h-213.9c-7.751,0-14.094,6.342-14.094,14.094c0,7.752,6.343,14.094,14.094,14.094h213.9
					c7.751,0,14.094-6.342,14.094-14.094C1011.297,334.111,1004.954,327.769,997.203,327.769z"/>
				<path fill="#F3F9FF" d="M997.203,385.803h-213.9c-7.751,0-14.094,6.343-14.094,14.095c0,7.751,6.343,14.094,14.094,14.094h213.9
					c7.751,0,14.094-6.342,14.094-14.094S1004.954,385.803,997.203,385.803z"/>
			</g>
			<g>
				<path fill="#82B378" d="M563.025,285.403h-64.16c-3.65,0-6.637,2.987-6.637,6.637s2.986,6.637,6.637,6.637h64.16
					c3.649,0,6.637-2.987,6.637-6.637S566.676,285.403,563.025,285.403z"/>
				<path fill="#82B378" d="M513.479,309.555h-14.612c-3.65,0-6.637,2.987-6.637,6.637l0,0c0,3.651,2.986,6.637,6.637,6.637h14.612
					c3.65,0,6.637-2.986,6.637-6.637l0,0C520.115,312.542,517.129,309.555,513.479,309.555z"/>
			</g>
		</g>
	</g>
	<g>
		<path fill="#CE6211" d="M1243.123,793.528c0,0,83.299,85.992,87.297,118.417c3.997,32.426-39.631,83.15-39.631,83.15
			L1243.123,793.528z"/>
		<path fill="#163560" d="M1207.508,1685.594c0,0-2.834,45.715-11.679,46.371c-1.176,0.086-44.858,0.086-44.858,0.086l-55.762-0.322
			c0,0,0.365-13.436,16.665-16.275c16.299-2.84,43.581-14.297,53.455-35.84C1175.716,1656.952,1207.508,1685.594,1207.508,1685.594z
			"/>
		<path fill="#163560" d="M1331.708,1685.594c0,0-2.834,45.715-11.679,46.371c-1.176,0.086-44.858,0.086-44.858,0.086l-55.93-0.197
			c0,0,0.532-13.561,16.833-16.4c16.3-2.84,43.582-14.297,53.456-35.84C1299.917,1656.952,1331.708,1685.594,1331.708,1685.594z"/>
		<path fill="#163560" d="M1145.752,1195.368c0,0,14.584,93.273,68.988,258.852s61.818,237.277,61.818,237.277
			s14.717,2.135,30.261,2.135c9.833,0,28.104-3.771,28.104-3.771s0.498-180.955-24.575-264.219
			c-25.072-83.264-5.41-300.172-5.41-300.172L1145.752,1195.368z"/>
		<path fill="#1C468A" d="M1117.352,1130.581c0,0-2.064,140.559,22.255,313.141c24.318,172.58,16.075,245.84,16.075,245.84
			s20.021,3.586,27.056,3.82c7.528,0.25,31.19-1.885,31.19-1.885s34.81-172.646,24.829-259.027
			c-9.979-86.381,47.666-296.41,47.666-296.41L1117.352,1130.581z"/>
		<path fill="#FFB27D" d="M1230.107,801.653L1202.635,822l-39.703-8.358c0.549-3.62,3.17-18.627,5.558-32.218
			c0.144-0.802,0.288-1.604,0.423-2.387c2.044-11.565,3.81-21.5,3.81-21.5l37.083-18.482l13.826-6.891
			c-0.036,0.243-1.072,12.835-1.216,14.672C1219.821,779.478,1230.107,801.653,1230.107,801.653z"/>
		<path fill="#E58638" d="M1165.71,791.387c0.87-0.366,54.009-16.047,59.782-14.142c5.771,1.906,9.189,13.076,9.189,13.076
			l-86.917,19.649C1147.766,809.971,1154.605,796.062,1165.71,791.387z"/>
		<path fill="#FF7E33" d="M1308.802,1147.932c-9.007,41.09-158.913,45.963-197.553,8.664c-4.396-4.252-4.611-24.031-2.954-50.701
			c3.242-52.105,13.655-130.484,14.061-170.531c0.197-19.338,2.854-39.117,6.395-57.078c7.53-38.28,19.014-68.319,19.014-68.319
			s73.22-23.67,86.92-19.645C1300.688,809.714,1317.811,1106.84,1308.802,1147.932z"/>
		<path fill="#CC4B0A" d="M1108.295,1105.895c3.242-52.105,13.655-130.484,14.061-170.531c0.197-19.338,2.854-39.117,6.395-57.078
			l44.045-7.773C1172.795,870.512,1215.858,1046.405,1108.295,1105.895z"/>
		<path fill="#FFB27D" d="M1132.146,1033.266c0,0,3.002,7.178-3.304,11.994c-6.305,4.818-10.394,12.625-8.95,18.33
			c1.444,5.705,15.274,15.01,20.068,13.51s14.552-9.014,13.501-12.023c-1.051-3.008,6.563-26.406-5.125-35.412
			C1136.649,1020.657,1132.146,1033.266,1132.146,1033.266z"/>
		<path fill="#FF7E33" d="M1181.396,799.424c0,0-42.957,8.038-77.184,58.479c-34.227,50.44-56.745,87.94-50.439,106.12
			c6.305,18.18,63.776,81.229,73.685,81.229s25.897-7.205,26.797-23.418c0,0-40.463-60.645-32.492-69.729
			c3.406-3.881,52.532-43.762,59.546-25.746C1192.914,956.163,1181.396,799.424,1181.396,799.424z"/>
		<path fill="#FCA56B" d="M1219.632,747.412c-8.143,15.583-38.487,29.057-51.143,34.011c0.144-0.802,0.288-1.604,0.423-2.387
			c2.044-11.565,3.81-21.5,3.81-21.5l37.083-18.482C1218.001,738.927,1222.991,740.999,1219.632,747.412z"/>
		<path fill="#FFB27D" d="M1160.774,758.38c0,0,54.894,17.124,65.03-17.226c10.138-34.35,24.051-55.272-10.568-67.657
			c-34.62-12.386-45.329-1.297-51.501,9.345C1157.563,693.484,1146.757,753.041,1160.774,758.38z"/>
		<path fill="#163560" d="M1165.892,679.533c0,0,3.501,39.971,11.768,38.235c8.266-1.734,15.763-3.021,14.553,9.027
			s-12.673,25.962,12.802,28.094c25.476,2.133,62.099-63.566,55.1-76.007C1239.92,642.992,1136.706,635.749,1165.892,679.533z"/>
	</g>
	<g>
		<polygon fill="#FFB27D" points="177.569,1608.375 194.281,1678.76 219.313,1678.62 220.231,1608.375 		"/>
		<polygon fill="#FFB27D" points="388.131,1611.375 435.681,1678.76 454.214,1654.965 425.595,1602.112 		"/>
		<path fill="#163560" d="M264.506,683.448c-8.641-4.912-18.998-5.448-26.241-5.021c1.865-1.925,5.534-2.627,5.534-2.627
			c-4.492-0.667-14.518,3.788-14.518,3.788c-62.48-24.075-72.301,67.922-70.987,89.296c1.303,21.371-20.996,28.352-53.503,45.19
			c-62.022,32.131-67.47,75.156-67.47,75.156c0.483,0.283,0.987,0.609,1.524,0.979c3.077-5.213,9.412-15.003,14.753-16.479
			c-0.202,0.474-6.313,13.479-8.593,20.93c18.298,13.92,52.527,44.76,76.383,66.627c-0.106-4.273,0.063-10.342,1.625-13.545
			l2.947,17.748c12.765,11.734,21.569,19.99,21.569,19.99c-1.577-17.271,78.115-108.417,119.691-135.714
			c10.122-14.899,13.719-41.223,13.988-43.295c-1.747,20.871-5.318,32.578-8.509,39.17
			C307.908,813.237,287.412,696.463,264.506,683.448z"/>
		<path fill="#FFB27D" d="M264.761,851.124c0.208,0.093-20.075,10.625-35.331,6.452c-14.351-3.913-23.728-22.521-23.53-22.563
			c6.078-1.207,7.83-9.559,7.701-45.446l2.748,0.541l46.196,9.147c0,0-1.051,14.538-1.082,28.233
			C261.431,838.99,262.128,849.896,264.761,851.124z"/>
		<path fill="#E37970" d="M212.52,698.512c0,0,22.789-24.261,51.399-1.241C263.919,697.271,247.269,694.391,212.52,698.512z"/>
		<path fill="#D68D5D" d="M262.544,799.256c0,0-1.051,14.538-1.082,28.233c-25.851-0.729-39.515-24.311-45.114-37.381
			L262.544,799.256z"/>
		<path fill="#163560" d="M211.578,785.08c0,0-13.547-21.405-16.798-39.708c-2.322-13.067,4.334-61.504,53.007-54.528
			c0,0,14.137,1.394,27.425,10.368c10.568,7.138,25.819,22.547,8.767,64.813l-4.43,14.277L211.578,785.08z"/>
		<path fill="#092978" d="M446.669,1636.495l-24.487,0.748l-26.506,0.813c0,0-61.223-68.164-95.565-177.436
			c-0.802-2.539-1.645-5.111-2.54-7.713c-18.795-54.803-57.758-123.592-78.291-185.855c-3.268-9.916-6.203-19.252-8.835-28.088
			c-0.843-2.83-1.665-5.609-2.446-8.346c-15.131-52.574-19.513-87.094-23.55-123.977l148.266,1.188
			C332.714,1107.829,356.65,1359.672,446.669,1636.495z"/>
		<path fill="#E7F1FD" d="M311.958,1022.631c-0.374,70.555,10.35,100.824,10.35,100.824s-63.48,32.252-138.931,8.512
			c-0.889-0.279-62.473-14.336-62.473-14.336c1.264-2.854,12.492-50.402,13.722-53.021c15.929-34.209,28.025-49.209,29.915-59.727
			c3.504-19.633,3.581-39.949,1.834-59.109c-4.603-50.723-18.295-92.827-18.295-92.827c20.558-4.679,40.342-12.679,61.739-20.702
			c4.922,6.128,19.435,12.323,32.486,12.03c15.029-0.331,19.723-6.687,19.171-13.847c16.016,8.912,28.747,17.389,28.747,17.389
			c13.612,23.644,41.218,46.603,43.217,82.875C333.935,939.61,311.969,1020.657,311.958,1022.631z"/>
		<path fill="#5F9AA8" d="M184.447,1030.497c-6.481,9.174-18.907,64.928-49.821,71.936c15.929-39.734,28.025-57.158,29.915-69.375
			c3.504-22.807,3.581-46.404,1.834-68.662c10.349-18.139,18.072-30.572,18.072-30.572c0.813-2.936,16.446-51.271,21.456-8.064
			C210.901,968.975,191.687,1020.237,184.447,1030.497z"/>
		<path fill="#FFB27D" d="M271.178,812.225c0,0-61.162,1.01-61.204-37.089c-0.042-38.098-7.965-63.626,31.084-65.881
			c39.049-2.255,46.652,12.274,49.759,24.987C293.924,746.954,287.086,810.979,271.178,812.225z"/>
		<path fill="#163560" d="M288.998,713.058c-9.438-11.439-16.576-8.953-20.583-5.517c-13.217-19.75-54.991,8.812-54.991,8.812
			c-4.091,27.336-23.804,42.996-23.804,42.996s11.148,6.887,36.848,0.277c20.226-5.201,34.903-33.988,40.239-46.018
			c3.637,3.232,11.312,10.704,13.612,18.021c3.049,9.702,4.42,29.674,10.241,28.994C290.56,760.624,303.177,730.244,288.998,713.058
			z"/>
		<path fill="#FFB27D" d="M193.44,1674.827c0,0,2.016,13.941-3.187,28.857c0,0-4.098,18.668,14.288,19.016
			c18.386,0.346,22.895-1.389,20.813-12.836c-2.081-11.447-6.041-31.244-6.041-31.244L193.44,1674.827z"/>
		<path fill="#C45446" d="M227.089,1731.86c0,0-0.02,0.01-0.06,0.041h-38.04c-0.04-0.031-0.06-0.041-0.06-0.041
			c-2.08-9.766,1.32-28.156,1.32-28.156c20.82,19.904,33.85-0.5,33.85-0.5C227.479,1711.715,227.089,1731.86,227.089,1731.86z"/>
		<path fill="#FFB27D" d="M498.52,1712.604c0,0-33.897-38.494-44.305-57.639l-25.205,12.912l56.341,52.912l13.183-1.734
			L498.52,1712.604z"/>
		<path fill="#C45446" d="M519.31,1731.793H472.28c-4.141-3.73-8.09-11.25-12.931-21.111c-2.77-5.648-8.979-8.76-15.35-10.469v31.58
			h-9.73l-9.01-33.58c-6-11.25-1.493-21.568,2.728-30.459c4.909-0.01,19.152,3.539,44.192,32.309
			c8.23,9.449,17.311,12.82,26.34,12.541c0.12,0.078,0.25,0.148,0.37,0.199C513.149,1719.342,517.799,1727.383,519.31,1731.793z"/>
		<path fill="#FFCD30" d="M517.029,875.454c0,0-40.15,22.449-54.49,28.919c-5.1,2.301-14.34,6.6-23.78,11.01
			c-5.7,2.66-11.47,5.371-16.46,7.721c-8.43,3.959-18.46,1.789-24.52-5.291c-21.739-25.383-78-80.399-136.103-87.296l-0.201-0.087
			c0,0,0.009,0.022,0.026,0.064c-0.024-0.003-0.049-0.006-0.073-0.009l0.321,0.625c3.266,8.122,35.117,87.703,36.104,104.486
			c1.04,17.691,4.162,289.311,4.162,289.311s-2.082,12.488,21.854,7.285c23.936-5.203,30.18-10.406,30.18-10.406
			s-22.895-167.551-16.65-225.828c1.225-11.436,0.119-24.289-2.438-37.559c35.385,21.432,77.106,30.967,77.106,30.967
			s15.56-6.791,39.739-21.771c10.15-6.301,21.923-16.342,33.511-26.963c14-12.834,38.09-43.838,38.09-43.838L517.029,875.454z"/>
		<path fill="#0C1570" d="M422.182,1637.243l-26.506,0.813c0,0-61.223-68.164-95.565-177.436c-0.802-2.539-1.645-5.111-2.54-7.713
			c-18.795-54.803-57.758-123.592-78.291-185.855c-3.268-9.916-6.203-19.252-8.835-28.088c-0.843-2.83-1.665-5.609-2.446-8.346
			l21.833-16.568c0,0,65.553,106.15,85.846,206.045C333.308,1506.868,403.908,1611.278,422.182,1637.243z"/>
		<path fill="#092978" d="M232.112,1429.397c0.375,48.58-2.082,160.266-8.409,206.504h-23.478c-12.977,0-19.45-0.188-19.45-0.188
			c-15.871-80.393-27.162-146.914-35.383-204.234c-6.743-47.037-12.738-87.365-17.348-122.082
			c-4.641-34.936-7.867-64.189-9.022-88.904c-0.177-3.895-0.312-7.682-0.385-11.355c-0.073-3.693-0.094-7.283-0.063-10.77
			l128.108-12.488C245.068,1270.997,231.904,1401.165,232.112,1429.397z"/>
		<path fill="#0C1570" d="M200.225,1635.901c-12.977,0-19.45-0.188-19.45-0.188c-15.871-80.393-27.162-146.914-35.383-204.234
			c-6.743-47.037-12.738-87.365-17.348-122.082c-4.641-34.936-7.867-64.189-9.022-88.904l47.007,27.648
			c0,0-30.003,10.584-18.555,90.719C158.921,1418.991,184.292,1624.557,200.225,1635.901z"/>
		<path fill="#FFCD30" d="M206.275,1219.704c0,0-9.022,32.604-40.243,28.439c-31.221-4.162-75.616-22.895-75.616-22.895
			s13.342-42.158,29.93-97.543c20.085-67.051,44.947-153.49,56.665-208.012c3.289-15.277,5.537-28.035,6.369-37.174l26.439-50.276
			c0,0,38.083,86.7,40.164,108.555C252.065,962.655,206.275,1219.704,206.275,1219.704z"/>
		<path fill="#FFB27D" d="M317.776,965.194c-15.026,1.975-20.789,9.961-22.644,20.732c-1.001,5.814-3.996,11.559-6.542,15.617
			c-14.968,0.803-50.613,2.744-80.561,4.639l-2.47,39.281c24.601-3.064,54.833-9.305,89.626-21.215
			c2.673-0.457,6.015-2.117,10.2-5.545c21.561-17.658,33.798-47.229,33.836-51.463S332.801,963.219,317.776,965.194z"/>
		<path fill="#EFB40F" d="M204.891,986.588c-1.395,35.385-9.72,104.068-83.952,140.836c-0.198,0.094-0.396,0.197-0.593,0.281
			c20.085-67.051,44.947-153.49,56.665-208.012C190.644,940.071,205.65,967.108,204.891,986.588z"/>
		<path fill="#FFCD30" d="M209.819,832.245c0,0-63.498,4.502-78.761,38.498c-15.263,33.996-20.12,147.083-0.694,180.384
			c0,0,26.745,7.617,74.048-1.229c0.58-0.107,1.163-0.219,1.748-0.332c0,0,15.09-36.945,1.561-44.229c0,0-39.893,2.08-35.73-11.102
			C176.154,981.055,209.819,832.245,209.819,832.245z"/>
		<g>
			<path fill="#FFB27D" d="M560.075,848.771c-34.163-4.39-42.785,26.685-42.785,26.685l6.378,21.342
				c10.53,1.453,19.745-1.291,28.235-13.439c8.489-12.149,10.828-7.484,16.225-16.525C575.452,854.568,563.996,850,560.075,848.771z
				"/>
			<path fill="#FFB27D" d="M462.54,904.374c-5.1,2.301-14.34,6.6-23.78,11.01c5.05,8.971,11.37,25.271,13.05,52.211
				c10.15-6.301,23.292-16.787,34.511-27.797c18-17.666,37.09-43.004,37.09-43.004l-6.38-21.339
				C517.029,875.454,476.879,897.903,462.54,904.374z"/>
		</g>
	</g>
	<g>
		<g>
			<path fill="#E49963" d="M2274.771,1151.903c0,0-24.293,6.238-39.734,1.586c-15.443-4.652-42.021,2.988-46.301,8.619
				s-2.707,7.867,4.93,9.813c7.639,1.943,34.697,13.484,52.479,6.805c17.783-6.68,40.979-6.924,40.979-6.924L2274.771,1151.903z"/>
			<path fill="#0053CC" d="M2484.72,940.879c0,0-27.291,193.955-72.477,211.328c-22.299,8.57-120.836,28.002-149.984,29.953
				c0,0-7.141-5.793-5.4-29.371c0,0,103.238-37.902,117.904-58.514c21.828-30.678-13.551-125.324,13.84-154.137
				C2415.994,911.329,2462.125,898.946,2484.72,940.879z"/>
		</g>
		<path fill="#2B478B" d="M2481.232,1688.204v-42.287h66.578c1.797,0,3.268-1.469,3.268-3.266v-6.775
			c0-1.797-1.471-3.268-3.268-3.268h-66.578v-240.725c0-6.756-5.525-12.281-12.279-12.281h-13.176
			c-6.756,0-12.281,5.525-12.281,12.281v240.725h-66.576c-1.797,0-3.27,1.471-3.27,3.268v6.775c0,1.797,1.473,3.266,3.27,3.266
			h66.576v42.287c-48.17,3.643-86.766,20.982-97.592,43.391h232.92C2568,1709.186,2529.404,1691.844,2481.232,1688.204z"/>
		<path fill="#163560" d="M2475.521,1349.504c-7.959,13.504-17.166,26.158-26.656,38.141c-29.33,37.027-61.258,67.557-66.818,96.414
			c-1.105,5.752-2.861,11.945-5.156,18.473c-2.322,6.609-5.193,13.561-8.508,20.746c-12.447,27.035-31.061,57.328-49.645,84.863
			c-32.125,47.604-62.332,87.324-62.332,87.324l-55.398-2.361c2.219-5.553,26.381-71.279,58.703-151.602
			c13.127-32.607,27.084-67.291,40.549-100.738c1.795-4.467,3.588-8.916,5.363-13.324c4.117-10.236,8.17-20.313,12.125-30.125
			c30.352-75.422,54.523-135.479,54.523-135.479s121.307-45.951,133.902-16.176
			C2516.562,1270.211,2508.101,1294.264,2475.521,1349.504z"/>
		<path fill="#163560" d="M2254.675,1685.393c0,0-2.834,45.715-11.68,46.369c-1.176,0.088-44.857,0.088-44.857,0.088l-55.762-0.322
			c0,0,0.365-13.438,16.664-16.277s43.582-14.295,53.455-35.838C2222.882,1656.749,2254.675,1685.393,2254.675,1685.393z"/>
		<path fill="#163560" d="M2382.957,1554.793c0,0,38.533,24.762,34.793,32.803c-0.496,1.07-21.791,39.209-21.791,39.209
			l-27.467,48.529c0,0-11.555-6.867-6.088-22.484c5.467-15.615,8.766-45.021-5.232-64.145
			C2342.449,1568.588,2382.957,1554.793,2382.957,1554.793z"/>
		<path fill="#1C468A" d="M2330.82,1240.026c0,0-152.262,94.844-169.26,158.58c-16.996,63.738,202.545,199.711,202.545,199.711
			s24.078-21.244,28.328-36.824c0,0-99.236-118.893-120.762-145.541c-13.221-16.369,195.473-56.662,220.967-96.32
			c25.496-39.658,16.369-73.027,16.369-73.027L2330.82,1240.026z"/>
		<path fill="#FF7E33" d="M2618.175,1361.815h-311.621c-6.232,0-11.332,5.1-11.332,11.33v62.324c0,6.232,5.1,11.332,11.332,11.332
			h311.621c6.232,0,11.332-5.1,11.332-11.332v-62.324C2629.507,1366.915,2624.408,1361.815,2618.175,1361.815z"/>
		<path fill="#E49963" d="M2401.228,907.631c-14.955,9.264-23.195,21.021-23.195,21.021c36.477,9.436,96.947-24.365,96.947-24.365
			s-23.479-15.777-32.178-50.442c-0.439-1.749-0.842-3.542-1.195-5.377c-1.141-5.838-1.848-12.159-1.975-18.979l-16.758,15.011
			l-27.863,24.962c0,0,0.633,10.359,4.119,28.175C2399.736,900.745,2400.431,904.081,2401.228,907.631z"/>
		<path fill="#0053CC" d="M2513.433,1079.717c-5.225,70.273,3.564,177.111-2.363,195.621c-5.115,15.969-65.314,6.518-88.58,1.186
			c-8.611-1.975-19.041-4.793-29.814-8.125c-30.047-9.305-62.787-22.59-66.301-32.453c-0.135-0.387-0.252-0.766-0.324-1.135
			c-0.324-1.432-0.252-2.773,0.064-4.135c1.172-5.025,5.684-10.467,6.215-22.914c0.594-13.896,0.504-30.264,1.027-47.863
			c0.025-1.98,0.053-4.143,0.27-6.115l0.01-0.721c0.01-0.379,0.018-0.748,0.025-1.125c0.506-19.627,1.531-40.264,2.721-60.729
			c0.758-12.852,1.631-25.58,2.639-37.775c2.621-31.479,6.152-59.473,10.826-77.172c7.639-28.85,24.482-47.666,39.814-61.457
			l11.088-9.51c12.375,2.701,27.002,0.908,40.232-5.359c14.322-6.801,19.268-11.674,21.762-9.836
			C2495.814,915.618,2519.603,993.807,2513.433,1079.717z"/>
		<path fill="#0053CC" d="M2392.847,1268.54c-30.047-9.305-62.789-22.59-66.301-32.453c-0.137-0.387-0.252-0.766-0.324-1.135
			c0.018-1.377,0.035-2.756,0.063-4.133c1.172-5.027,5.684-10.469,6.215-22.914c0.596-13.898,0.506-30.266,1.027-47.865
			c0.027-1.98,0.055-4.143,0.271-6.115l0.008-0.721c0.01-0.379,0.02-0.748,0.027-1.125l113.498-51.477
			C2447.332,1100.602,2453.871,1192.079,2392.847,1268.54z"/>
		<path fill="#D68D5D" d="M2395.011,869.46c0,0,0.633,10.359,4.119,28.175c27.207-8.791,39.551-33.367,43.672-43.791
			c1.172-2.944,1.68-4.765,1.68-4.765s-1.055-0.229-2.875-0.612c-3.824-0.813-11.025-2.341-18.73-3.97L2395.011,869.46z"/>
		<path fill="#E49963" d="M2383.998,869.187c0,0,59.773,6.742,63.4-30.547c3.625-37.29,13.781-61.533-24.229-67.416
			c-38.012-5.881-46.822,7.626-51.061,19.778S2368.541,866.472,2383.998,869.187z"/>
		<path fill="#2B478B" d="M2447.14,841.213c0,0-3.789-49.499-58.201-54.625c-37.27-3.512-16.49-35.589-12.52-40.705
			c0,0,28.555,3.915,57.824,8.751C2495.677,764.784,2453.173,833.507,2447.14,841.213z"/>
		<g>
			
				<rect x="2130.238" y="1060.937" transform="matrix(-0.951 0.3092 -0.3092 -0.951 4511.7656 1550.9272)" fill="#4A75CB" width="5.502" height="144.068"/>
			
				<rect x="2152.563" y="1191.487" transform="matrix(-0.9998 0.0214 -0.0214 -0.9998 4481.3965 2344.0435)" fill="#4A75CB" width="151.177" height="9.043"/>
		</g>
		<g>
			<path fill="#E49963" d="M2287.273,1181.719c0,0-23.457,8.881-39.318,5.959s-41.436,7.604-45.066,13.672
				c-3.633,6.066-1.826,8.117,5.98,9.207c7.805,1.09,35.971,9.578,52.908,0.979c16.939-8.6,39.967-11.398,39.967-11.398
				L2287.273,1181.719z"/>
			<path fill="#064A8E" d="M2472.677,948.838c0,0-5.74,195.781-48.738,218.029c-21.215,10.979-117.012,41.154-145.766,46.307
				c0,0-7.736-4.969-8.607-28.596c0,0,98.434-49.053,110.736-71.158c18.314-32.895-27.285-123.064-3.238-154.721
				S2445.595,909.651,2472.677,948.838z"/>
		</g>
	</g>
	<path fill="#202F4E" d="M3134.148,1737.831H69.529c-1.644,0-2.99-1.346-2.99-2.99l0,0c0-1.645,1.346-2.99,2.99-2.99H3134.15
		c1.645,0,2.988,1.348,2.988,2.99l0,0C3137.138,1736.485,3135.792,1737.831,3134.148,1737.831z"/>
</g>
</svg>
