<svg xmlns="http://www.w3.org/2000/svg" xmlns:xlink="http://www.w3.org/1999/xlink" viewBox="0 0 605 431" xmlns:v="https://vecta.io/nano"><style><![CDATA[.q{fill:#fff}.r{enable-background:new}.s{opacity:.2}.t{fill:#e83c4a}.u{fill:#1a2e35}.v{stroke-miterlimit:10}.w{opacity:.4}.x{fill:none}.y{fill:#cc7a63}.z{fill:#007cff}.AA{fill:#f0f0f0}.AB{fill:#e1e1e1}.AC{opacity:.7}.AD{stroke-linejoin:round}.AE{stroke-linecap:round}.AF{fill:#fcb373}.AG{stroke:#fff}.AH{stroke:#1a2e35}.AI{stroke-width:.5}.AJ{stroke-dasharray:5.2301,5.2301}.AK{stroke-dasharray:4.7225,4.7225}]]></style><path d="M425.5 38.8c0-3.3-2.7-5.9-5.9-5.9-.6 0-1.2.1-1.7.3.1-.6.1-1.2.1-1.8 0-6.9-5.6-12.5-12.5-12.5-.8 0-1.6.1-2.3.2-1.9-3.2-5.4-5.3-9.4-5.3-6 0-10.9 4.8-11 10.8h-.2a10.07 10.07 0 0 0-10.1 10.1 10.07 10.07 0 0 0 10.1 10.1h37.1c3.2-.2 5.8-2.8 5.8-6z" class="AA"/><path d="M403.7 47.7V36.1h-9.4v11.6h-7.7L399 58.1l12.4-10.4z" class="AB"/><path d="M239.9 56.3c0-6.9-5.6-12.6-12.6-12.6a13.61 13.61 0 0 0-3.6.5 24.66 24.66 0 0 0 .3-3.9c0-14.7-11.9-26.6-26.6-26.6-1.7 0-3.3.2-4.9.5C188.3 7.5 181 3 172.6 3c-12.8 0-23.1 10.2-23.3 23h-.4c-11.8 0-21.5 9.6-21.5 21.5 0 11.8 9.6 21.5 21.5 21.5h78.8c6.7-.4 12.2-5.9 12.2-12.7z" class="AA"/><path d="M173.7 57.2v24.6h20V57.2h16.2L183.7 35l-26.3 22.2z" class="AB"/><g stroke="#e7e7e7" class="v x"><path d="M249.9 117.5v-33h101v32.7"/><path d="M301.9 53.5v63.9"/></g><path d="M319.3 40.9h-34.9c-.7 0-1.2.5-1.2 1.2V63c0 .7.5 1.2 1.2 1.2h34.9c.7 0 1.2-.5 1.2-1.2V42.1c0-.7-.5-1.2-1.2-1.2z" class="AA"/><path d="M318.8 63.3H285c-.2 0-.4-.2-.4-.4V44.1c0-.2.2-.4.4-.4h33.8c.2 0 .4.2.4.4v18.8c0 .2-.2.4-.4.4z" class="AB"/><use xlink:href="#B" class="AA"/><path d="M266.8 136.9H233c-.2 0-.4-.2-.4-.4v-18.8c0-.2.2-.4.4-.4h33.8c.2 0 .4.2.4.4v18.8c0 .2-.1.4-.4.4z" class="AB"/><use xlink:href="#B" x="52" class="AA"/><path d="M318.8 136.9H285c-.2 0-.4-.2-.4-.4v-18.8c0-.2.2-.4.4-.4h33.8c.2 0 .4.2.4.4v18.8c0 .2-.2.4-.4.4z" class="AB"/><use xlink:href="#B" x="101.1" class="AA"/><g class="AB"><path d="M367.9 136.9h-33.8c-.2 0-.4-.2-.4-.4v-18.8c0-.2.2-.4.4-.4h33.8c.2 0 .4.2.4.4v18.8c0 .2-.2.4-.4.4z"/><path d="M301.2 74.5l-9.3 9.3c-.4.4-.4 1 0 1.4l9.3 9.3c.4.4 1 .4 1.4 0l9.3-9.3c.4-.4.4-1 0-1.4l-9.3-9.3c-.4-.3-1-.3-1.4 0z" class="r"/><path d="M104.9 84.3H80.3c-.5 0-.9-.4-.9-.9v-14c0-.5.4-.9.9-.9h24.6c.5 0 .9.4.9.9v14c0 .5-.4.9-.9.9z" opacity=".8"/><path d="M86.4 114.5H66.9c-.5 0-.9-.4-.9-.9v-10.3c0-.5.4-.9.9-.9h19.6c.5 0 .9.4.9.9v10.3c-.1.5-.5.9-1 .9zm32.4 0H99.2c-.5 0-.9-.4-.9-.9v-10.3c0-.5.4-.9.9-.9h19.6c.5 0 .9.4.9.9v10.3c-.1.5-.5.9-.9.9z"/><use xlink:href="#C"/><use xlink:href="#C" x="14.2"/><use xlink:href="#C" x="28.4"/><path d="M66 138.2h-9.4c-.5 0-.9-.4-.9-.9v-8.5c0-.5.4-.9.9-.9H66c.5 0 .9.4.9.9v8.5c0 .5-.4.9-.9.9zm15.4 0H72c-.5 0-.9-.4-.9-.9v-8.5c0-.5.4-.9.9-.9h9.4c.5 0 .9.4.9.9v8.5c0 .5-.4.9-.9.9z"/><path d="M107.8 102.4h1.2V94H93.2v-9.7H92V94H76.3v8.4h1.2v-7.2h30.3zm-31.5 19.4H60.5v6.1h1.2V123h14.6v4.9h1.2v-13.4h-1.2zM109 123v-8.5h-1.2v8.5H93.2v4.9h1.2v-3.7h13.4v3.7h1.2v-3.7h13.3v3.7h1.2V123z"/></g><path d="M458.2 72.3V81l4.5.4c.6 2.9 1.8 5.6 3.3 8l-2.9 3.5 6.2 6.2 3.5-2.9c2.4 1.6 5.1 2.7 8 3.3l.4 4.5h8.7l.4-4.5c2.9-.6 5.6-1.8 8-3.3l3.5 2.9 6.2-6.2-2.9-3.5c1.6-2.4 2.7-5.1 3.3-8l4.6-.4v-8.7l-4.5-.4c-.6-2.9-1.8-5.6-3.3-8l2.9-3.5-6.2-6.2-3.5 2.9c-2.4-1.6-5.1-2.7-8-3.3l-.4-4.5h-8.7l-.4 4.5c-2.9.6-5.6 1.8-8 3.3l-3.5-2.9-6.2 6.2 2.9 3.5c-1.6 2.4-2.7 5.1-3.3 8l-4.6.4zm27.4-7.4c6.5 0 11.8 5.3 11.8 11.8s-5.3 11.8-11.8 11.8-11.8-5.3-11.8-11.8c0-6.6 5.3-11.8 11.8-11.8zm-21.7 70.9a19.51 19.51 0 0 0 6.3-2.6l2.7 2.3 4.8-4.8-2.3-2.7a19.51 19.51 0 0 0 2.6-6.3l3.5-.3v-6.8l-3.5-.3a19.51 19.51 0 0 0-2.6-6.3l2.3-2.7-4.8-4.8-2.7 2.3a19.51 19.51 0 0 0-6.3-2.6l-.3-3.5h-6.8l-.3 3.5a19.51 19.51 0 0 0-6.3 2.6l-2.7-2.3-4.8 4.8 2.3 2.7a19.51 19.51 0 0 0-2.6 6.3l-3.5.3v6.8l3.5.3a19.51 19.51 0 0 0 2.6 6.3l-2.3 2.7 4.8 4.8 2.7-2.3a19.51 19.51 0 0 0 6.3 2.6l.3 3.5h6.8l.3-3.5zm-13-18c0-5.1 4.1-9.2 9.2-9.2s9.2 4.1 9.2 9.2-4.1 9.2-9.2 9.2-9.2-4.1-9.2-9.2zm-2.2-18.9l2.3 1.9 4-4-1.9-2.3c1-1.6 1.8-3.4 2.2-5.3l2.9-.3v-5.7l-2.9-.3c-.4-1.9-1.2-3.7-2.2-5.3l1.9-2.3-4-4-2.3 1.9c-1.6-1-3.4-1.8-5.3-2.2l-.3-2.9h-5.7l-.3 2.9c-1.9.4-3.7 1.2-5.3 2.2l-2.3-1.9-4 4 1.9 2.3c-1 1.6-1.8 3.4-2.2 5.3l-2.9.3v5.7l2.9.3c.4 1.9 1.2 3.7 2.2 5.3l-1.9 2.3 4 4 2.3-1.9c1.6 1 3.4 1.8 5.3 2.2l.3 2.9h5.7l.3-2.9c1.9-.4 3.7-1.2 5.3-2.2zM432.5 86c0-4.3 3.5-7.8 7.8-7.8s7.8 3.5 7.8 7.8-3.5 7.8-7.8 7.8c-4.4-.1-7.8-3.5-7.8-7.8zm15.1 226.4h81.3v52.9h-81.3z" fill="#f5f5f5"/><path d="M450.6 322.3H526v40.3h-75.4z" class="t"/><path d="M456.8 328.3h55.8v1.7h-55.8zm0 5.3h26.7v1.7h-26.7zm0 5.3h33.7v1.7h-33.7zm0 5.3h11.9v1.7h-11.9zm0 5.4h7.7v1.7h-7.7z" fill="#f5f5f5"/><path d="M54.72 312.336l57.9-.264.163 35.7-57.9.264z" class="t"/><path d="M77 339c-.2 0-.5-.1-.7-.2l-10.6-7.7c-.3-.2-.5-.6-.5-1s.2-.7.5-1l10.5-7.8c.5-.4 1.3-.3 1.7.2s.3 1.3-.2 1.7l-9.2 6.8 9.2 6.7c.5.4.7 1.2.3 1.7-.3.5-.7.6-1 .6zm13.7 0c-.4 0-.7-.2-1-.5-.4-.5-.3-1.3.2-1.7l9.2-6.8-9.2-6.7c-.5-.4-.7-1.2-.3-1.7s1.2-.7 1.7-.3l10.6 7.7c.3.2.5.6.5 1s-.2.7-.5 1l-10.5 7.8c-.2.1-.5.2-.7.2zm-9.6 0c-.1 0-.3 0-.4-.1-.6-.2-1-.9-.7-1.5l5.4-15.5c.2-.6.9-1 1.5-.7.6.2 1 .9.7 1.5l-5.4 15.5c-.2.5-.6.8-1.1.8z" fill="#fafafa"/><path d="M401.8 424h8.9l12.1-66.9h-8.9z" class="u"/><g class="q"><path d="M401.8 424h8.9l12.1-66.9h-8.9z" class="s"/><path d="M401.8 424h6.5l12.1-66.9h-6.5z" class="s"/></g><g class="u"><path d="M376.7 377h35.6c1.1 0 2-.9 2-2h0c0-1.1-.9-2-2-2h-35.6c-1.1 0-2 .9-2 2h0c.1 1.2 1 2 2 2zm-3.9 22.4h35.6c1.1 0 2-.9 2-2h0c0-1.1-.9-2-2-2h-35.6c-1.1 0-2 .9-2 2h0a1.94 1.94 0 0 0 2 2z"/><path d="M365.5 424h8.9l12.1-66.9h-8.9z"/></g><g class="q"><path d="M365.5 424h8.9l12.1-66.9h-8.9z" class="s"/><path d="M365.5 424h6.4l12.1-66.9h-6.4z" class="s"/></g><path d="M448.2 424h-8.9l-12.1-66.9h8.9z" class="u"/><g class="q"><path d="M448.2 424h-8.9l-12.1-66.9h8.9z" class="w"/><path d="M445.8 424h-6.5l-12.1-66.9h6.5z" class="s"/></g><g class="u"><use xlink:href="#D"/><use xlink:href="#E"/></g><g class="q"><use xlink:href="#D" class="s"/><use xlink:href="#E" class="s"/></g><path d="M411.9 424H403l-12.1-66.9h8.9z" class="u"/><g class="q"><path d="M411.9 424H403l-12.1-66.9h8.9z" class="w"/><path d="M409.5 424H403l-12.1-66.9h6.5z" class="s"/></g><path d="M439.8 360.3H375c-.7 0-1.2-.5-1.2-1.2v-4c0-.7.5-1.2 1.2-1.2h64.8c.7 0 1.2.5 1.2 1.2v4c0 .7-.5 1.2-1.2 1.2z" class="u"/><path d="M400 360.3h-25c-.7 0-1.2-.5-1.2-1.2v-4c0-.7.5-1.2 1.2-1.2h25c.7 0 1.2.5 1.2 1.2v4c0 .7-.6 1.2-1.2 1.2z" class="q s"/><path d="M150.9 370.3h81.3v52.9h-81.3z" class="z"/><path d="M150.9 370.3h81.3v52.9h-81.3z" opacity=".6" fill="#ededed" class="r"/><path d="M153.9 380.2h75.4v40.3h-75.4z" class="t"/><path d="M160 386.2h55.8v1.7H160zm0 5.3h26.7v1.7H160zm0 5.3h33.7v1.7H160zm0 5.4h11.9v1.7H160zm0 5.3h7.7v1.7H160z" class="q"/><path d="M332.7 424h-66.2l11.2-88h43.8z" class="z"/><path d="M332.7 424h-66.2l11.2-88h43.8l5.2 41z" opacity=".6" class="q"/><path d="M326.7 377l-52.5-13.2 3.5-27.8h43.8z" opacity=".1" class="r"/><use xlink:href="#F" class="z"/><use xlink:href="#F" class="q AC"/><path d="M146.1 126.8h307.1v203.8H146.1z" fill="#407bff"/><use xlink:href="#G" class="z"/><use xlink:href="#G" class="q AC"/><path d="M146.1 127h307.1v30.4H146.1z" class="r s"/><path d="M146.1 157.8h131.6v172.8H146.1z" class="q w"/><g class="v x AG"><path d="M405.9 202.4v2.5h-2.5"/><path d="M398.2 204.9h-102" class="AJ"/><path d="M293.6 204.9h-2.5v-2.5"/><path d="M291.1 197.7v-54.3" class="AK"/><path d="M291.1 141v-2.5h2.5"/><path d="M298.8 138.5h102" class="AJ"/><path d="M403.4 138.5h2.5v2.5"/><path d="M405.9 145.7V200" class="AK"/></g><path d="M404 136.6h3.8v3.8H404zm0 66.4h3.8v3.8H404zm-114.9-66.4h3.8v3.8h-3.8zm0 66.4h3.8v3.8h-3.8zm57.5-66.4h3.8v3.8h-3.8zm0 66.4h3.8v3.8h-3.8zm57.4-33.2h3.8v3.8H404zm-114.9 0h3.8v3.8h-3.8z" class="z v AG"/><path d="M395.9 172.9H367c-1 0-1.9-.8-1.9-1.9v-8.3c0-1 .8-1.9 1.9-1.9h28.9c1 0 1.9.8 1.9 1.9v8.3a1.97 1.97 0 0 1-1.9 1.9zm-48.5 0h-28.9c-1 0-1.9-.8-1.9-1.9v-8.3c0-1 .8-1.9 1.9-1.9h28.9c1 0 1.9.8 1.9 1.9v8.3c0 1-.8 1.9-1.9 1.9zm-62.3 147.2h-28.9c-1 0-1.9-.8-1.9-1.9v-8.3c0-1 .8-1.9 1.9-1.9h28.9c1 0 1.9.8 1.9 1.9v8.3c-.1 1.1-.9 1.9-1.9 1.9z" class="AC q"/><path d="M432.9 137.8h10.2m-10.2 4.9h10.2m-10.2 4.8h10.2" stroke-width="1.5" class="v x AD AE AG"/><path d="M166.9 184.6h103v103h-103z" opacity=".5" class="q"/><g stroke="#007cff" class="v x"><path d="M210 193v88.8"/><path d="M254.4 281.8h0c-24.5 0-44.4-19.9-44.4-44.4h0c0-24.5 19.9-44.4 44.4-44.4h0"/></g><g class="q"><path d="M252.5 191.1h3.8v3.8h-3.8zm0 88.8h3.8v3.8h-3.8zm-44.4-44.4h3.8v3.8h-3.8zM211 193c0 .5-.4 1-1 1a.94.94 0 0 1-1-1c0-.5.4-1 1-1a.94.94 0 0 1 1 1zm0 88.8c0 .5-.4 1-1 1a.94.94 0 0 1-1-1c0-.5.4-1 1-1s1 .5 1 1z" stroke="#007cff" class="v"/><path d="M380.7 309.5h-31.2a8.96 8.96 0 0 1-9-9h0a8.96 8.96 0 0 1 9-9h31.2a8.96 8.96 0 0 1 9 9h0c0 5-4.1 9-9 9zm27.4-76.8h-96.3c-1.1 0-2-.9-2-2h0c0-1.1.9-2 2-2h96.3c1.1 0 2 .9 2 2h0c-.1 1.1-1 2-2 2zm0 14.3h-96.3c-1.1 0-2-.9-2-2h0c0-1.1.9-2 2-2h96.3c1.1 0 2 .9 2 2h0c-.1 1.2-1 2-2 2zm0 14.4h-60c-1.1 0-2-.9-2-2h0c0-1.1.9-2 2-2h60c1.1 0 2 .9 2 2h0c-.1 1.1-1 2-2 2z" class="AC"/></g><path d="M155.8 135.5h6.8v6.8h-6.8zm18.6 6.8h-3.9c-.8 0-1.4-.6-1.4-1.4V137c0-.8.6-1.4 1.4-1.4h3.9c.8 0 1.4.6 1.4 1.4v3.9c0 .7-.6 1.4-1.4 1.4zm12.1 0h-1.7a2.65 2.65 0 0 1-2.6-2.6V138a2.65 2.65 0 0 1 2.6-2.6h1.7a2.65 2.65 0 0 1 2.6 2.6v1.7c-.1 1.4-1.2 2.6-2.6 2.6z" class="r w"/><g class="q"><path d="M176.6 303.2v-2.7l-1.4-.1c-.2-.9-.5-1.7-1-2.4l.9-1.1-1.9-1.9-1.1.9c-.7-.5-1.6-.8-2.4-1l-.1-1.4H167l-.1 1.4c-.9.2-1.7.5-2.4 1l-1.1-.9-1.9 1.9.9 1.1c-.5.7-.8 1.6-1 2.4l-1.4.1v2.7l1.4.1c.2.9.5 1.7 1 2.4l-.9 1.1 1.9 1.9 1.1-.9c.7.5 1.6.8 2.4 1l.1 1.4h2.7l.1-1.4c.9-.2 1.7-.5 2.4-1l1.1.9 1.9-1.9-.9-1.1c.5-.7.8-1.6 1-2.4l1.3-.1zm-8.3 2.3c-2 0-3.6-1.6-3.6-3.6s1.6-3.6 3.6-3.6 3.6 1.6 3.6 3.6-1.6 3.6-3.6 3.6z" opacity=".9"/><path d="M187.4 310.7v-2.1l-1.1-.1c-.1-.7-.4-1.3-.8-1.9l.7-.8-1.5-1.5-.8.7c-.6-.4-1.2-.7-1.9-.8l-.1-1.1h-2.1l-.1 1.1c-.7.1-1.3.4-1.9.8l-.8-.7-1.5 1.5.7.8c-.4.6-.7 1.2-.8 1.9l-1.1.1v2.1l1.1.1c.1.7.4 1.3.8 1.9l-.7.8 1.5 1.5.8-.7c.6.4 1.2.7 1.9.8l.1 1.1h2.1l.1-1.1c.7-.1 1.3-.4 1.9-.8l.8.7 1.5-1.5-.7-.8c.4-.6.7-1.2.8-1.9l1.1-.1zm-6.6 1.8c-1.6 0-2.8-1.3-2.8-2.8 0-1.6 1.3-2.8 2.8-2.8 1.6 0 2.8 1.3 2.8 2.8.1 1.5-1.2 2.8-2.8 2.8z" opacity=".6"/><path d="M176.6 316.6v-1.7l-.9-.1c-.1-.6-.4-1.1-.7-1.6l.6-.7-1.2-1.2-.7.6c-.5-.3-1-.5-1.6-.7l-.1-.9h-1.7l-.1.9c-.6.1-1.1.4-1.6.7l-.7-.6-1.2 1.2.6.7c-.3.5-.5 1-.7 1.6l-.9.1v1.7l.9.1c.1.6.4 1.1.7 1.6l-.6.7 1.2 1.2.7-.6c.5.3 1 .5 1.6.7l.1.9h1.7l.1-.9c.6-.1 1.1-.4 1.6-.7l.7.6 1.2-1.2-.6-.7c.3-.5.5-1 .7-1.6l.9-.1zm-5.5 1.5c-1.3 0-2.4-1.1-2.4-2.4s1.1-2.4 2.4-2.4 2.4 1.1 2.4 2.4c0 1.4-1.1 2.4-2.4 2.4z" class="w"/></g><g class="z"><path d="M405.2 137.8l5.1 13.7 8.6-8.6z"/><path d="M411.53 146.024l1.91-1.91 4.243 4.243-1.91 1.91z"/></g><path d="M418.9 142.9l-13.7-5.1 5.1 13.7 3.4-3.3 2.1 2.1 1.9-1.9-2.1-2.1z" class="q w"/><use xlink:href="#H" class="u"/><use xlink:href="#H" class="q s"/><path d="M191 126.8l-45.5 170.1V126.8zm51.3 0l-54.5 203.8h-37.6l54.6-203.8zm54.7 0l-54.6 203.8h-17L280 126.8zm50.3 0l-54.6 203.8h-6.1l54.6-203.8z" opacity=".1" class="q"/><path d="M532 171.8c4.3 5 26.2 47.1 21.9 56.9-4.2 9.8-39.3-1.5-39.3-1.5l2.1-13.9s13.6.5 14.9-.8-18.4-21-18.4-21l18.8-19.7z" class="t"/><path d="M553.9 228.7c-.5 1.1-1.4 2-2.6 2.6-.2.1-.5.2-.7.3h-.1c-.2.1-.4.2-.7.2-.9.3-1.9.5-3 .6-.3 0-.6.1-.9.1-.4 0-.9.1-1.3.1h-1.2c-11.7 0-28.8-5.5-28.8-5.5l2.1-13.9s13.6.5 14.9-.8c.3-.3-.6-1.7-2.2-3.7-3.9-4.7-11.6-12.6-14.8-15.8-.9-.9-1.4-1.5-1.4-1.5l18.7-19.7c4.4 5.1 26.3 47.2 22 57z" class="q r s"/><path d="M551.4 231.3c-.3.1-.5.2-.7.3h-.1c-.2.1-.4.2-.7.2-.9.3-1.9.5-3 .6-.3 0-.6.1-.9.1-.4 0-.9.1-1.3.1h-1.2c-11.7 0-28.8-5.5-28.8-5.5l2.1-13.9s15.3 1.3 16.6 0v-.1c.2-.5-1.5-2.2-4-4.4-3.9-4.7-11.6-12.6-14.8-15.8l8.9-9.5 6.7-.7c.1.1 15 24.2 21.2 48.6z" class="r s t"/><path d="M487.8 170.4c-2.4 1.8-3.6 4.3-2.7 5.6l64 88.2c1 1.3 3.7 1 6.1-.8s3.6-4.3 2.7-5.6l-64-88.2c-.9-1.3-3.7-.9-6.1.8z" class="u"/><path d="M493.9 169.6l64 88.2c1 1.3-.2 3.8-2.7 5.6-2.4 1.8-5.2 2.1-6.1.8l-64-88.2c-.5-.7-.4-1.8.2-2.9.3-.5.7-1.1 1.2-1.6.4-.4.8-.7 1.2-1 2.5-1.8 5.3-2.2 6.2-.9z" class="q AC"/><path d="M557.9 257.8c1 1.3-.2 3.8-2.7 5.6-2.4 1.8-5.2 2.1-6.1.8-.5-.7.8-1.8 1.6-3.4L485.4 173c.3-.5.7-1.1 1.2-1.6l64 88.2 1.2-1.1c2.4-1.6 5.2-2 6.1-.7z" opacity=".3" class="r"/><path d="M479.9 168c-2 2.2-2.7 4.9-1.6 6l79.6 74.5c1.2 1.1 3.8.2 5.9-2 2-2.2 2.7-4.9 1.6-6L485.8 166c-1.2-1.1-3.9-.2-5.9 2z" class="z"/><path d="M485.8 166l79.6 74.5c1.2 1.1.5 3.8-1.6 6s-4.7 3.1-5.9 1.9l-79.6-74.5c-.7-.6-.7-1.7-.3-2.9.2-.6.5-1.2.9-1.8.3-.4.6-.9 1-1.3 2-2.1 4.7-3 5.9-1.9z" class="q AC"/><path d="M565.3 240.5c1.2 1.1.5 3.8-1.6 6s-4.7 3.1-5.9 1.9c-.7-.6.4-1.9.9-3.6L478 171c.2-.6.5-1.2.9-1.8l79.6 74.5c.3-.4.6-.9 1-1.3 2-2.1 4.6-3 5.8-1.9z" opacity=".3" class="r"/><path d="M499 405.7l-6.1.1c-6.2-29-10.5-64.8-13.2-91.8l-1.7-17.1-1.5-18.6-.3-4.5h21.9l-.2 5.6-.7 18.4-.1 2.1-.5 12.2-.8 20.7c7.7 29.2 3.2 72.9 3.2 72.9zm49.2-1.6l-6 1.1c-12-29.9-23.2-68.1-30.5-94.9l-3.1-11.5c0-.2-.1-.4-.1-.5l-5.2-20.4 21.6-3.7 1.2 9.1 1.8 13.3.4 2.6 1.2 9.1 3.3 24.4c12.4 27.6 15.4 71.4 15.4 71.4z" class="AF"/><path d="M527.9 296.7l-19.3 2.2c0-.2-.1-.4-.1-.5l-4.1-16.1 21.8 1.1 1.7 13.3zM498 279.4l-.7 18.4-.1 2.1-18.6 2.1-.5-5.1-1.5-18.6 21.4 1.1z" class="r s"/><g class="t"><use xlink:href="#I"/><path d="M501.5 407.9c.4-2.9.5-7.9.5-7.9l-12 1.3s1.5 5.7.3 10c6-1.5 11.2-3.4 11.2-3.4z"/><use xlink:href="#I" x="48.9"/><path d="M550.4 407.9c.4-2.9.5-7.9.5-7.9l-12 1.3s1.5 5.7.3 10c6-1.5 11.2-3.4 11.2-3.4z"/></g><path d="M530 290.8l-23.8 3-4.7-17.2-1.2 18.5-24.5-1.3c-10.9-64 7.7-79.2 7.7-79.2l33.2 6.7c15 25.6 11.5 55.3 11.5 55.3l1.8 14.2z" fill="#0b3277"/><path d="M498.6 134.8c0 2.5-1.1 4.6-2.5 4.6s-2.5-2-2.5-4.6c0-2.5 1.1-4.6 2.5-4.6 1.3.1 2.5 2.1 2.5 4.6z" class="v x AD AH AI"/><path d="M515 150.1c-.1.1-.2.2-.3.2-1.3 1-2.9 1.9-4.6 2.3-4.9 1.1-8.3.5-10.4-1.8-3.1-3.3-3.8-9.2-3.4-16.3.2-3.3.7-6.1 1.6-8.3v-.1c0-.1.1-.2.1-.3 1.3-3.1 3.6-5.1 7.1-5.9a17.27 17.27 0 0 1 4.2-.5c13.8-.2 16.3 22.8 5.7 30.7z" class="AF"/><path d="M514.7 150.3c-1.3 1-2.9 1.7-4.6 2.1-4.9 1.1-8.3.3-10.4-2 2.4.5 5.7.7 8.8-.7 1.9-.9 4.1-.4 6.2.6z" class="r s"/><path d="M516.1 162.8c.9 4-4.3 5.6-4.3 5.6-8.4-3.6-9.9-8-9.9-8 7-3.6 5-13.9 5-13.9l1.4.7 10 2s-2.8 5.3-3.1 6.5c-2 6.3.9 7.1.9 7.1z" class="AF"/><path d="M497.7 126.1s-.8 9.7 8.5 13.9c0 0 4 10.1 9.8 10.3 7.9.2 15-11.1 12.2-22.6-3.6-15-26.2-16.3-30.5-1.6z" class="u"/><path d="M501.5 137.2c0-1.5 1.2-4.1 3.6-3.7s3.8 6.4-2.2 7.7c-.9.2-1.4-.9-1.4-4z" class="AF"/><g class="u"><path d="M514.7 115.7s-9.3-2.3-14.4 1.4c-6 4.4-8.3 8.9-1.2 15.9 0 0 15.6-5.1 20.8-4s8.9 2.6 8.9 2.6c1-10.3-8.9-18-14.1-15.9z"/><path d="M501.5 134.8s2.5 11.2-1.4 20.8c0 0 22 7.6 29.7 3.5 7.7-4.2.6-18.1.3-26.1s-3.8-19.9-15.5-17.3c-11.6 2.7-13.1 19.1-13.1 19.1z"/></g><path d="M493.6 134.1h9.3" class="v x AD AE AH AI"/><path d="M507.2 293.7l-.9.1-4.7-17.2s10.1-17.2 6.9-26.2c.5.6 11.3 16.7-1.3 43.3z" class="r s"/><path d="M488.3 162s11.1-4 27.8.9c16.7 4.8 17.3 11.9 17.3 11.9s-10.6 24-12.2 51.1l-43.5-1.6c-.1 0-5.3-38.3 10.6-62.3z" class="t"/><path d="M533.4 174.8s-10.6 24-12.3 51.2l-43.5-1.6s-.7-5.3-.8-13.3c-.1-5.5.2-12.3 1.2-19.5 1.5-10.1 4.4-20.8 10.3-29.6 0 0 11.1-3.9 27.8.9s17.3 11.9 17.3 11.9z" class="q r s"/><path d="M487.7 193.2s-1.8 11-10.9 17.9c-.1-5.5.2-12.3 1.2-19.5l9.7 1.6z" class="r s"/><path d="M439.6 161.2l-5.5-8.1s-.8-3.5-1.9-4.3-11.6-5.3-12.9-5.3-1.3 8.2 0 9.6 7.9 4.4 9.7 4.7c1.7.3.9 0 .9 0l4.9 9.7 4.8-6.3z" class="AF"/><use xlink:href="#J" class="t"/><use xlink:href="#J" class="q r s"/><path d="M499.5 160.4s3.9 27.7 16.1 28.8 17.7-19.3 15.7-21.8c-2.1-2.5-17.9-7.1-31.8-7z" class="t"/><path d="M499.5 160.4s3.9 27.7 16.1 28.8 17.7-19.3 15.7-21.8c-2.1-2.5-17.9-7.1-31.8-7z" opacity=".3" class="q r"/><path d="M63.9 414.9h9l.7-20.8h-9z" class="y"/><path d="M74.1 413.8H63.2c-.4 0-.7.3-.8.6l-1.8 8c-.2.7.3 1.4 1 1.6h.3c3.5-.1 6.1-.3 10.5-.3 2.7 0 11 .3 14.7.3 3.8 0 4.3-3.7 2.7-4.1-6.9-1.5-12.1-3.6-14.3-5.6-.3-.3-.8-.5-1.4-.5z" class="t"/><g class="q"><path d="M74.7 415.1c-.1 0-.1-.1-.2-.2 0-.1 0-.2.1-.2.3-.2 3.2-2 4.2-1.5.2.1.4.3.4.6.1.4-.1.9-.4 1.1-.5.3-1.1.5-1.7.5-.8 0-1.6-.1-2.4-.3zm.6-.3c1 .4 2.2.3 3.2-.2.2-.2.3-.5.3-.8 0-.2-.1-.3-.1-.3-.1 0-.2-.1-.3-.1-1.1.3-2.1.8-3.1 1.4z"/><path d="M74.7 415.1c-.1 0-.1-.1-.1-.2s.2-2.7 1.3-3.5c.2-.2.6-.3.9-.3s.6.2.7.6c.2.9-1.6 2.9-2.5 3.4h-.3zm1.4-3.5c-.6.8-1 1.8-1.1 2.8.9-.7 2.1-2.2 2-2.8 0-.1 0-.2-.3-.2h-.1c-.2 0-.4.1-.5.2z"/></g><path d="M64.6 394.1h9l-.4 10.7h-9z" class="r s"/><path d="M110.1 415.5l9.2 1 1.8-19.9-9.3-1z" class="y"/><path d="M120.3 413.5h-10.9c-.4 0-.7.3-.8.6l-1.8 8c-.2.7.3 1.4 1 1.6h.3c3.5-.1 6.1-.3 10.5-.3 2.7 0 11 .3 14.7.3s4.3-3.7 2.7-4.1c-6.9-1.5-12.1-3.6-14.3-5.6-.3-.3-.8-.5-1.4-.5z" class="t"/><g class="q"><path d="M120.9 414.8c-.1 0-.1-.1-.2-.2 0-.1 0-.2.1-.2.3-.2 3.2-2 4.2-1.5.2.1.4.3.4.6.1.4-.1.9-.4 1.1-.5.3-1.1.5-1.7.5-.8 0-1.6-.1-2.4-.3zm.6-.3c1 .4 2.2.3 3.2-.2.2-.2.3-.5.3-.8 0-.2-.1-.3-.1-.3-.1 0-.2-.1-.3-.1-1.1.4-2.1.8-3.1 1.4z"/><path d="M120.9 414.8c-.1 0-.1-.1-.1-.2s.2-2.7 1.3-3.5c.2-.2.6-.3.9-.3s.6.2.7.6c.2.9-1.6 2.9-2.5 3.4h-.3zm1.4-3.5c-.6.8-1 1.8-1.1 2.8.9-.7 2.1-2.2 2-2.8 0-.1 0-.2-.3-.2h-.1c-.2.1-.4.1-.5.2z"/></g><path d="M111.8 395.6l9.3 1-.9 10.2-9.3-.9z" class="r s"/><path d="M68.3 211.9h47.6c4.5 24.7 18.7 112.2 8.5 190.1l-16.1-2s1.5-103.4-12.7-141.7c-1.6 20.5-3.6 42.2-5.3 53.8l-13 90.8H60.9l4.9-87.7c1.7-30.4 2.5-97.1 2.5-103.3z" class="u"/><path d="M126.3 405.7l-19.9-3 .6-5.5 20.7 2.7zm-47-2.6H60v-5.8l20-.4z" class="t"/><path d="M95.6 258.3c2.1 5.6 3.8 12.7 5.3 20.6 1.3-18.2-4-37.5-4-37.5l-1.3 16.9z" class="r s"/><path d="M67 220.2l-1.1 5.7s33.3 4.3 54 4.2l-.7-4-52.2-5.9z" class="q"/><g class="y"><path d="M134.6 170.3s11.5 36.3 19.4 38.7 27.9-27.6 27.9-27.6 18-.2 18.8-1.4-4.7-13.9-6-13.9-16.9 5.9-17.6 6.9c-.6 1-18.5 18.1-19.4 17.7-.9-.5-7.7-22.1-7.7-22.1l-15.4 1.7z"/><path d="M184.2 179.5c.2 0 .3-.1.4-.1-.1 0-.1-.1-.2-.1 0 .1-.1.2-.2.2z"/></g><path d="M128.1 166.2l1.4 2.6 6.6 12.1 1.4 2.5 18.4-6.4s-7.6-28.6-10.3-31.5l-17.5 20.7z" class="t"/><path d="M128.1 166.2l1.4 2.6 6.6 12.1 1.4 2.5 18.4-6.4s-7.6-28.6-10.3-31.5l-17.5 20.7z" class="q r w"/><path d="M129.5 168.7l6.6 12.1c4-8 2.9-18.9 2.9-18.9l-9.5 6.8z" class="r s"/><path d="M145.5 145.5s-9.7-12.6-27.7-13.4-23.7.9-30.3 6.8c-9.6 8.6-21.6 82.6-21.6 82.6s25.2 7.8 54 5.9c0 0 .2-20.6 6.7-34.4 12.7-27 18.9-47.5 18.9-47.5z" class="t"/><path d="M112.5 134.5c1.9 5.6 9.2 8.1 13 8.4 5.3.5 6.9-3.7 6.9-3.7s-4.3-2.2-3.9-4.6c.3-1.4.9-2.8 1.8-4.1.4-.7 1-1.4 1.5-2l-7-14.9c-1.6 6.4-6.3 18.9-12.3 20.9z" class="y"/><path d="M124.5 120.5c-3.3 7.2 1.4 12.3 4 14.2.3-1.4.9-2.8 1.8-4.1l-5.8-10.1z" class="r s"/><path d="M147.9 101.1s2.2 12.3-4.2 17.2-7.1-18.1-7.1-18.1l11.3.9z" class="y"/><path d="M147.9 101.1s2.2 12.3-4.2 17.2-7.1-18.1-7.1-18.1l11.3.9z" class="r w"/><path d="M124.9 128.7c3.3 4.5 8.5 5.5 13 4 2.9-1 5.4-3.1 7-6l.6-1.2c3-7.6 3.7-26.3-4.5-25.6-6.7.6-13.2-1.5-16.6 4.3-1 1.6-1.5 3.5-1.7 5.4-.8 8.8-1.6 14 2.2 19.1z" class="y"/><path d="M135.7 113.9c-.2.7.2 1.3.7 1.4s.9-.5 1-1.2-.2-1.3-.7-1.4-.9.5-1 1.2zm8.1 1.1c-.2.7.2 1.3.7 1.4s.9-.5 1-1.2-.2-1.3-.7-1.4c-.5 0-.9.5-1 1.2z" class="u"/><path d="M141.1 115c.5 2.3 1.4 4.5 2.6 6.6-1.1.6-2.4.6-3.5.2l.9-6.8z" fill="#b84d3c"/><path d="M133.5 110.9c.2 0 .3 0 .4-.1.7-.8 1.8-1.2 2.9-1 .2 0 .5-.1.5-.3s-.1-.5-.3-.5c-1.4-.2-2.7.3-3.7 1.2-.2.2-.2.4 0 .6.1 0 .2.1.2.1zm14.1 1.8c.1 0 .2.1.2.1a.55.55 0 0 0 .3-.5c-.4-1.3-1.4-2.4-2.7-2.8-.2-.1-.5.1-.5.3h0c-.1.2.1.5.3.5h0c1 .4 1.8 1.2 2.1 2.2.1.1.2.2.3.2z" class="u"/><path d="M134.5 122.1s1.5 3.2 4.5 3.1" class="v x AD AE AH AI"/><use xlink:href="#K" class="y"/><use xlink:href="#K" class="r w"/><path d="M117.9 104.2s5 .8 12.9-.8c12.2-2.4 17.4 2.1 17.4 2.1s2.9-2.5 2.5-6-5.2-4.1-5.2-4.1-1.5-4-4.7-5.2-6.5 1.8-6.5 1.8-4-3.9-8.7-2.8c-5.8 1.4-5.6 6.9-5.6 6.9s-5.5.6-5.4 3.4 3.3 4.7 3.3 4.7z" class="u"/><g class="x AD AH AI"><ellipse cx="136.6" cy="114.5" rx="4" ry="4.6"/><g class="v"><path d="M150.5 115.1c0 2.5-1.8 4.6-4 4.6s-4-2-4-4.6c0-2.5 1.8-4.6 4-4.6 2.2.1 4 2.1 4 4.6z"/><path d="M140.5 115s1.3-.8 2 .1m-9.9-.6l-6.9-.9c-.9-.1-1.8.1-2.5.7l-.3.2" class="AE"/></g></g><path d="M117.8 116.2c.7 2.1 2.2 3.9 4.2 4.9 2.6 1.3 4.5-.9 4.3-3.7-.3-2.5-1.9-6.2-4.8-6.4-2.9-.1-4.5 2.6-3.7 5.2z" class="y"/><path d="M73.5 181.3C85 176.5 94 156.9 94 156.9l-6.5-3.9-8.8 7.1c-.3 1-.5 1.9-.8 2.9-1.2 4.5-2.3 9.3-3.4 14.1-.4 1.4-.7 2.8-1 4.2z" class="r s"/><path d="M136.5 183.4l19.7-7.3.6 1.7-19.7 7z" class="q"/><path d="M28.237 224.2l57.188 9.073-5.594 35.26-57.188-9.073z" class="t"/><path d="M48.5 237.6l-11.6 6 9.1 9.3m13.6 2.1l11.6-6-9.2-9.3m-11.9 13.8l7.9-14.4" stroke-width="2" class="v x AD AE AG"/><path d="M80.7 142s-21.5 21.6-24.5 25.8c-2.9 4.2-8.6 50.8-8.6 50.8s-1.2.4-1.3 1.4-.2 14.1 0 14.7 10.1 6.7 11.6 5.3c1.5-1.5 3.5-16.3 3.5-16.3l-5.2-5.1s6.1-34.3 9.9-39.9 19.5-17.4 19.5-17.4L80.7 142z" class="y"/><use xlink:href="#L" class="t"/><g class="q"><use xlink:href="#L" class="r w"/><path d="M62.2 158.1l-1.3 1.8L72 174.3l1.5-1.1z"/></g><defs ><path id="B" d="M267.3 114.5h-34.9c-.7 0-1.2.5-1.2 1.2v20.9c0 .7.5 1.2 1.2 1.2h34.9c.7 0 1.2-.5 1.2-1.2v-20.9c0-.6-.5-1.2-1.2-1.2z"/><path id="C" d="M98.9 138.2h-9.4c-.5 0-.9-.4-.9-.9v-8.5c0-.5.4-.9.9-.9h9.4c.5 0 .9.4.9.9v8.5c0 .5-.4.9-.9.9z"/><path id="D" d="M432.6 377H397c-1.1 0-2-.9-2-2h0c0-1.1.9-2 2-2h35.6c1.1 0 2 .9 2 2h0a1.94 1.94 0 0 1-2 2z"/><path id="E" d="M436.6 399.4H401c-1.1 0-2-.9-2-2h0c0-1.1.9-2 2-2h35.6c1.1 0 2 .9 2 2h0c-.1 1.2-1 2-2 2z"/><path id="F" d="M455.7 119H143.6c-4.4 0-8 3.6-8 8v211.3c0 4.4 3.6 8 8 8h312.1c4.4 0 8-3.6 8-8V127c0-4.4-3.6-8-8-8z"/><path id="G" d="M355.4 417.4H243.8c-.6 0-1 .5-1 1v4.4c0 .6.5 1 1 1h111.6c.6 0 1-.5 1-1v-4.4c.1-.5-.4-1-1-1z"/><path id="H" d="M194.8 186.9l12.9 4.8-6.8-6.8a1.36 1.36 0 0 1-1.6-.2c-.5-.5-.5-1.4 0-1.9s1.4-.5 1.9 0a1.36 1.36 0 0 1 .2 1.6l6.8 6.8-4.8-12.9-4.3.9-.2-1.5-.8-.8-4.7 4.7.8.8 1.5.2-.9 4.3z"/><path id="I" d="M481.1 425.8c1.1-.9 2.4-1.6 3.8-2.1h0s4.1-4.1 6.1-16.4l5.4-1.4c1.9-.5 3.8.3 4.9 1.9a1.08 1.08 0 0 1 .3.7c.3 1.3.5 2.7.6 4 .5 4.2.1 13.5.1 13.5h-1l-.4-8.5c-.1-2.9-2.4.5-3 3.6s-2 6.4-8.3 6.6c-7.3.2-10.4-.1-8.5-1.9z"/><path id="J" d="M488.3 162s-15.3 6-33.9 17.5l-17.7-24.2s-4.8 1.5-6.5 9.8c0 0 9.1 34.7 20.9 38.1s36.7-10 36.7-10 7.1-18.1.5-31.2z"/><path id="K" d="M130.7 99.5l.1 3.9c-1.3.6-2.2 1.9-1.8 3.5 1 3.4-1.4 8.3-4.1 10.1 0 0 .1-1.4-1.2-1.2-1.2.2-1.6 7.7.4 11.4 0 0-4.3-3.9-5.6-11.9-1.2-7.4-1-12 .1-15.5l12.1-.3z"/><path id="L" d="M97.2 133.3c3.1 6.6.8 20.6-5 25.6-8.8 7.5-19.4 13.9-19.4 13.9L62.2 159l18-17.3c8.4-7.7 17-8.4 17-8.4z"/></defs></svg>